ISO-10303-21;
HEADER;
FILE_DESCRIPTION(('Open CASCADE Model'),'2;1');
FILE_NAME('Open CASCADE Shape Model','2026-03-12T06:56:06',('Author'),(
    'Open CASCADE'),'Open CASCADE STEP processor 7.5','Open CASCADE 7.5'
  ,'Unknown');
FILE_SCHEMA(('AUTOMOTIVE_DESIGN { 1 0 10303 214 1 1 1 1 }'));
ENDSEC;
DATA;
#1 = APPLICATION_PROTOCOL_DEFINITION('international standard',
  'automotive_design',2000,#2);
#2 = APPLICATION_CONTEXT(
  'core data for automotive mechanical design processes');
#3 = SHAPE_DEFINITION_REPRESENTATION(#4,#10);
#4 = PRODUCT_DEFINITION_SHAPE('','',#5);
#5 = PRODUCT_DEFINITION('design','',#6,#9);
#6 = PRODUCT_DEFINITION_FORMATION('','',#7);
#7 = PRODUCT('PCB','PCB','',(#8));
#8 = PRODUCT_CONTEXT('',#2,'mechanical');
#9 = PRODUCT_DEFINITION_CONTEXT('part definition',#2,'design');
#10 = SHAPE_REPRESENTATION('',(#11,#15),#19);
#11 = AXIS2_PLACEMENT_3D('',#12,#13,#14);
#12 = CARTESIAN_POINT('',(0.,0.,0.));
#13 = DIRECTION('',(0.,0.,1.));
#14 = DIRECTION('',(1.,0.,-0.));
#15 = AXIS2_PLACEMENT_3D('',#16,#17,#18);
#16 = CARTESIAN_POINT('',(0.,0.,0.));
#17 = DIRECTION('',(0.,0.,1.));
#18 = DIRECTION('',(1.,0.,-0.));
#19 = ( GEOMETRIC_REPRESENTATION_CONTEXT(3) 
GLOBAL_UNCERTAINTY_ASSIGNED_CONTEXT((#23)) GLOBAL_UNIT_ASSIGNED_CONTEXT(
(#20,#21,#22)) REPRESENTATION_CONTEXT('Context #1',
  '3D Context with UNIT and UNCERTAINTY') );
#20 = ( LENGTH_UNIT() NAMED_UNIT(*) SI_UNIT(.MILLI.,.METRE.) );
#21 = ( NAMED_UNIT(*) PLANE_ANGLE_UNIT() SI_UNIT($,.RADIAN.) );
#22 = ( NAMED_UNIT(*) SI_UNIT($,.STERADIAN.) SOLID_ANGLE_UNIT() );
#23 = UNCERTAINTY_MEASURE_WITH_UNIT(LENGTH_MEASURE(1.E-07),#20,
  'distance_accuracy_value','confusion accuracy');
#24 = PRODUCT_RELATED_PRODUCT_CATEGORY('part',$,(#7));
#25 = SHAPE_DEFINITION_REPRESENTATION(#26,#32);
#26 = PRODUCT_DEFINITION_SHAPE('','',#27);
#27 = PRODUCT_DEFINITION('design','',#28,#31);
#28 = PRODUCT_DEFINITION_FORMATION('','',#29);
#29 = PRODUCT('Board','Board','',(#30));
#30 = PRODUCT_CONTEXT('',#2,'mechanical');
#31 = PRODUCT_DEFINITION_CONTEXT('part definition',#2,'design');
#32 = SHAPE_REPRESENTATION('',(#11,#33),#37);
#33 = AXIS2_PLACEMENT_3D('',#34,#35,#36);
#34 = CARTESIAN_POINT('',(0.,0.,-0.4103624));
#35 = DIRECTION('',(0.,0.,1.));
#36 = DIRECTION('',(1.,0.,-0.));
#37 = ( GEOMETRIC_REPRESENTATION_CONTEXT(3) 
GLOBAL_UNCERTAINTY_ASSIGNED_CONTEXT((#41)) GLOBAL_UNIT_ASSIGNED_CONTEXT(
(#38,#39,#40)) REPRESENTATION_CONTEXT('Context #1',
  '3D Context with UNIT and UNCERTAINTY') );
#38 = ( LENGTH_UNIT() NAMED_UNIT(*) SI_UNIT(.MILLI.,.METRE.) );
#39 = ( NAMED_UNIT(*) PLANE_ANGLE_UNIT() SI_UNIT($,.RADIAN.) );
#40 = ( NAMED_UNIT(*) SI_UNIT($,.STERADIAN.) SOLID_ANGLE_UNIT() );
#41 = UNCERTAINTY_MEASURE_WITH_UNIT(LENGTH_MEASURE(1.E-07),#38,
  'distance_accuracy_value','confusion accuracy');
#42 = ADVANCED_BREP_SHAPE_REPRESENTATION('',(#11,#43),#1678);
#43 = MANIFOLD_SOLID_BREP('',#44);
#44 = CLOSED_SHELL('',(#45,#87,#118,#151,#182,#215,#246,#279,#301,#334,
    #367,#400,#433,#473,#504,#535,#566,#597,#628,#659,#690,#721,#752,
    #783,#814,#845,#876,#907,#938,#969,#1000,#1031,#1062,#1093,#1124,
    #1155,#1186,#1217,#1248,#1279,#1310,#1341,#1363,#1396,#1429,#1462,
    #1495,#1528,#1603));
#45 = ADVANCED_FACE('',(#46),#82,.T.);
#46 = FACE_BOUND('',#47,.F.);
#47 = EDGE_LOOP('',(#48,#58,#67,#75));
#48 = ORIENTED_EDGE('',*,*,#49,.T.);
#49 = EDGE_CURVE('',#50,#52,#54,.T.);
#50 = VERTEX_POINT('',#51);
#51 = CARTESIAN_POINT('',(2.54,17.78,0.));
#52 = VERTEX_POINT('',#53);
#53 = CARTESIAN_POINT('',(2.54,17.78,0.4103624));
#54 = LINE('',#55,#56);
#55 = CARTESIAN_POINT('',(2.54,17.78,0.));
#56 = VECTOR('',#57,1.);
#57 = DIRECTION('',(0.,0.,1.));
#58 = ORIENTED_EDGE('',*,*,#59,.T.);
#59 = EDGE_CURVE('',#52,#60,#62,.T.);
#60 = VERTEX_POINT('',#61);
#61 = CARTESIAN_POINT('',(-2.22044604925E-16,15.24,0.4103624));
#62 = CIRCLE('',#63,2.540174910965);
#63 = AXIS2_PLACEMENT_3D('',#64,#65,#66);
#64 = CARTESIAN_POINT('',(2.540174904943,15.239825095057,0.4103624));
#65 = DIRECTION('',(0.,0.,1.));
#66 = DIRECTION('',(-6.885547220011E-05,0.999999997629,0.));
#67 = ORIENTED_EDGE('',*,*,#68,.F.);
#68 = EDGE_CURVE('',#69,#60,#71,.T.);
#69 = VERTEX_POINT('',#70);
#70 = CARTESIAN_POINT('',(-2.22044604925E-16,15.24,0.));
#71 = LINE('',#72,#73);
#72 = CARTESIAN_POINT('',(-2.22044604925E-16,15.24,0.));
#73 = VECTOR('',#74,1.);
#74 = DIRECTION('',(0.,0.,1.));
#75 = ORIENTED_EDGE('',*,*,#76,.F.);
#76 = EDGE_CURVE('',#50,#69,#77,.T.);
#77 = CIRCLE('',#78,2.540174910965);
#78 = AXIS2_PLACEMENT_3D('',#79,#80,#81);
#79 = CARTESIAN_POINT('',(2.540174904943,15.239825095057,0.));
#80 = DIRECTION('',(0.,0.,1.));
#81 = DIRECTION('',(-6.885547220011E-05,0.999999997629,0.));
#82 = CYLINDRICAL_SURFACE('',#83,2.540174910965);
#83 = AXIS2_PLACEMENT_3D('',#84,#85,#86);
#84 = CARTESIAN_POINT('',(2.540174904943,15.239825095057,0.));
#85 = DIRECTION('',(-0.,-0.,-1.));
#86 = DIRECTION('',(-6.885547220011E-05,0.999999997629,0.));
#87 = ADVANCED_FACE('',(#88),#113,.F.);
#88 = FACE_BOUND('',#89,.F.);
#89 = EDGE_LOOP('',(#90,#91,#99,#107));
#90 = ORIENTED_EDGE('',*,*,#68,.T.);
#91 = ORIENTED_EDGE('',*,*,#92,.T.);
#92 = EDGE_CURVE('',#60,#93,#95,.T.);
#93 = VERTEX_POINT('',#94);
#94 = CARTESIAN_POINT('',(-2.22044604925E-16,2.54,0.4103624));
#95 = LINE('',#96,#97);
#96 = CARTESIAN_POINT('',(0.,15.24,0.4103624));
#97 = VECTOR('',#98,1.);
#98 = DIRECTION('',(0.,-1.,0.));
#99 = ORIENTED_EDGE('',*,*,#100,.F.);
#100 = EDGE_CURVE('',#101,#93,#103,.T.);
#101 = VERTEX_POINT('',#102);
#102 = CARTESIAN_POINT('',(-2.22044604925E-16,2.54,0.));
#103 = LINE('',#104,#105);
#104 = CARTESIAN_POINT('',(-2.22044604925E-16,2.54,0.));
#105 = VECTOR('',#106,1.);
#106 = DIRECTION('',(0.,0.,1.));
#107 = ORIENTED_EDGE('',*,*,#108,.F.);
#108 = EDGE_CURVE('',#69,#101,#109,.T.);
#109 = LINE('',#110,#111);
#110 = CARTESIAN_POINT('',(0.,15.24,0.));
#111 = VECTOR('',#112,1.);
#112 = DIRECTION('',(0.,-1.,0.));
#113 = PLANE('',#114);
#114 = AXIS2_PLACEMENT_3D('',#115,#116,#117);
#115 = CARTESIAN_POINT('',(0.,15.24,0.));
#116 = DIRECTION('',(1.,0.,-0.));
#117 = DIRECTION('',(0.,-1.,0.));
#118 = ADVANCED_FACE('',(#119),#146,.T.);
#119 = FACE_BOUND('',#120,.F.);
#120 = EDGE_LOOP('',(#121,#122,#131,#139));
#121 = ORIENTED_EDGE('',*,*,#100,.T.);
#122 = ORIENTED_EDGE('',*,*,#123,.T.);
#123 = EDGE_CURVE('',#93,#124,#126,.T.);
#124 = VERTEX_POINT('',#125);
#125 = CARTESIAN_POINT('',(2.54,-2.22044604925E-16,0.4103624));
#126 = CIRCLE('',#127,2.540174910965);
#127 = AXIS2_PLACEMENT_3D('',#128,#129,#130);
#128 = CARTESIAN_POINT('',(2.540174904943,2.540174904943,0.4103624));
#129 = DIRECTION('',(0.,0.,1.));
#130 = DIRECTION('',(-0.999999997629,-6.885547220046E-05,0.));
#131 = ORIENTED_EDGE('',*,*,#132,.F.);
#132 = EDGE_CURVE('',#133,#124,#135,.T.);
#133 = VERTEX_POINT('',#134);
#134 = CARTESIAN_POINT('',(2.54,-2.22044604925E-16,0.));
#135 = LINE('',#136,#137);
#136 = CARTESIAN_POINT('',(2.54,-2.22044604925E-16,0.));
#137 = VECTOR('',#138,1.);
#138 = DIRECTION('',(0.,0.,1.));
#139 = ORIENTED_EDGE('',*,*,#140,.F.);
#140 = EDGE_CURVE('',#101,#133,#141,.T.);
#141 = CIRCLE('',#142,2.540174910965);
#142 = AXIS2_PLACEMENT_3D('',#143,#144,#145);
#143 = CARTESIAN_POINT('',(2.540174904943,2.540174904943,0.));
#144 = DIRECTION('',(0.,0.,1.));
#145 = DIRECTION('',(-0.999999997629,-6.885547220046E-05,0.));
#146 = CYLINDRICAL_SURFACE('',#147,2.540174910965);
#147 = AXIS2_PLACEMENT_3D('',#148,#149,#150);
#148 = CARTESIAN_POINT('',(2.540174904943,2.540174904943,0.));
#149 = DIRECTION('',(-0.,-0.,-1.));
#150 = DIRECTION('',(-0.999999997629,-6.885547220046E-05,0.));
#151 = ADVANCED_FACE('',(#152),#177,.F.);
#152 = FACE_BOUND('',#153,.F.);
#153 = EDGE_LOOP('',(#154,#155,#163,#171));
#154 = ORIENTED_EDGE('',*,*,#132,.T.);
#155 = ORIENTED_EDGE('',*,*,#156,.T.);
#156 = EDGE_CURVE('',#124,#157,#159,.T.);
#157 = VERTEX_POINT('',#158);
#158 = CARTESIAN_POINT('',(22.86,0.,0.4103624));
#159 = LINE('',#160,#161);
#160 = CARTESIAN_POINT('',(2.54,0.,0.4103624));
#161 = VECTOR('',#162,1.);
#162 = DIRECTION('',(1.,0.,0.));
#163 = ORIENTED_EDGE('',*,*,#164,.F.);
#164 = EDGE_CURVE('',#165,#157,#167,.T.);
#165 = VERTEX_POINT('',#166);
#166 = CARTESIAN_POINT('',(22.86,0.,0.));
#167 = LINE('',#168,#169);
#168 = CARTESIAN_POINT('',(22.86,0.,0.));
#169 = VECTOR('',#170,1.);
#170 = DIRECTION('',(0.,0.,1.));
#171 = ORIENTED_EDGE('',*,*,#172,.F.);
#172 = EDGE_CURVE('',#133,#165,#173,.T.);
#173 = LINE('',#174,#175);
#174 = CARTESIAN_POINT('',(2.54,0.,0.));
#175 = VECTOR('',#176,1.);
#176 = DIRECTION('',(1.,0.,0.));
#177 = PLANE('',#178);
#178 = AXIS2_PLACEMENT_3D('',#179,#180,#181);
#179 = CARTESIAN_POINT('',(2.54,0.,0.));
#180 = DIRECTION('',(0.,1.,0.));
#181 = DIRECTION('',(1.,0.,0.));
#182 = ADVANCED_FACE('',(#183),#210,.T.);
#183 = FACE_BOUND('',#184,.F.);
#184 = EDGE_LOOP('',(#185,#186,#195,#203));
#185 = ORIENTED_EDGE('',*,*,#164,.T.);
#186 = ORIENTED_EDGE('',*,*,#187,.T.);
#187 = EDGE_CURVE('',#157,#188,#190,.T.);
#188 = VERTEX_POINT('',#189);
#189 = CARTESIAN_POINT('',(25.4,2.54,0.4103624));
#190 = CIRCLE('',#191,2.540174910965);
#191 = AXIS2_PLACEMENT_3D('',#192,#193,#194);
#192 = CARTESIAN_POINT('',(22.859825095057,2.540174904943,0.4103624));
#193 = DIRECTION('',(0.,0.,1.));
#194 = DIRECTION('',(6.885547220046E-05,-0.999999997629,0.));
#195 = ORIENTED_EDGE('',*,*,#196,.F.);
#196 = EDGE_CURVE('',#197,#188,#199,.T.);
#197 = VERTEX_POINT('',#198);
#198 = CARTESIAN_POINT('',(25.4,2.54,0.));
#199 = LINE('',#200,#201);
#200 = CARTESIAN_POINT('',(25.4,2.54,0.));
#201 = VECTOR('',#202,1.);
#202 = DIRECTION('',(0.,0.,1.));
#203 = ORIENTED_EDGE('',*,*,#204,.F.);
#204 = EDGE_CURVE('',#165,#197,#205,.T.);
#205 = CIRCLE('',#206,2.540174910965);
#206 = AXIS2_PLACEMENT_3D('',#207,#208,#209);
#207 = CARTESIAN_POINT('',(22.859825095057,2.540174904943,0.));
#208 = DIRECTION('',(0.,0.,1.));
#209 = DIRECTION('',(6.885547220046E-05,-0.999999997629,0.));
#210 = CYLINDRICAL_SURFACE('',#211,2.540174910965);
#211 = AXIS2_PLACEMENT_3D('',#212,#213,#214);
#212 = CARTESIAN_POINT('',(22.859825095057,2.540174904943,0.));
#213 = DIRECTION('',(-0.,-0.,-1.));
#214 = DIRECTION('',(6.885547220046E-05,-0.999999997629,0.));
#215 = ADVANCED_FACE('',(#216),#241,.F.);
#216 = FACE_BOUND('',#217,.F.);
#217 = EDGE_LOOP('',(#218,#219,#227,#235));
#218 = ORIENTED_EDGE('',*,*,#196,.T.);
#219 = ORIENTED_EDGE('',*,*,#220,.T.);
#220 = EDGE_CURVE('',#188,#221,#223,.T.);
#221 = VERTEX_POINT('',#222);
#222 = CARTESIAN_POINT('',(25.4,15.24,0.4103624));
#223 = LINE('',#224,#225);
#224 = CARTESIAN_POINT('',(25.4,2.54,0.4103624));
#225 = VECTOR('',#226,1.);
#226 = DIRECTION('',(0.,1.,0.));
#227 = ORIENTED_EDGE('',*,*,#228,.F.);
#228 = EDGE_CURVE('',#229,#221,#231,.T.);
#229 = VERTEX_POINT('',#230);
#230 = CARTESIAN_POINT('',(25.4,15.24,0.));
#231 = LINE('',#232,#233);
#232 = CARTESIAN_POINT('',(25.4,15.24,0.));
#233 = VECTOR('',#234,1.);
#234 = DIRECTION('',(0.,0.,1.));
#235 = ORIENTED_EDGE('',*,*,#236,.F.);
#236 = EDGE_CURVE('',#197,#229,#237,.T.);
#237 = LINE('',#238,#239);
#238 = CARTESIAN_POINT('',(25.4,2.54,0.));
#239 = VECTOR('',#240,1.);
#240 = DIRECTION('',(0.,1.,0.));
#241 = PLANE('',#242);
#242 = AXIS2_PLACEMENT_3D('',#243,#244,#245);
#243 = CARTESIAN_POINT('',(25.4,2.54,0.));
#244 = DIRECTION('',(-1.,0.,0.));
#245 = DIRECTION('',(0.,1.,0.));
#246 = ADVANCED_FACE('',(#247),#274,.T.);
#247 = FACE_BOUND('',#248,.F.);
#248 = EDGE_LOOP('',(#249,#250,#259,#267));
#249 = ORIENTED_EDGE('',*,*,#228,.T.);
#250 = ORIENTED_EDGE('',*,*,#251,.T.);
#251 = EDGE_CURVE('',#221,#252,#254,.T.);
#252 = VERTEX_POINT('',#253);
#253 = CARTESIAN_POINT('',(22.86,17.78,0.4103624));
#254 = CIRCLE('',#255,2.540174910965);
#255 = AXIS2_PLACEMENT_3D('',#256,#257,#258);
#256 = CARTESIAN_POINT('',(22.859825095057,15.239825095057,0.4103624));
#257 = DIRECTION('',(0.,0.,1.));
#258 = DIRECTION('',(0.999999997629,6.885547219977E-05,-0.));
#259 = ORIENTED_EDGE('',*,*,#260,.F.);
#260 = EDGE_CURVE('',#261,#252,#263,.T.);
#261 = VERTEX_POINT('',#262);
#262 = CARTESIAN_POINT('',(22.86,17.78,0.));
#263 = LINE('',#264,#265);
#264 = CARTESIAN_POINT('',(22.86,17.78,0.));
#265 = VECTOR('',#266,1.);
#266 = DIRECTION('',(0.,0.,1.));
#267 = ORIENTED_EDGE('',*,*,#268,.F.);
#268 = EDGE_CURVE('',#229,#261,#269,.T.);
#269 = CIRCLE('',#270,2.540174910965);
#270 = AXIS2_PLACEMENT_3D('',#271,#272,#273);
#271 = CARTESIAN_POINT('',(22.859825095057,15.239825095057,0.));
#272 = DIRECTION('',(0.,0.,1.));
#273 = DIRECTION('',(0.999999997629,6.885547219977E-05,-0.));
#274 = CYLINDRICAL_SURFACE('',#275,2.540174910965);
#275 = AXIS2_PLACEMENT_3D('',#276,#277,#278);
#276 = CARTESIAN_POINT('',(22.859825095057,15.239825095057,0.));
#277 = DIRECTION('',(-0.,-0.,-1.));
#278 = DIRECTION('',(0.999999997629,6.885547219977E-05,-0.));
#279 = ADVANCED_FACE('',(#280),#296,.F.);
#280 = FACE_BOUND('',#281,.F.);
#281 = EDGE_LOOP('',(#282,#283,#289,#290));
#282 = ORIENTED_EDGE('',*,*,#260,.T.);
#283 = ORIENTED_EDGE('',*,*,#284,.T.);
#284 = EDGE_CURVE('',#252,#52,#285,.T.);
#285 = LINE('',#286,#287);
#286 = CARTESIAN_POINT('',(22.86,17.78,0.4103624));
#287 = VECTOR('',#288,1.);
#288 = DIRECTION('',(-1.,0.,0.));
#289 = ORIENTED_EDGE('',*,*,#49,.F.);
#290 = ORIENTED_EDGE('',*,*,#291,.F.);
#291 = EDGE_CURVE('',#261,#50,#292,.T.);
#292 = LINE('',#293,#294);
#293 = CARTESIAN_POINT('',(22.86,17.78,0.));
#294 = VECTOR('',#295,1.);
#295 = DIRECTION('',(-1.,0.,0.));
#296 = PLANE('',#297);
#297 = AXIS2_PLACEMENT_3D('',#298,#299,#300);
#298 = CARTESIAN_POINT('',(22.86,17.78,0.));
#299 = DIRECTION('',(0.,-1.,0.));
#300 = DIRECTION('',(-1.,0.,0.));
#301 = ADVANCED_FACE('',(#302),#329,.F.);
#302 = FACE_BOUND('',#303,.T.);
#303 = EDGE_LOOP('',(#304,#314,#321,#322));
#304 = ORIENTED_EDGE('',*,*,#305,.T.);
#305 = EDGE_CURVE('',#306,#308,#310,.T.);
#306 = VERTEX_POINT('',#307);
#307 = CARTESIAN_POINT('',(3.79,2.54,0.));
#308 = VERTEX_POINT('',#309);
#309 = CARTESIAN_POINT('',(3.79,2.54,0.4103624));
#310 = LINE('',#311,#312);
#311 = CARTESIAN_POINT('',(3.79,2.54,0.));
#312 = VECTOR('',#313,1.);
#313 = DIRECTION('',(0.,0.,1.));
#314 = ORIENTED_EDGE('',*,*,#315,.T.);
#315 = EDGE_CURVE('',#308,#308,#316,.T.);
#316 = CIRCLE('',#317,1.25);
#317 = AXIS2_PLACEMENT_3D('',#318,#319,#320);
#318 = CARTESIAN_POINT('',(2.54,2.54,0.4103624));
#319 = DIRECTION('',(0.,0.,1.));
#320 = DIRECTION('',(1.,0.,-0.));
#321 = ORIENTED_EDGE('',*,*,#305,.F.);
#322 = ORIENTED_EDGE('',*,*,#323,.F.);
#323 = EDGE_CURVE('',#306,#306,#324,.T.);
#324 = CIRCLE('',#325,1.25);
#325 = AXIS2_PLACEMENT_3D('',#326,#327,#328);
#326 = CARTESIAN_POINT('',(2.54,2.54,0.));
#327 = DIRECTION('',(0.,0.,1.));
#328 = DIRECTION('',(1.,0.,-0.));
#329 = CYLINDRICAL_SURFACE('',#330,1.25);
#330 = AXIS2_PLACEMENT_3D('',#331,#332,#333);
#331 = CARTESIAN_POINT('',(2.54,2.54,0.));
#332 = DIRECTION('',(-0.,-0.,-1.));
#333 = DIRECTION('',(1.,0.,-0.));
#334 = ADVANCED_FACE('',(#335),#362,.F.);
#335 = FACE_BOUND('',#336,.T.);
#336 = EDGE_LOOP('',(#337,#347,#354,#355));
#337 = ORIENTED_EDGE('',*,*,#338,.T.);
#338 = EDGE_CURVE('',#339,#341,#343,.T.);
#339 = VERTEX_POINT('',#340);
#340 = CARTESIAN_POINT('',(8.056,2.603,0.));
#341 = VERTEX_POINT('',#342);
#342 = CARTESIAN_POINT('',(8.056,2.603,0.4103624));
#343 = LINE('',#344,#345);
#344 = CARTESIAN_POINT('',(8.056,2.603,0.));
#345 = VECTOR('',#346,1.);
#346 = DIRECTION('',(0.,0.,1.));
#347 = ORIENTED_EDGE('',*,*,#348,.T.);
#348 = EDGE_CURVE('',#341,#341,#349,.T.);
#349 = CIRCLE('',#350,0.5);
#350 = AXIS2_PLACEMENT_3D('',#351,#352,#353);
#351 = CARTESIAN_POINT('',(7.556,2.603,0.4103624));
#352 = DIRECTION('',(0.,0.,1.));
#353 = DIRECTION('',(1.,0.,-0.));
#354 = ORIENTED_EDGE('',*,*,#338,.F.);
#355 = ORIENTED_EDGE('',*,*,#356,.F.);
#356 = EDGE_CURVE('',#339,#339,#357,.T.);
#357 = CIRCLE('',#358,0.5);
#358 = AXIS2_PLACEMENT_3D('',#359,#360,#361);
#359 = CARTESIAN_POINT('',(7.556,2.603,0.));
#360 = DIRECTION('',(0.,0.,1.));
#361 = DIRECTION('',(1.,0.,-0.));
#362 = CYLINDRICAL_SURFACE('',#363,0.5);
#363 = AXIS2_PLACEMENT_3D('',#364,#365,#366);
#364 = CARTESIAN_POINT('',(7.556,2.603,0.));
#365 = DIRECTION('',(-0.,-0.,-1.));
#366 = DIRECTION('',(1.,0.,-0.));
#367 = ADVANCED_FACE('',(#368),#395,.F.);
#368 = FACE_BOUND('',#369,.T.);
#369 = EDGE_LOOP('',(#370,#380,#387,#388));
#370 = ORIENTED_EDGE('',*,*,#371,.T.);
#371 = EDGE_CURVE('',#372,#374,#376,.T.);
#372 = VERTEX_POINT('',#373);
#373 = CARTESIAN_POINT('',(3.79,15.24,0.));
#374 = VERTEX_POINT('',#375);
#375 = CARTESIAN_POINT('',(3.79,15.24,0.4103624));
#376 = LINE('',#377,#378);
#377 = CARTESIAN_POINT('',(3.79,15.24,0.));
#378 = VECTOR('',#379,1.);
#379 = DIRECTION('',(0.,0.,1.));
#380 = ORIENTED_EDGE('',*,*,#381,.T.);
#381 = EDGE_CURVE('',#374,#374,#382,.T.);
#382 = CIRCLE('',#383,1.25);
#383 = AXIS2_PLACEMENT_3D('',#384,#385,#386);
#384 = CARTESIAN_POINT('',(2.54,15.24,0.4103624));
#385 = DIRECTION('',(0.,0.,1.));
#386 = DIRECTION('',(1.,0.,-0.));
#387 = ORIENTED_EDGE('',*,*,#371,.F.);
#388 = ORIENTED_EDGE('',*,*,#389,.F.);
#389 = EDGE_CURVE('',#372,#372,#390,.T.);
#390 = CIRCLE('',#391,1.25);
#391 = AXIS2_PLACEMENT_3D('',#392,#393,#394);
#392 = CARTESIAN_POINT('',(2.54,15.24,0.));
#393 = DIRECTION('',(0.,0.,1.));
#394 = DIRECTION('',(1.,0.,-0.));
#395 = CYLINDRICAL_SURFACE('',#396,1.25);
#396 = AXIS2_PLACEMENT_3D('',#397,#398,#399);
#397 = CARTESIAN_POINT('',(2.54,15.24,0.));
#398 = DIRECTION('',(-0.,-0.,-1.));
#399 = DIRECTION('',(1.,0.,-0.));
#400 = ADVANCED_FACE('',(#401),#428,.F.);
#401 = FACE_BOUND('',#402,.T.);
#402 = EDGE_LOOP('',(#403,#413,#420,#421));
#403 = ORIENTED_EDGE('',*,*,#404,.T.);
#404 = EDGE_CURVE('',#405,#407,#409,.T.);
#405 = VERTEX_POINT('',#406);
#406 = CARTESIAN_POINT('',(10.597,2.603,0.));
#407 = VERTEX_POINT('',#408);
#408 = CARTESIAN_POINT('',(10.597,2.603,0.4103624));
#409 = LINE('',#410,#411);
#410 = CARTESIAN_POINT('',(10.597,2.603,0.));
#411 = VECTOR('',#412,1.);
#412 = DIRECTION('',(0.,0.,1.));
#413 = ORIENTED_EDGE('',*,*,#414,.T.);
#414 = EDGE_CURVE('',#407,#407,#415,.T.);
#415 = CIRCLE('',#416,0.5);
#416 = AXIS2_PLACEMENT_3D('',#417,#418,#419);
#417 = CARTESIAN_POINT('',(10.097,2.603,0.4103624));
#418 = DIRECTION('',(0.,0.,1.));
#419 = DIRECTION('',(1.,0.,-0.));
#420 = ORIENTED_EDGE('',*,*,#404,.F.);
#421 = ORIENTED_EDGE('',*,*,#422,.F.);
#422 = EDGE_CURVE('',#405,#405,#423,.T.);
#423 = CIRCLE('',#424,0.5);
#424 = AXIS2_PLACEMENT_3D('',#425,#426,#427);
#425 = CARTESIAN_POINT('',(10.097,2.603,0.));
#426 = DIRECTION('',(0.,0.,1.));
#427 = DIRECTION('',(1.,0.,-0.));
#428 = CYLINDRICAL_SURFACE('',#429,0.5);
#429 = AXIS2_PLACEMENT_3D('',#430,#431,#432);
#430 = CARTESIAN_POINT('',(10.097,2.603,0.));
#431 = DIRECTION('',(-0.,-0.,-1.));
#432 = DIRECTION('',(1.,0.,-0.));
#433 = ADVANCED_FACE('',(#434),#468,.F.);
#434 = FACE_BOUND('',#435,.F.);
#435 = EDGE_LOOP('',(#436,#446,#454,#462));
#436 = ORIENTED_EDGE('',*,*,#437,.T.);
#437 = EDGE_CURVE('',#438,#440,#442,.T.);
#438 = VERTEX_POINT('',#439);
#439 = CARTESIAN_POINT('',(15.339,12.939,0.));
#440 = VERTEX_POINT('',#441);
#441 = CARTESIAN_POINT('',(15.339,12.939,0.4103624));
#442 = LINE('',#443,#444);
#443 = CARTESIAN_POINT('',(15.339,12.939,0.));
#444 = VECTOR('',#445,1.);
#445 = DIRECTION('',(0.,0.,1.));
#446 = ORIENTED_EDGE('',*,*,#447,.T.);
#447 = EDGE_CURVE('',#440,#448,#450,.T.);
#448 = VERTEX_POINT('',#449);
#449 = CARTESIAN_POINT('',(15.423,12.883,0.4103624));
#450 = LINE('',#451,#452);
#451 = CARTESIAN_POINT('',(15.339,12.939,0.4103624));
#452 = VECTOR('',#453,1.);
#453 = DIRECTION('',(0.832050294338,-0.554700196225,0.));
#454 = ORIENTED_EDGE('',*,*,#455,.F.);
#455 = EDGE_CURVE('',#456,#448,#458,.T.);
#456 = VERTEX_POINT('',#457);
#457 = CARTESIAN_POINT('',(15.423,12.883,0.));
#458 = LINE('',#459,#460);
#459 = CARTESIAN_POINT('',(15.423,12.883,0.));
#460 = VECTOR('',#461,1.);
#461 = DIRECTION('',(0.,0.,1.));
#462 = ORIENTED_EDGE('',*,*,#463,.F.);
#463 = EDGE_CURVE('',#438,#456,#464,.T.);
#464 = LINE('',#465,#466);
#465 = CARTESIAN_POINT('',(15.339,12.939,0.));
#466 = VECTOR('',#467,1.);
#467 = DIRECTION('',(0.832050294338,-0.554700196225,0.));
#468 = PLANE('',#469);
#469 = AXIS2_PLACEMENT_3D('',#470,#471,#472);
#470 = CARTESIAN_POINT('',(15.339,12.939,0.));
#471 = DIRECTION('',(0.554700196225,0.832050294338,-0.));
#472 = DIRECTION('',(0.832050294338,-0.554700196225,0.));
#473 = ADVANCED_FACE('',(#474),#499,.F.);
#474 = FACE_BOUND('',#475,.F.);
#475 = EDGE_LOOP('',(#476,#477,#485,#493));
#476 = ORIENTED_EDGE('',*,*,#455,.T.);
#477 = ORIENTED_EDGE('',*,*,#478,.T.);
#478 = EDGE_CURVE('',#448,#479,#481,.T.);
#479 = VERTEX_POINT('',#480);
#480 = CARTESIAN_POINT('',(15.479,12.799,0.4103624));
#481 = LINE('',#482,#483);
#482 = CARTESIAN_POINT('',(15.423,12.883,0.4103624));
#483 = VECTOR('',#484,1.);
#484 = DIRECTION('',(0.554700196225,-0.832050294338,0.));
#485 = ORIENTED_EDGE('',*,*,#486,.F.);
#486 = EDGE_CURVE('',#487,#479,#489,.T.);
#487 = VERTEX_POINT('',#488);
#488 = CARTESIAN_POINT('',(15.479,12.799,0.));
#489 = LINE('',#490,#491);
#490 = CARTESIAN_POINT('',(15.479,12.799,0.));
#491 = VECTOR('',#492,1.);
#492 = DIRECTION('',(0.,0.,1.));
#493 = ORIENTED_EDGE('',*,*,#494,.F.);
#494 = EDGE_CURVE('',#456,#487,#495,.T.);
#495 = LINE('',#496,#497);
#496 = CARTESIAN_POINT('',(15.423,12.883,0.));
#497 = VECTOR('',#498,1.);
#498 = DIRECTION('',(0.554700196225,-0.832050294338,0.));
#499 = PLANE('',#500);
#500 = AXIS2_PLACEMENT_3D('',#501,#502,#503);
#501 = CARTESIAN_POINT('',(15.423,12.883,0.));
#502 = DIRECTION('',(0.832050294338,0.554700196225,-0.));
#503 = DIRECTION('',(0.554700196225,-0.832050294338,0.));
#504 = ADVANCED_FACE('',(#505),#530,.F.);
#505 = FACE_BOUND('',#506,.F.);
#506 = EDGE_LOOP('',(#507,#508,#516,#524));
#507 = ORIENTED_EDGE('',*,*,#486,.T.);
#508 = ORIENTED_EDGE('',*,*,#509,.T.);
#509 = EDGE_CURVE('',#479,#510,#512,.T.);
#510 = VERTEX_POINT('',#511);
#511 = CARTESIAN_POINT('',(15.499,12.7,0.4103624));
#512 = LINE('',#513,#514);
#513 = CARTESIAN_POINT('',(15.479,12.799,0.4103624));
#514 = VECTOR('',#515,1.);
#515 = DIRECTION('',(0.19801980198,-0.980198019802,0.));
#516 = ORIENTED_EDGE('',*,*,#517,.F.);
#517 = EDGE_CURVE('',#518,#510,#520,.T.);
#518 = VERTEX_POINT('',#519);
#519 = CARTESIAN_POINT('',(15.499,12.7,0.));
#520 = LINE('',#521,#522);
#521 = CARTESIAN_POINT('',(15.499,12.7,0.));
#522 = VECTOR('',#523,1.);
#523 = DIRECTION('',(0.,0.,1.));
#524 = ORIENTED_EDGE('',*,*,#525,.F.);
#525 = EDGE_CURVE('',#487,#518,#526,.T.);
#526 = LINE('',#527,#528);
#527 = CARTESIAN_POINT('',(15.479,12.799,0.));
#528 = VECTOR('',#529,1.);
#529 = DIRECTION('',(0.19801980198,-0.980198019802,0.));
#530 = PLANE('',#531);
#531 = AXIS2_PLACEMENT_3D('',#532,#533,#534);
#532 = CARTESIAN_POINT('',(15.479,12.799,0.));
#533 = DIRECTION('',(0.980198019802,0.19801980198,-0.));
#534 = DIRECTION('',(0.19801980198,-0.980198019802,0.));
#535 = ADVANCED_FACE('',(#536),#561,.F.);
#536 = FACE_BOUND('',#537,.F.);
#537 = EDGE_LOOP('',(#538,#539,#547,#555));
#538 = ORIENTED_EDGE('',*,*,#517,.T.);
#539 = ORIENTED_EDGE('',*,*,#540,.T.);
#540 = EDGE_CURVE('',#510,#541,#543,.T.);
#541 = VERTEX_POINT('',#542);
#542 = CARTESIAN_POINT('',(15.499,6.731,0.4103624));
#543 = LINE('',#544,#545);
#544 = CARTESIAN_POINT('',(15.499,12.7,0.4103624));
#545 = VECTOR('',#546,1.);
#546 = DIRECTION('',(0.,-1.,0.));
#547 = ORIENTED_EDGE('',*,*,#548,.F.);
#548 = EDGE_CURVE('',#549,#541,#551,.T.);
#549 = VERTEX_POINT('',#550);
#550 = CARTESIAN_POINT('',(15.499,6.731,0.));
#551 = LINE('',#552,#553);
#552 = CARTESIAN_POINT('',(15.499,6.731,0.));
#553 = VECTOR('',#554,1.);
#554 = DIRECTION('',(0.,0.,1.));
#555 = ORIENTED_EDGE('',*,*,#556,.F.);
#556 = EDGE_CURVE('',#518,#549,#557,.T.);
#557 = LINE('',#558,#559);
#558 = CARTESIAN_POINT('',(15.499,12.7,0.));
#559 = VECTOR('',#560,1.);
#560 = DIRECTION('',(0.,-1.,0.));
#561 = PLANE('',#562);
#562 = AXIS2_PLACEMENT_3D('',#563,#564,#565);
#563 = CARTESIAN_POINT('',(15.499,12.7,0.));
#564 = DIRECTION('',(1.,0.,-0.));
#565 = DIRECTION('',(0.,-1.,0.));
#566 = ADVANCED_FACE('',(#567),#592,.F.);
#567 = FACE_BOUND('',#568,.F.);
#568 = EDGE_LOOP('',(#569,#570,#578,#586));
#569 = ORIENTED_EDGE('',*,*,#548,.T.);
#570 = ORIENTED_EDGE('',*,*,#571,.T.);
#571 = EDGE_CURVE('',#541,#572,#574,.T.);
#572 = VERTEX_POINT('',#573);
#573 = CARTESIAN_POINT('',(15.479,6.632,0.4103624));
#574 = LINE('',#575,#576);
#575 = CARTESIAN_POINT('',(15.499,6.731,0.4103624));
#576 = VECTOR('',#577,1.);
#577 = DIRECTION('',(-0.19801980198,-0.980198019802,0.));
#578 = ORIENTED_EDGE('',*,*,#579,.F.);
#579 = EDGE_CURVE('',#580,#572,#582,.T.);
#580 = VERTEX_POINT('',#581);
#581 = CARTESIAN_POINT('',(15.479,6.632,0.));
#582 = LINE('',#583,#584);
#583 = CARTESIAN_POINT('',(15.479,6.632,0.));
#584 = VECTOR('',#585,1.);
#585 = DIRECTION('',(0.,0.,1.));
#586 = ORIENTED_EDGE('',*,*,#587,.F.);
#587 = EDGE_CURVE('',#549,#580,#588,.T.);
#588 = LINE('',#589,#590);
#589 = CARTESIAN_POINT('',(15.499,6.731,0.));
#590 = VECTOR('',#591,1.);
#591 = DIRECTION('',(-0.19801980198,-0.980198019802,0.));
#592 = PLANE('',#593);
#593 = AXIS2_PLACEMENT_3D('',#594,#595,#596);
#594 = CARTESIAN_POINT('',(15.499,6.731,0.));
#595 = DIRECTION('',(0.980198019802,-0.19801980198,0.));
#596 = DIRECTION('',(-0.19801980198,-0.980198019802,0.));
#597 = ADVANCED_FACE('',(#598),#623,.F.);
#598 = FACE_BOUND('',#599,.F.);
#599 = EDGE_LOOP('',(#600,#601,#609,#617));
#600 = ORIENTED_EDGE('',*,*,#579,.T.);
#601 = ORIENTED_EDGE('',*,*,#602,.T.);
#602 = EDGE_CURVE('',#572,#603,#605,.T.);
#603 = VERTEX_POINT('',#604);
#604 = CARTESIAN_POINT('',(15.423,6.548,0.4103624));
#605 = LINE('',#606,#607);
#606 = CARTESIAN_POINT('',(15.479,6.632,0.4103624));
#607 = VECTOR('',#608,1.);
#608 = DIRECTION('',(-0.554700196225,-0.832050294338,0.));
#609 = ORIENTED_EDGE('',*,*,#610,.F.);
#610 = EDGE_CURVE('',#611,#603,#613,.T.);
#611 = VERTEX_POINT('',#612);
#612 = CARTESIAN_POINT('',(15.423,6.548,0.));
#613 = LINE('',#614,#615);
#614 = CARTESIAN_POINT('',(15.423,6.548,0.));
#615 = VECTOR('',#616,1.);
#616 = DIRECTION('',(0.,0.,1.));
#617 = ORIENTED_EDGE('',*,*,#618,.F.);
#618 = EDGE_CURVE('',#580,#611,#619,.T.);
#619 = LINE('',#620,#621);
#620 = CARTESIAN_POINT('',(15.479,6.632,0.));
#621 = VECTOR('',#622,1.);
#622 = DIRECTION('',(-0.554700196225,-0.832050294338,0.));
#623 = PLANE('',#624);
#624 = AXIS2_PLACEMENT_3D('',#625,#626,#627);
#625 = CARTESIAN_POINT('',(15.479,6.632,0.));
#626 = DIRECTION('',(0.832050294338,-0.554700196225,0.));
#627 = DIRECTION('',(-0.554700196225,-0.832050294338,0.));
#628 = ADVANCED_FACE('',(#629),#654,.F.);
#629 = FACE_BOUND('',#630,.F.);
#630 = EDGE_LOOP('',(#631,#632,#640,#648));
#631 = ORIENTED_EDGE('',*,*,#610,.T.);
#632 = ORIENTED_EDGE('',*,*,#633,.T.);
#633 = EDGE_CURVE('',#603,#634,#636,.T.);
#634 = VERTEX_POINT('',#635);
#635 = CARTESIAN_POINT('',(15.339,6.492,0.4103624));
#636 = LINE('',#637,#638);
#637 = CARTESIAN_POINT('',(15.423,6.548,0.4103624));
#638 = VECTOR('',#639,1.);
#639 = DIRECTION('',(-0.832050294338,-0.554700196225,0.));
#640 = ORIENTED_EDGE('',*,*,#641,.F.);
#641 = EDGE_CURVE('',#642,#634,#644,.T.);
#642 = VERTEX_POINT('',#643);
#643 = CARTESIAN_POINT('',(15.339,6.492,0.));
#644 = LINE('',#645,#646);
#645 = CARTESIAN_POINT('',(15.339,6.492,0.));
#646 = VECTOR('',#647,1.);
#647 = DIRECTION('',(0.,0.,1.));
#648 = ORIENTED_EDGE('',*,*,#649,.F.);
#649 = EDGE_CURVE('',#611,#642,#650,.T.);
#650 = LINE('',#651,#652);
#651 = CARTESIAN_POINT('',(15.423,6.548,0.));
#652 = VECTOR('',#653,1.);
#653 = DIRECTION('',(-0.832050294338,-0.554700196225,0.));
#654 = PLANE('',#655);
#655 = AXIS2_PLACEMENT_3D('',#656,#657,#658);
#656 = CARTESIAN_POINT('',(15.423,6.548,0.));
#657 = DIRECTION('',(0.554700196225,-0.832050294338,0.));
#658 = DIRECTION('',(-0.832050294338,-0.554700196225,0.));
#659 = ADVANCED_FACE('',(#660),#685,.F.);
#660 = FACE_BOUND('',#661,.F.);
#661 = EDGE_LOOP('',(#662,#663,#671,#679));
#662 = ORIENTED_EDGE('',*,*,#641,.T.);
#663 = ORIENTED_EDGE('',*,*,#664,.T.);
#664 = EDGE_CURVE('',#634,#665,#667,.T.);
#665 = VERTEX_POINT('',#666);
#666 = CARTESIAN_POINT('',(15.24,6.472,0.4103624));
#667 = LINE('',#668,#669);
#668 = CARTESIAN_POINT('',(15.339,6.492,0.4103624));
#669 = VECTOR('',#670,1.);
#670 = DIRECTION('',(-0.980198019802,-0.19801980198,0.));
#671 = ORIENTED_EDGE('',*,*,#672,.F.);
#672 = EDGE_CURVE('',#673,#665,#675,.T.);
#673 = VERTEX_POINT('',#674);
#674 = CARTESIAN_POINT('',(15.24,6.472,0.));
#675 = LINE('',#676,#677);
#676 = CARTESIAN_POINT('',(15.24,6.472,0.));
#677 = VECTOR('',#678,1.);
#678 = DIRECTION('',(0.,0.,1.));
#679 = ORIENTED_EDGE('',*,*,#680,.F.);
#680 = EDGE_CURVE('',#642,#673,#681,.T.);
#681 = LINE('',#682,#683);
#682 = CARTESIAN_POINT('',(15.339,6.492,0.));
#683 = VECTOR('',#684,1.);
#684 = DIRECTION('',(-0.980198019802,-0.19801980198,0.));
#685 = PLANE('',#686);
#686 = AXIS2_PLACEMENT_3D('',#687,#688,#689);
#687 = CARTESIAN_POINT('',(15.339,6.492,0.));
#688 = DIRECTION('',(0.19801980198,-0.980198019802,0.));
#689 = DIRECTION('',(-0.980198019802,-0.19801980198,0.));
#690 = ADVANCED_FACE('',(#691),#716,.F.);
#691 = FACE_BOUND('',#692,.F.);
#692 = EDGE_LOOP('',(#693,#694,#702,#710));
#693 = ORIENTED_EDGE('',*,*,#672,.T.);
#694 = ORIENTED_EDGE('',*,*,#695,.T.);
#695 = EDGE_CURVE('',#665,#696,#698,.T.);
#696 = VERTEX_POINT('',#697);
#697 = CARTESIAN_POINT('',(15.141,6.492,0.4103624));
#698 = LINE('',#699,#700);
#699 = CARTESIAN_POINT('',(15.24,6.472,0.4103624));
#700 = VECTOR('',#701,1.);
#701 = DIRECTION('',(-0.980198019802,0.19801980198,0.));
#702 = ORIENTED_EDGE('',*,*,#703,.F.);
#703 = EDGE_CURVE('',#704,#696,#706,.T.);
#704 = VERTEX_POINT('',#705);
#705 = CARTESIAN_POINT('',(15.141,6.492,0.));
#706 = LINE('',#707,#708);
#707 = CARTESIAN_POINT('',(15.141,6.492,0.));
#708 = VECTOR('',#709,1.);
#709 = DIRECTION('',(0.,0.,1.));
#710 = ORIENTED_EDGE('',*,*,#711,.F.);
#711 = EDGE_CURVE('',#673,#704,#712,.T.);
#712 = LINE('',#713,#714);
#713 = CARTESIAN_POINT('',(15.24,6.472,0.));
#714 = VECTOR('',#715,1.);
#715 = DIRECTION('',(-0.980198019802,0.19801980198,0.));
#716 = PLANE('',#717);
#717 = AXIS2_PLACEMENT_3D('',#718,#719,#720);
#718 = CARTESIAN_POINT('',(15.24,6.472,0.));
#719 = DIRECTION('',(-0.19801980198,-0.980198019802,0.));
#720 = DIRECTION('',(-0.980198019802,0.19801980198,0.));
#721 = ADVANCED_FACE('',(#722),#747,.F.);
#722 = FACE_BOUND('',#723,.F.);
#723 = EDGE_LOOP('',(#724,#725,#733,#741));
#724 = ORIENTED_EDGE('',*,*,#703,.T.);
#725 = ORIENTED_EDGE('',*,*,#726,.T.);
#726 = EDGE_CURVE('',#696,#727,#729,.T.);
#727 = VERTEX_POINT('',#728);
#728 = CARTESIAN_POINT('',(15.057,6.548,0.4103624));
#729 = LINE('',#730,#731);
#730 = CARTESIAN_POINT('',(15.141,6.492,0.4103624));
#731 = VECTOR('',#732,1.);
#732 = DIRECTION('',(-0.832050294338,0.554700196225,0.));
#733 = ORIENTED_EDGE('',*,*,#734,.F.);
#734 = EDGE_CURVE('',#735,#727,#737,.T.);
#735 = VERTEX_POINT('',#736);
#736 = CARTESIAN_POINT('',(15.057,6.548,0.));
#737 = LINE('',#738,#739);
#738 = CARTESIAN_POINT('',(15.057,6.548,0.));
#739 = VECTOR('',#740,1.);
#740 = DIRECTION('',(0.,0.,1.));
#741 = ORIENTED_EDGE('',*,*,#742,.F.);
#742 = EDGE_CURVE('',#704,#735,#743,.T.);
#743 = LINE('',#744,#745);
#744 = CARTESIAN_POINT('',(15.141,6.492,0.));
#745 = VECTOR('',#746,1.);
#746 = DIRECTION('',(-0.832050294338,0.554700196225,0.));
#747 = PLANE('',#748);
#748 = AXIS2_PLACEMENT_3D('',#749,#750,#751);
#749 = CARTESIAN_POINT('',(15.141,6.492,0.));
#750 = DIRECTION('',(-0.554700196225,-0.832050294338,0.));
#751 = DIRECTION('',(-0.832050294338,0.554700196225,0.));
#752 = ADVANCED_FACE('',(#753),#778,.F.);
#753 = FACE_BOUND('',#754,.F.);
#754 = EDGE_LOOP('',(#755,#756,#764,#772));
#755 = ORIENTED_EDGE('',*,*,#734,.T.);
#756 = ORIENTED_EDGE('',*,*,#757,.T.);
#757 = EDGE_CURVE('',#727,#758,#760,.T.);
#758 = VERTEX_POINT('',#759);
#759 = CARTESIAN_POINT('',(15.001,6.632,0.4103624));
#760 = LINE('',#761,#762);
#761 = CARTESIAN_POINT('',(15.057,6.548,0.4103624));
#762 = VECTOR('',#763,1.);
#763 = DIRECTION('',(-0.554700196225,0.832050294338,0.));
#764 = ORIENTED_EDGE('',*,*,#765,.F.);
#765 = EDGE_CURVE('',#766,#758,#768,.T.);
#766 = VERTEX_POINT('',#767);
#767 = CARTESIAN_POINT('',(15.001,6.632,0.));
#768 = LINE('',#769,#770);
#769 = CARTESIAN_POINT('',(15.001,6.632,0.));
#770 = VECTOR('',#771,1.);
#771 = DIRECTION('',(0.,0.,1.));
#772 = ORIENTED_EDGE('',*,*,#773,.F.);
#773 = EDGE_CURVE('',#735,#766,#774,.T.);
#774 = LINE('',#775,#776);
#775 = CARTESIAN_POINT('',(15.057,6.548,0.));
#776 = VECTOR('',#777,1.);
#777 = DIRECTION('',(-0.554700196225,0.832050294338,0.));
#778 = PLANE('',#779);
#779 = AXIS2_PLACEMENT_3D('',#780,#781,#782);
#780 = CARTESIAN_POINT('',(15.057,6.548,0.));
#781 = DIRECTION('',(-0.832050294338,-0.554700196225,0.));
#782 = DIRECTION('',(-0.554700196225,0.832050294338,0.));
#783 = ADVANCED_FACE('',(#784),#809,.F.);
#784 = FACE_BOUND('',#785,.F.);
#785 = EDGE_LOOP('',(#786,#787,#795,#803));
#786 = ORIENTED_EDGE('',*,*,#765,.T.);
#787 = ORIENTED_EDGE('',*,*,#788,.T.);
#788 = EDGE_CURVE('',#758,#789,#791,.T.);
#789 = VERTEX_POINT('',#790);
#790 = CARTESIAN_POINT('',(14.981,6.731,0.4103624));
#791 = LINE('',#792,#793);
#792 = CARTESIAN_POINT('',(15.001,6.632,0.4103624));
#793 = VECTOR('',#794,1.);
#794 = DIRECTION('',(-0.19801980198,0.980198019802,0.));
#795 = ORIENTED_EDGE('',*,*,#796,.F.);
#796 = EDGE_CURVE('',#797,#789,#799,.T.);
#797 = VERTEX_POINT('',#798);
#798 = CARTESIAN_POINT('',(14.981,6.731,0.));
#799 = LINE('',#800,#801);
#800 = CARTESIAN_POINT('',(14.981,6.731,0.));
#801 = VECTOR('',#802,1.);
#802 = DIRECTION('',(0.,0.,1.));
#803 = ORIENTED_EDGE('',*,*,#804,.F.);
#804 = EDGE_CURVE('',#766,#797,#805,.T.);
#805 = LINE('',#806,#807);
#806 = CARTESIAN_POINT('',(15.001,6.632,0.));
#807 = VECTOR('',#808,1.);
#808 = DIRECTION('',(-0.19801980198,0.980198019802,0.));
#809 = PLANE('',#810);
#810 = AXIS2_PLACEMENT_3D('',#811,#812,#813);
#811 = CARTESIAN_POINT('',(15.001,6.632,0.));
#812 = DIRECTION('',(-0.980198019802,-0.19801980198,0.));
#813 = DIRECTION('',(-0.19801980198,0.980198019802,0.));
#814 = ADVANCED_FACE('',(#815),#840,.F.);
#815 = FACE_BOUND('',#816,.F.);
#816 = EDGE_LOOP('',(#817,#818,#826,#834));
#817 = ORIENTED_EDGE('',*,*,#796,.T.);
#818 = ORIENTED_EDGE('',*,*,#819,.T.);
#819 = EDGE_CURVE('',#789,#820,#822,.T.);
#820 = VERTEX_POINT('',#821);
#821 = CARTESIAN_POINT('',(14.981,12.441,0.4103624));
#822 = LINE('',#823,#824);
#823 = CARTESIAN_POINT('',(14.981,6.731,0.4103624));
#824 = VECTOR('',#825,1.);
#825 = DIRECTION('',(0.,1.,0.));
#826 = ORIENTED_EDGE('',*,*,#827,.F.);
#827 = EDGE_CURVE('',#828,#820,#830,.T.);
#828 = VERTEX_POINT('',#829);
#829 = CARTESIAN_POINT('',(14.981,12.441,0.));
#830 = LINE('',#831,#832);
#831 = CARTESIAN_POINT('',(14.981,12.441,0.));
#832 = VECTOR('',#833,1.);
#833 = DIRECTION('',(0.,0.,1.));
#834 = ORIENTED_EDGE('',*,*,#835,.F.);
#835 = EDGE_CURVE('',#797,#828,#836,.T.);
#836 = LINE('',#837,#838);
#837 = CARTESIAN_POINT('',(14.981,6.731,0.));
#838 = VECTOR('',#839,1.);
#839 = DIRECTION('',(0.,1.,0.));
#840 = PLANE('',#841);
#841 = AXIS2_PLACEMENT_3D('',#842,#843,#844);
#842 = CARTESIAN_POINT('',(14.981,6.731,0.));
#843 = DIRECTION('',(-1.,0.,0.));
#844 = DIRECTION('',(0.,1.,0.));
#845 = ADVANCED_FACE('',(#846),#871,.F.);
#846 = FACE_BOUND('',#847,.F.);
#847 = EDGE_LOOP('',(#848,#849,#857,#865));
#848 = ORIENTED_EDGE('',*,*,#827,.T.);
#849 = ORIENTED_EDGE('',*,*,#850,.T.);
#850 = EDGE_CURVE('',#820,#851,#853,.T.);
#851 = VERTEX_POINT('',#852);
#852 = CARTESIAN_POINT('',(10.419,12.441,0.4103624));
#853 = LINE('',#854,#855);
#854 = CARTESIAN_POINT('',(14.981,12.441,0.4103624));
#855 = VECTOR('',#856,1.);
#856 = DIRECTION('',(-1.,0.,0.));
#857 = ORIENTED_EDGE('',*,*,#858,.F.);
#858 = EDGE_CURVE('',#859,#851,#861,.T.);
#859 = VERTEX_POINT('',#860);
#860 = CARTESIAN_POINT('',(10.419,12.441,0.));
#861 = LINE('',#862,#863);
#862 = CARTESIAN_POINT('',(10.419,12.441,0.));
#863 = VECTOR('',#864,1.);
#864 = DIRECTION('',(0.,0.,1.));
#865 = ORIENTED_EDGE('',*,*,#866,.F.);
#866 = EDGE_CURVE('',#828,#859,#867,.T.);
#867 = LINE('',#868,#869);
#868 = CARTESIAN_POINT('',(14.981,12.441,0.));
#869 = VECTOR('',#870,1.);
#870 = DIRECTION('',(-1.,0.,0.));
#871 = PLANE('',#872);
#872 = AXIS2_PLACEMENT_3D('',#873,#874,#875);
#873 = CARTESIAN_POINT('',(14.981,12.441,0.));
#874 = DIRECTION('',(0.,-1.,0.));
#875 = DIRECTION('',(-1.,0.,0.));
#876 = ADVANCED_FACE('',(#877),#902,.F.);
#877 = FACE_BOUND('',#878,.F.);
#878 = EDGE_LOOP('',(#879,#880,#888,#896));
#879 = ORIENTED_EDGE('',*,*,#858,.T.);
#880 = ORIENTED_EDGE('',*,*,#881,.T.);
#881 = EDGE_CURVE('',#851,#882,#884,.T.);
#882 = VERTEX_POINT('',#883);
#883 = CARTESIAN_POINT('',(10.419,6.858,0.4103624));
#884 = LINE('',#885,#886);
#885 = CARTESIAN_POINT('',(10.419,12.441,0.4103624));
#886 = VECTOR('',#887,1.);
#887 = DIRECTION('',(0.,-1.,0.));
#888 = ORIENTED_EDGE('',*,*,#889,.F.);
#889 = EDGE_CURVE('',#890,#882,#892,.T.);
#890 = VERTEX_POINT('',#891);
#891 = CARTESIAN_POINT('',(10.419,6.858,0.));
#892 = LINE('',#893,#894);
#893 = CARTESIAN_POINT('',(10.419,6.858,0.));
#894 = VECTOR('',#895,1.);
#895 = DIRECTION('',(0.,0.,1.));
#896 = ORIENTED_EDGE('',*,*,#897,.F.);
#897 = EDGE_CURVE('',#859,#890,#898,.T.);
#898 = LINE('',#899,#900);
#899 = CARTESIAN_POINT('',(10.419,12.441,0.));
#900 = VECTOR('',#901,1.);
#901 = DIRECTION('',(0.,-1.,0.));
#902 = PLANE('',#903);
#903 = AXIS2_PLACEMENT_3D('',#904,#905,#906);
#904 = CARTESIAN_POINT('',(10.419,12.441,0.));
#905 = DIRECTION('',(1.,0.,-0.));
#906 = DIRECTION('',(0.,-1.,0.));
#907 = ADVANCED_FACE('',(#908),#933,.F.);
#908 = FACE_BOUND('',#909,.F.);
#909 = EDGE_LOOP('',(#910,#911,#919,#927));
#910 = ORIENTED_EDGE('',*,*,#889,.T.);
#911 = ORIENTED_EDGE('',*,*,#912,.T.);
#912 = EDGE_CURVE('',#882,#913,#915,.T.);
#913 = VERTEX_POINT('',#914);
#914 = CARTESIAN_POINT('',(10.399,6.759,0.4103624));
#915 = LINE('',#916,#917);
#916 = CARTESIAN_POINT('',(10.419,6.858,0.4103624));
#917 = VECTOR('',#918,1.);
#918 = DIRECTION('',(-0.19801980198,-0.980198019802,0.));
#919 = ORIENTED_EDGE('',*,*,#920,.F.);
#920 = EDGE_CURVE('',#921,#913,#923,.T.);
#921 = VERTEX_POINT('',#922);
#922 = CARTESIAN_POINT('',(10.399,6.759,0.));
#923 = LINE('',#924,#925);
#924 = CARTESIAN_POINT('',(10.399,6.759,0.));
#925 = VECTOR('',#926,1.);
#926 = DIRECTION('',(0.,0.,1.));
#927 = ORIENTED_EDGE('',*,*,#928,.F.);
#928 = EDGE_CURVE('',#890,#921,#929,.T.);
#929 = LINE('',#930,#931);
#930 = CARTESIAN_POINT('',(10.419,6.858,0.));
#931 = VECTOR('',#932,1.);
#932 = DIRECTION('',(-0.19801980198,-0.980198019802,0.));
#933 = PLANE('',#934);
#934 = AXIS2_PLACEMENT_3D('',#935,#936,#937);
#935 = CARTESIAN_POINT('',(10.419,6.858,0.));
#936 = DIRECTION('',(0.980198019802,-0.19801980198,0.));
#937 = DIRECTION('',(-0.19801980198,-0.980198019802,0.));
#938 = ADVANCED_FACE('',(#939),#964,.F.);
#939 = FACE_BOUND('',#940,.F.);
#940 = EDGE_LOOP('',(#941,#942,#950,#958));
#941 = ORIENTED_EDGE('',*,*,#920,.T.);
#942 = ORIENTED_EDGE('',*,*,#943,.T.);
#943 = EDGE_CURVE('',#913,#944,#946,.T.);
#944 = VERTEX_POINT('',#945);
#945 = CARTESIAN_POINT('',(10.343,6.675,0.4103624));
#946 = LINE('',#947,#948);
#947 = CARTESIAN_POINT('',(10.399,6.759,0.4103624));
#948 = VECTOR('',#949,1.);
#949 = DIRECTION('',(-0.554700196225,-0.832050294338,0.));
#950 = ORIENTED_EDGE('',*,*,#951,.F.);
#951 = EDGE_CURVE('',#952,#944,#954,.T.);
#952 = VERTEX_POINT('',#953);
#953 = CARTESIAN_POINT('',(10.343,6.675,0.));
#954 = LINE('',#955,#956);
#955 = CARTESIAN_POINT('',(10.343,6.675,0.));
#956 = VECTOR('',#957,1.);
#957 = DIRECTION('',(0.,0.,1.));
#958 = ORIENTED_EDGE('',*,*,#959,.F.);
#959 = EDGE_CURVE('',#921,#952,#960,.T.);
#960 = LINE('',#961,#962);
#961 = CARTESIAN_POINT('',(10.399,6.759,0.));
#962 = VECTOR('',#963,1.);
#963 = DIRECTION('',(-0.554700196225,-0.832050294338,0.));
#964 = PLANE('',#965);
#965 = AXIS2_PLACEMENT_3D('',#966,#967,#968);
#966 = CARTESIAN_POINT('',(10.399,6.759,0.));
#967 = DIRECTION('',(0.832050294338,-0.554700196225,0.));
#968 = DIRECTION('',(-0.554700196225,-0.832050294338,0.));
#969 = ADVANCED_FACE('',(#970),#995,.F.);
#970 = FACE_BOUND('',#971,.F.);
#971 = EDGE_LOOP('',(#972,#973,#981,#989));
#972 = ORIENTED_EDGE('',*,*,#951,.T.);
#973 = ORIENTED_EDGE('',*,*,#974,.T.);
#974 = EDGE_CURVE('',#944,#975,#977,.T.);
#975 = VERTEX_POINT('',#976);
#976 = CARTESIAN_POINT('',(10.259,6.619,0.4103624));
#977 = LINE('',#978,#979);
#978 = CARTESIAN_POINT('',(10.343,6.675,0.4103624));
#979 = VECTOR('',#980,1.);
#980 = DIRECTION('',(-0.832050294338,-0.554700196225,0.));
#981 = ORIENTED_EDGE('',*,*,#982,.F.);
#982 = EDGE_CURVE('',#983,#975,#985,.T.);
#983 = VERTEX_POINT('',#984);
#984 = CARTESIAN_POINT('',(10.259,6.619,0.));
#985 = LINE('',#986,#987);
#986 = CARTESIAN_POINT('',(10.259,6.619,0.));
#987 = VECTOR('',#988,1.);
#988 = DIRECTION('',(0.,0.,1.));
#989 = ORIENTED_EDGE('',*,*,#990,.F.);
#990 = EDGE_CURVE('',#952,#983,#991,.T.);
#991 = LINE('',#992,#993);
#992 = CARTESIAN_POINT('',(10.343,6.675,0.));
#993 = VECTOR('',#994,1.);
#994 = DIRECTION('',(-0.832050294338,-0.554700196225,0.));
#995 = PLANE('',#996);
#996 = AXIS2_PLACEMENT_3D('',#997,#998,#999);
#997 = CARTESIAN_POINT('',(10.343,6.675,0.));
#998 = DIRECTION('',(0.554700196225,-0.832050294338,0.));
#999 = DIRECTION('',(-0.832050294338,-0.554700196225,0.));
#1000 = ADVANCED_FACE('',(#1001),#1026,.F.);
#1001 = FACE_BOUND('',#1002,.F.);
#1002 = EDGE_LOOP('',(#1003,#1004,#1012,#1020));
#1003 = ORIENTED_EDGE('',*,*,#982,.T.);
#1004 = ORIENTED_EDGE('',*,*,#1005,.T.);
#1005 = EDGE_CURVE('',#975,#1006,#1008,.T.);
#1006 = VERTEX_POINT('',#1007);
#1007 = CARTESIAN_POINT('',(10.16,6.599,0.4103624));
#1008 = LINE('',#1009,#1010);
#1009 = CARTESIAN_POINT('',(10.259,6.619,0.4103624));
#1010 = VECTOR('',#1011,1.);
#1011 = DIRECTION('',(-0.980198019802,-0.19801980198,0.));
#1012 = ORIENTED_EDGE('',*,*,#1013,.F.);
#1013 = EDGE_CURVE('',#1014,#1006,#1016,.T.);
#1014 = VERTEX_POINT('',#1015);
#1015 = CARTESIAN_POINT('',(10.16,6.599,0.));
#1016 = LINE('',#1017,#1018);
#1017 = CARTESIAN_POINT('',(10.16,6.599,0.));
#1018 = VECTOR('',#1019,1.);
#1019 = DIRECTION('',(0.,0.,1.));
#1020 = ORIENTED_EDGE('',*,*,#1021,.F.);
#1021 = EDGE_CURVE('',#983,#1014,#1022,.T.);
#1022 = LINE('',#1023,#1024);
#1023 = CARTESIAN_POINT('',(10.259,6.619,0.));
#1024 = VECTOR('',#1025,1.);
#1025 = DIRECTION('',(-0.980198019802,-0.19801980198,0.));
#1026 = PLANE('',#1027);
#1027 = AXIS2_PLACEMENT_3D('',#1028,#1029,#1030);
#1028 = CARTESIAN_POINT('',(10.259,6.619,0.));
#1029 = DIRECTION('',(0.19801980198,-0.980198019802,0.));
#1030 = DIRECTION('',(-0.980198019802,-0.19801980198,0.));
#1031 = ADVANCED_FACE('',(#1032),#1057,.F.);
#1032 = FACE_BOUND('',#1033,.F.);
#1033 = EDGE_LOOP('',(#1034,#1035,#1043,#1051));
#1034 = ORIENTED_EDGE('',*,*,#1013,.T.);
#1035 = ORIENTED_EDGE('',*,*,#1036,.T.);
#1036 = EDGE_CURVE('',#1006,#1037,#1039,.T.);
#1037 = VERTEX_POINT('',#1038);
#1038 = CARTESIAN_POINT('',(10.061,6.619,0.4103624));
#1039 = LINE('',#1040,#1041);
#1040 = CARTESIAN_POINT('',(10.16,6.599,0.4103624));
#1041 = VECTOR('',#1042,1.);
#1042 = DIRECTION('',(-0.980198019802,0.19801980198,0.));
#1043 = ORIENTED_EDGE('',*,*,#1044,.F.);
#1044 = EDGE_CURVE('',#1045,#1037,#1047,.T.);
#1045 = VERTEX_POINT('',#1046);
#1046 = CARTESIAN_POINT('',(10.061,6.619,0.));
#1047 = LINE('',#1048,#1049);
#1048 = CARTESIAN_POINT('',(10.061,6.619,0.));
#1049 = VECTOR('',#1050,1.);
#1050 = DIRECTION('',(0.,0.,1.));
#1051 = ORIENTED_EDGE('',*,*,#1052,.F.);
#1052 = EDGE_CURVE('',#1014,#1045,#1053,.T.);
#1053 = LINE('',#1054,#1055);
#1054 = CARTESIAN_POINT('',(10.16,6.599,0.));
#1055 = VECTOR('',#1056,1.);
#1056 = DIRECTION('',(-0.980198019802,0.19801980198,0.));
#1057 = PLANE('',#1058);
#1058 = AXIS2_PLACEMENT_3D('',#1059,#1060,#1061);
#1059 = CARTESIAN_POINT('',(10.16,6.599,0.));
#1060 = DIRECTION('',(-0.19801980198,-0.980198019802,0.));
#1061 = DIRECTION('',(-0.980198019802,0.19801980198,0.));
#1062 = ADVANCED_FACE('',(#1063),#1088,.F.);
#1063 = FACE_BOUND('',#1064,.F.);
#1064 = EDGE_LOOP('',(#1065,#1066,#1074,#1082));
#1065 = ORIENTED_EDGE('',*,*,#1044,.T.);
#1066 = ORIENTED_EDGE('',*,*,#1067,.T.);
#1067 = EDGE_CURVE('',#1037,#1068,#1070,.T.);
#1068 = VERTEX_POINT('',#1069);
#1069 = CARTESIAN_POINT('',(9.977,6.675,0.4103624));
#1070 = LINE('',#1071,#1072);
#1071 = CARTESIAN_POINT('',(10.061,6.619,0.4103624));
#1072 = VECTOR('',#1073,1.);
#1073 = DIRECTION('',(-0.832050294338,0.554700196225,0.));
#1074 = ORIENTED_EDGE('',*,*,#1075,.F.);
#1075 = EDGE_CURVE('',#1076,#1068,#1078,.T.);
#1076 = VERTEX_POINT('',#1077);
#1077 = CARTESIAN_POINT('',(9.977,6.675,0.));
#1078 = LINE('',#1079,#1080);
#1079 = CARTESIAN_POINT('',(9.977,6.675,0.));
#1080 = VECTOR('',#1081,1.);
#1081 = DIRECTION('',(0.,0.,1.));
#1082 = ORIENTED_EDGE('',*,*,#1083,.F.);
#1083 = EDGE_CURVE('',#1045,#1076,#1084,.T.);
#1084 = LINE('',#1085,#1086);
#1085 = CARTESIAN_POINT('',(10.061,6.619,0.));
#1086 = VECTOR('',#1087,1.);
#1087 = DIRECTION('',(-0.832050294338,0.554700196225,0.));
#1088 = PLANE('',#1089);
#1089 = AXIS2_PLACEMENT_3D('',#1090,#1091,#1092);
#1090 = CARTESIAN_POINT('',(10.061,6.619,0.));
#1091 = DIRECTION('',(-0.554700196225,-0.832050294338,0.));
#1092 = DIRECTION('',(-0.832050294338,0.554700196225,0.));
#1093 = ADVANCED_FACE('',(#1094),#1119,.F.);
#1094 = FACE_BOUND('',#1095,.F.);
#1095 = EDGE_LOOP('',(#1096,#1097,#1105,#1113));
#1096 = ORIENTED_EDGE('',*,*,#1075,.T.);
#1097 = ORIENTED_EDGE('',*,*,#1098,.T.);
#1098 = EDGE_CURVE('',#1068,#1099,#1101,.T.);
#1099 = VERTEX_POINT('',#1100);
#1100 = CARTESIAN_POINT('',(9.921,6.759,0.4103624));
#1101 = LINE('',#1102,#1103);
#1102 = CARTESIAN_POINT('',(9.977,6.675,0.4103624));
#1103 = VECTOR('',#1104,1.);
#1104 = DIRECTION('',(-0.554700196225,0.832050294338,0.));
#1105 = ORIENTED_EDGE('',*,*,#1106,.F.);
#1106 = EDGE_CURVE('',#1107,#1099,#1109,.T.);
#1107 = VERTEX_POINT('',#1108);
#1108 = CARTESIAN_POINT('',(9.921,6.759,0.));
#1109 = LINE('',#1110,#1111);
#1110 = CARTESIAN_POINT('',(9.921,6.759,0.));
#1111 = VECTOR('',#1112,1.);
#1112 = DIRECTION('',(0.,0.,1.));
#1113 = ORIENTED_EDGE('',*,*,#1114,.F.);
#1114 = EDGE_CURVE('',#1076,#1107,#1115,.T.);
#1115 = LINE('',#1116,#1117);
#1116 = CARTESIAN_POINT('',(9.977,6.675,0.));
#1117 = VECTOR('',#1118,1.);
#1118 = DIRECTION('',(-0.554700196225,0.832050294338,0.));
#1119 = PLANE('',#1120);
#1120 = AXIS2_PLACEMENT_3D('',#1121,#1122,#1123);
#1121 = CARTESIAN_POINT('',(9.977,6.675,0.));
#1122 = DIRECTION('',(-0.832050294338,-0.554700196225,0.));
#1123 = DIRECTION('',(-0.554700196225,0.832050294338,0.));
#1124 = ADVANCED_FACE('',(#1125),#1150,.F.);
#1125 = FACE_BOUND('',#1126,.F.);
#1126 = EDGE_LOOP('',(#1127,#1128,#1136,#1144));
#1127 = ORIENTED_EDGE('',*,*,#1106,.T.);
#1128 = ORIENTED_EDGE('',*,*,#1129,.T.);
#1129 = EDGE_CURVE('',#1099,#1130,#1132,.T.);
#1130 = VERTEX_POINT('',#1131);
#1131 = CARTESIAN_POINT('',(9.901,6.858,0.4103624));
#1132 = LINE('',#1133,#1134);
#1133 = CARTESIAN_POINT('',(9.921,6.759,0.4103624));
#1134 = VECTOR('',#1135,1.);
#1135 = DIRECTION('',(-0.19801980198,0.980198019802,0.));
#1136 = ORIENTED_EDGE('',*,*,#1137,.F.);
#1137 = EDGE_CURVE('',#1138,#1130,#1140,.T.);
#1138 = VERTEX_POINT('',#1139);
#1139 = CARTESIAN_POINT('',(9.901,6.858,0.));
#1140 = LINE('',#1141,#1142);
#1141 = CARTESIAN_POINT('',(9.901,6.858,0.));
#1142 = VECTOR('',#1143,1.);
#1143 = DIRECTION('',(0.,0.,1.));
#1144 = ORIENTED_EDGE('',*,*,#1145,.F.);
#1145 = EDGE_CURVE('',#1107,#1138,#1146,.T.);
#1146 = LINE('',#1147,#1148);
#1147 = CARTESIAN_POINT('',(9.921,6.759,0.));
#1148 = VECTOR('',#1149,1.);
#1149 = DIRECTION('',(-0.19801980198,0.980198019802,0.));
#1150 = PLANE('',#1151);
#1151 = AXIS2_PLACEMENT_3D('',#1152,#1153,#1154);
#1152 = CARTESIAN_POINT('',(9.921,6.759,0.));
#1153 = DIRECTION('',(-0.980198019802,-0.19801980198,0.));
#1154 = DIRECTION('',(-0.19801980198,0.980198019802,0.));
#1155 = ADVANCED_FACE('',(#1156),#1181,.F.);
#1156 = FACE_BOUND('',#1157,.F.);
#1157 = EDGE_LOOP('',(#1158,#1159,#1167,#1175));
#1158 = ORIENTED_EDGE('',*,*,#1137,.T.);
#1159 = ORIENTED_EDGE('',*,*,#1160,.T.);
#1160 = EDGE_CURVE('',#1130,#1161,#1163,.T.);
#1161 = VERTEX_POINT('',#1162);
#1162 = CARTESIAN_POINT('',(9.901,12.7,0.4103624));
#1163 = LINE('',#1164,#1165);
#1164 = CARTESIAN_POINT('',(9.901,6.858,0.4103624));
#1165 = VECTOR('',#1166,1.);
#1166 = DIRECTION('',(0.,1.,0.));
#1167 = ORIENTED_EDGE('',*,*,#1168,.F.);
#1168 = EDGE_CURVE('',#1169,#1161,#1171,.T.);
#1169 = VERTEX_POINT('',#1170);
#1170 = CARTESIAN_POINT('',(9.901,12.7,0.));
#1171 = LINE('',#1172,#1173);
#1172 = CARTESIAN_POINT('',(9.901,12.7,0.));
#1173 = VECTOR('',#1174,1.);
#1174 = DIRECTION('',(0.,0.,1.));
#1175 = ORIENTED_EDGE('',*,*,#1176,.F.);
#1176 = EDGE_CURVE('',#1138,#1169,#1177,.T.);
#1177 = LINE('',#1178,#1179);
#1178 = CARTESIAN_POINT('',(9.901,6.858,0.));
#1179 = VECTOR('',#1180,1.);
#1180 = DIRECTION('',(0.,1.,0.));
#1181 = PLANE('',#1182);
#1182 = AXIS2_PLACEMENT_3D('',#1183,#1184,#1185);
#1183 = CARTESIAN_POINT('',(9.901,6.858,0.));
#1184 = DIRECTION('',(-1.,0.,0.));
#1185 = DIRECTION('',(0.,1.,0.));
#1186 = ADVANCED_FACE('',(#1187),#1212,.F.);
#1187 = FACE_BOUND('',#1188,.F.);
#1188 = EDGE_LOOP('',(#1189,#1190,#1198,#1206));
#1189 = ORIENTED_EDGE('',*,*,#1168,.T.);
#1190 = ORIENTED_EDGE('',*,*,#1191,.T.);
#1191 = EDGE_CURVE('',#1161,#1192,#1194,.T.);
#1192 = VERTEX_POINT('',#1193);
#1193 = CARTESIAN_POINT('',(9.921,12.799,0.4103624));
#1194 = LINE('',#1195,#1196);
#1195 = CARTESIAN_POINT('',(9.901,12.7,0.4103624));
#1196 = VECTOR('',#1197,1.);
#1197 = DIRECTION('',(0.19801980198,0.980198019802,0.));
#1198 = ORIENTED_EDGE('',*,*,#1199,.F.);
#1199 = EDGE_CURVE('',#1200,#1192,#1202,.T.);
#1200 = VERTEX_POINT('',#1201);
#1201 = CARTESIAN_POINT('',(9.921,12.799,0.));
#1202 = LINE('',#1203,#1204);
#1203 = CARTESIAN_POINT('',(9.921,12.799,0.));
#1204 = VECTOR('',#1205,1.);
#1205 = DIRECTION('',(0.,0.,1.));
#1206 = ORIENTED_EDGE('',*,*,#1207,.F.);
#1207 = EDGE_CURVE('',#1169,#1200,#1208,.T.);
#1208 = LINE('',#1209,#1210);
#1209 = CARTESIAN_POINT('',(9.901,12.7,0.));
#1210 = VECTOR('',#1211,1.);
#1211 = DIRECTION('',(0.19801980198,0.980198019802,0.));
#1212 = PLANE('',#1213);
#1213 = AXIS2_PLACEMENT_3D('',#1214,#1215,#1216);
#1214 = CARTESIAN_POINT('',(9.901,12.7,0.));
#1215 = DIRECTION('',(-0.980198019802,0.19801980198,0.));
#1216 = DIRECTION('',(0.19801980198,0.980198019802,0.));
#1217 = ADVANCED_FACE('',(#1218),#1243,.F.);
#1218 = FACE_BOUND('',#1219,.F.);
#1219 = EDGE_LOOP('',(#1220,#1221,#1229,#1237));
#1220 = ORIENTED_EDGE('',*,*,#1199,.T.);
#1221 = ORIENTED_EDGE('',*,*,#1222,.T.);
#1222 = EDGE_CURVE('',#1192,#1223,#1225,.T.);
#1223 = VERTEX_POINT('',#1224);
#1224 = CARTESIAN_POINT('',(9.977,12.883,0.4103624));
#1225 = LINE('',#1226,#1227);
#1226 = CARTESIAN_POINT('',(9.921,12.799,0.4103624));
#1227 = VECTOR('',#1228,1.);
#1228 = DIRECTION('',(0.554700196225,0.832050294338,0.));
#1229 = ORIENTED_EDGE('',*,*,#1230,.F.);
#1230 = EDGE_CURVE('',#1231,#1223,#1233,.T.);
#1231 = VERTEX_POINT('',#1232);
#1232 = CARTESIAN_POINT('',(9.977,12.883,0.));
#1233 = LINE('',#1234,#1235);
#1234 = CARTESIAN_POINT('',(9.977,12.883,0.));
#1235 = VECTOR('',#1236,1.);
#1236 = DIRECTION('',(0.,0.,1.));
#1237 = ORIENTED_EDGE('',*,*,#1238,.F.);
#1238 = EDGE_CURVE('',#1200,#1231,#1239,.T.);
#1239 = LINE('',#1240,#1241);
#1240 = CARTESIAN_POINT('',(9.921,12.799,0.));
#1241 = VECTOR('',#1242,1.);
#1242 = DIRECTION('',(0.554700196225,0.832050294338,0.));
#1243 = PLANE('',#1244);
#1244 = AXIS2_PLACEMENT_3D('',#1245,#1246,#1247);
#1245 = CARTESIAN_POINT('',(9.921,12.799,0.));
#1246 = DIRECTION('',(-0.832050294338,0.554700196225,0.));
#1247 = DIRECTION('',(0.554700196225,0.832050294338,0.));
#1248 = ADVANCED_FACE('',(#1249),#1274,.F.);
#1249 = FACE_BOUND('',#1250,.F.);
#1250 = EDGE_LOOP('',(#1251,#1252,#1260,#1268));
#1251 = ORIENTED_EDGE('',*,*,#1230,.T.);
#1252 = ORIENTED_EDGE('',*,*,#1253,.T.);
#1253 = EDGE_CURVE('',#1223,#1254,#1256,.T.);
#1254 = VERTEX_POINT('',#1255);
#1255 = CARTESIAN_POINT('',(10.061,12.939,0.4103624));
#1256 = LINE('',#1257,#1258);
#1257 = CARTESIAN_POINT('',(9.977,12.883,0.4103624));
#1258 = VECTOR('',#1259,1.);
#1259 = DIRECTION('',(0.832050294338,0.554700196225,0.));
#1260 = ORIENTED_EDGE('',*,*,#1261,.F.);
#1261 = EDGE_CURVE('',#1262,#1254,#1264,.T.);
#1262 = VERTEX_POINT('',#1263);
#1263 = CARTESIAN_POINT('',(10.061,12.939,0.));
#1264 = LINE('',#1265,#1266);
#1265 = CARTESIAN_POINT('',(10.061,12.939,0.));
#1266 = VECTOR('',#1267,1.);
#1267 = DIRECTION('',(0.,0.,1.));
#1268 = ORIENTED_EDGE('',*,*,#1269,.F.);
#1269 = EDGE_CURVE('',#1231,#1262,#1270,.T.);
#1270 = LINE('',#1271,#1272);
#1271 = CARTESIAN_POINT('',(9.977,12.883,0.));
#1272 = VECTOR('',#1273,1.);
#1273 = DIRECTION('',(0.832050294338,0.554700196225,0.));
#1274 = PLANE('',#1275);
#1275 = AXIS2_PLACEMENT_3D('',#1276,#1277,#1278);
#1276 = CARTESIAN_POINT('',(9.977,12.883,0.));
#1277 = DIRECTION('',(-0.554700196225,0.832050294338,0.));
#1278 = DIRECTION('',(0.832050294338,0.554700196225,0.));
#1279 = ADVANCED_FACE('',(#1280),#1305,.F.);
#1280 = FACE_BOUND('',#1281,.F.);
#1281 = EDGE_LOOP('',(#1282,#1283,#1291,#1299));
#1282 = ORIENTED_EDGE('',*,*,#1261,.T.);
#1283 = ORIENTED_EDGE('',*,*,#1284,.T.);
#1284 = EDGE_CURVE('',#1254,#1285,#1287,.T.);
#1285 = VERTEX_POINT('',#1286);
#1286 = CARTESIAN_POINT('',(10.16,12.959,0.4103624));
#1287 = LINE('',#1288,#1289);
#1288 = CARTESIAN_POINT('',(10.061,12.939,0.4103624));
#1289 = VECTOR('',#1290,1.);
#1290 = DIRECTION('',(0.980198019802,0.19801980198,0.));
#1291 = ORIENTED_EDGE('',*,*,#1292,.F.);
#1292 = EDGE_CURVE('',#1293,#1285,#1295,.T.);
#1293 = VERTEX_POINT('',#1294);
#1294 = CARTESIAN_POINT('',(10.16,12.959,0.));
#1295 = LINE('',#1296,#1297);
#1296 = CARTESIAN_POINT('',(10.16,12.959,0.));
#1297 = VECTOR('',#1298,1.);
#1298 = DIRECTION('',(0.,0.,1.));
#1299 = ORIENTED_EDGE('',*,*,#1300,.F.);
#1300 = EDGE_CURVE('',#1262,#1293,#1301,.T.);
#1301 = LINE('',#1302,#1303);
#1302 = CARTESIAN_POINT('',(10.061,12.939,0.));
#1303 = VECTOR('',#1304,1.);
#1304 = DIRECTION('',(0.980198019802,0.19801980198,0.));
#1305 = PLANE('',#1306);
#1306 = AXIS2_PLACEMENT_3D('',#1307,#1308,#1309);
#1307 = CARTESIAN_POINT('',(10.061,12.939,0.));
#1308 = DIRECTION('',(-0.19801980198,0.980198019802,0.));
#1309 = DIRECTION('',(0.980198019802,0.19801980198,0.));
#1310 = ADVANCED_FACE('',(#1311),#1336,.F.);
#1311 = FACE_BOUND('',#1312,.F.);
#1312 = EDGE_LOOP('',(#1313,#1314,#1322,#1330));
#1313 = ORIENTED_EDGE('',*,*,#1292,.T.);
#1314 = ORIENTED_EDGE('',*,*,#1315,.T.);
#1315 = EDGE_CURVE('',#1285,#1316,#1318,.T.);
#1316 = VERTEX_POINT('',#1317);
#1317 = CARTESIAN_POINT('',(15.24,12.959,0.4103624));
#1318 = LINE('',#1319,#1320);
#1319 = CARTESIAN_POINT('',(10.16,12.959,0.4103624));
#1320 = VECTOR('',#1321,1.);
#1321 = DIRECTION('',(1.,0.,0.));
#1322 = ORIENTED_EDGE('',*,*,#1323,.F.);
#1323 = EDGE_CURVE('',#1324,#1316,#1326,.T.);
#1324 = VERTEX_POINT('',#1325);
#1325 = CARTESIAN_POINT('',(15.24,12.959,0.));
#1326 = LINE('',#1327,#1328);
#1327 = CARTESIAN_POINT('',(15.24,12.959,0.));
#1328 = VECTOR('',#1329,1.);
#1329 = DIRECTION('',(0.,0.,1.));
#1330 = ORIENTED_EDGE('',*,*,#1331,.F.);
#1331 = EDGE_CURVE('',#1293,#1324,#1332,.T.);
#1332 = LINE('',#1333,#1334);
#1333 = CARTESIAN_POINT('',(10.16,12.959,0.));
#1334 = VECTOR('',#1335,1.);
#1335 = DIRECTION('',(1.,0.,0.));
#1336 = PLANE('',#1337);
#1337 = AXIS2_PLACEMENT_3D('',#1338,#1339,#1340);
#1338 = CARTESIAN_POINT('',(10.16,12.959,0.));
#1339 = DIRECTION('',(0.,1.,0.));
#1340 = DIRECTION('',(1.,0.,0.));
#1341 = ADVANCED_FACE('',(#1342),#1358,.F.);
#1342 = FACE_BOUND('',#1343,.F.);
#1343 = EDGE_LOOP('',(#1344,#1345,#1351,#1352));
#1344 = ORIENTED_EDGE('',*,*,#1323,.T.);
#1345 = ORIENTED_EDGE('',*,*,#1346,.T.);
#1346 = EDGE_CURVE('',#1316,#440,#1347,.T.);
#1347 = LINE('',#1348,#1349);
#1348 = CARTESIAN_POINT('',(15.24,12.959,0.4103624));
#1349 = VECTOR('',#1350,1.);
#1350 = DIRECTION('',(0.980198019802,-0.19801980198,0.));
#1351 = ORIENTED_EDGE('',*,*,#437,.F.);
#1352 = ORIENTED_EDGE('',*,*,#1353,.F.);
#1353 = EDGE_CURVE('',#1324,#438,#1354,.T.);
#1354 = LINE('',#1355,#1356);
#1355 = CARTESIAN_POINT('',(15.24,12.959,0.));
#1356 = VECTOR('',#1357,1.);
#1357 = DIRECTION('',(0.980198019802,-0.19801980198,0.));
#1358 = PLANE('',#1359);
#1359 = AXIS2_PLACEMENT_3D('',#1360,#1361,#1362);
#1360 = CARTESIAN_POINT('',(15.24,12.959,0.));
#1361 = DIRECTION('',(0.19801980198,0.980198019802,-0.));
#1362 = DIRECTION('',(0.980198019802,-0.19801980198,0.));
#1363 = ADVANCED_FACE('',(#1364),#1391,.F.);
#1364 = FACE_BOUND('',#1365,.T.);
#1365 = EDGE_LOOP('',(#1366,#1376,#1383,#1384));
#1366 = ORIENTED_EDGE('',*,*,#1367,.T.);
#1367 = EDGE_CURVE('',#1368,#1370,#1372,.T.);
#1368 = VERTEX_POINT('',#1369);
#1369 = CARTESIAN_POINT('',(15.677,2.603,0.));
#1370 = VERTEX_POINT('',#1371);
#1371 = CARTESIAN_POINT('',(15.677,2.603,0.4103624));
#1372 = LINE('',#1373,#1374);
#1373 = CARTESIAN_POINT('',(15.677,2.603,0.));
#1374 = VECTOR('',#1375,1.);
#1375 = DIRECTION('',(0.,0.,1.));
#1376 = ORIENTED_EDGE('',*,*,#1377,.T.);
#1377 = EDGE_CURVE('',#1370,#1370,#1378,.T.);
#1378 = CIRCLE('',#1379,0.5);
#1379 = AXIS2_PLACEMENT_3D('',#1380,#1381,#1382);
#1380 = CARTESIAN_POINT('',(15.177,2.603,0.4103624));
#1381 = DIRECTION('',(0.,0.,1.));
#1382 = DIRECTION('',(1.,0.,-0.));
#1383 = ORIENTED_EDGE('',*,*,#1367,.F.);
#1384 = ORIENTED_EDGE('',*,*,#1385,.F.);
#1385 = EDGE_CURVE('',#1368,#1368,#1386,.T.);
#1386 = CIRCLE('',#1387,0.5);
#1387 = AXIS2_PLACEMENT_3D('',#1388,#1389,#1390);
#1388 = CARTESIAN_POINT('',(15.177,2.603,0.));
#1389 = DIRECTION('',(0.,0.,1.));
#1390 = DIRECTION('',(1.,0.,-0.));
#1391 = CYLINDRICAL_SURFACE('',#1392,0.5);
#1392 = AXIS2_PLACEMENT_3D('',#1393,#1394,#1395);
#1393 = CARTESIAN_POINT('',(15.177,2.603,0.));
#1394 = DIRECTION('',(-0.,-0.,-1.));
#1395 = DIRECTION('',(1.,0.,-0.));
#1396 = ADVANCED_FACE('',(#1397),#1424,.F.);
#1397 = FACE_BOUND('',#1398,.T.);
#1398 = EDGE_LOOP('',(#1399,#1409,#1416,#1417));
#1399 = ORIENTED_EDGE('',*,*,#1400,.T.);
#1400 = EDGE_CURVE('',#1401,#1403,#1405,.T.);
#1401 = VERTEX_POINT('',#1402);
#1402 = CARTESIAN_POINT('',(24.11,2.54,0.));
#1403 = VERTEX_POINT('',#1404);
#1404 = CARTESIAN_POINT('',(24.11,2.54,0.4103624));
#1405 = LINE('',#1406,#1407);
#1406 = CARTESIAN_POINT('',(24.11,2.54,0.));
#1407 = VECTOR('',#1408,1.);
#1408 = DIRECTION('',(0.,0.,1.));
#1409 = ORIENTED_EDGE('',*,*,#1410,.T.);
#1410 = EDGE_CURVE('',#1403,#1403,#1411,.T.);
#1411 = CIRCLE('',#1412,1.25);
#1412 = AXIS2_PLACEMENT_3D('',#1413,#1414,#1415);
#1413 = CARTESIAN_POINT('',(22.86,2.54,0.4103624));
#1414 = DIRECTION('',(0.,0.,1.));
#1415 = DIRECTION('',(1.,0.,-0.));
#1416 = ORIENTED_EDGE('',*,*,#1400,.F.);
#1417 = ORIENTED_EDGE('',*,*,#1418,.F.);
#1418 = EDGE_CURVE('',#1401,#1401,#1419,.T.);
#1419 = CIRCLE('',#1420,1.25);
#1420 = AXIS2_PLACEMENT_3D('',#1421,#1422,#1423);
#1421 = CARTESIAN_POINT('',(22.86,2.54,0.));
#1422 = DIRECTION('',(0.,0.,1.));
#1423 = DIRECTION('',(1.,0.,-0.));
#1424 = CYLINDRICAL_SURFACE('',#1425,1.25);
#1425 = AXIS2_PLACEMENT_3D('',#1426,#1427,#1428);
#1426 = CARTESIAN_POINT('',(22.86,2.54,0.));
#1427 = DIRECTION('',(-0.,-0.,-1.));
#1428 = DIRECTION('',(1.,0.,-0.));
#1429 = ADVANCED_FACE('',(#1430),#1457,.F.);
#1430 = FACE_BOUND('',#1431,.T.);
#1431 = EDGE_LOOP('',(#1432,#1442,#1449,#1450));
#1432 = ORIENTED_EDGE('',*,*,#1433,.T.);
#1433 = EDGE_CURVE('',#1434,#1436,#1438,.T.);
#1434 = VERTEX_POINT('',#1435);
#1435 = CARTESIAN_POINT('',(13.136,2.603,0.));
#1436 = VERTEX_POINT('',#1437);
#1437 = CARTESIAN_POINT('',(13.136,2.603,0.4103624));
#1438 = LINE('',#1439,#1440);
#1439 = CARTESIAN_POINT('',(13.136,2.603,0.));
#1440 = VECTOR('',#1441,1.);
#1441 = DIRECTION('',(0.,0.,1.));
#1442 = ORIENTED_EDGE('',*,*,#1443,.T.);
#1443 = EDGE_CURVE('',#1436,#1436,#1444,.T.);
#1444 = CIRCLE('',#1445,0.5);
#1445 = AXIS2_PLACEMENT_3D('',#1446,#1447,#1448);
#1446 = CARTESIAN_POINT('',(12.636,2.603,0.4103624));
#1447 = DIRECTION('',(0.,0.,1.));
#1448 = DIRECTION('',(1.,0.,-0.));
#1449 = ORIENTED_EDGE('',*,*,#1433,.F.);
#1450 = ORIENTED_EDGE('',*,*,#1451,.F.);
#1451 = EDGE_CURVE('',#1434,#1434,#1452,.T.);
#1452 = CIRCLE('',#1453,0.5);
#1453 = AXIS2_PLACEMENT_3D('',#1454,#1455,#1456);
#1454 = CARTESIAN_POINT('',(12.636,2.603,0.));
#1455 = DIRECTION('',(0.,0.,1.));
#1456 = DIRECTION('',(1.,0.,-0.));
#1457 = CYLINDRICAL_SURFACE('',#1458,0.5);
#1458 = AXIS2_PLACEMENT_3D('',#1459,#1460,#1461);
#1459 = CARTESIAN_POINT('',(12.636,2.603,0.));
#1460 = DIRECTION('',(-0.,-0.,-1.));
#1461 = DIRECTION('',(1.,0.,-0.));
#1462 = ADVANCED_FACE('',(#1463),#1490,.F.);
#1463 = FACE_BOUND('',#1464,.T.);
#1464 = EDGE_LOOP('',(#1465,#1475,#1482,#1483));
#1465 = ORIENTED_EDGE('',*,*,#1466,.T.);
#1466 = EDGE_CURVE('',#1467,#1469,#1471,.T.);
#1467 = VERTEX_POINT('',#1468);
#1468 = CARTESIAN_POINT('',(18.216,2.603,0.));
#1469 = VERTEX_POINT('',#1470);
#1470 = CARTESIAN_POINT('',(18.216,2.603,0.4103624));
#1471 = LINE('',#1472,#1473);
#1472 = CARTESIAN_POINT('',(18.216,2.603,0.));
#1473 = VECTOR('',#1474,1.);
#1474 = DIRECTION('',(0.,0.,1.));
#1475 = ORIENTED_EDGE('',*,*,#1476,.T.);
#1476 = EDGE_CURVE('',#1469,#1469,#1477,.T.);
#1477 = CIRCLE('',#1478,0.5);
#1478 = AXIS2_PLACEMENT_3D('',#1479,#1480,#1481);
#1479 = CARTESIAN_POINT('',(17.716,2.603,0.4103624));
#1480 = DIRECTION('',(0.,0.,1.));
#1481 = DIRECTION('',(1.,0.,-0.));
#1482 = ORIENTED_EDGE('',*,*,#1466,.F.);
#1483 = ORIENTED_EDGE('',*,*,#1484,.F.);
#1484 = EDGE_CURVE('',#1467,#1467,#1485,.T.);
#1485 = CIRCLE('',#1486,0.5);
#1486 = AXIS2_PLACEMENT_3D('',#1487,#1488,#1489);
#1487 = CARTESIAN_POINT('',(17.716,2.603,0.));
#1488 = DIRECTION('',(0.,0.,1.));
#1489 = DIRECTION('',(1.,0.,-0.));
#1490 = CYLINDRICAL_SURFACE('',#1491,0.5);
#1491 = AXIS2_PLACEMENT_3D('',#1492,#1493,#1494);
#1492 = CARTESIAN_POINT('',(17.716,2.603,0.));
#1493 = DIRECTION('',(-0.,-0.,-1.));
#1494 = DIRECTION('',(1.,0.,-0.));
#1495 = ADVANCED_FACE('',(#1496),#1523,.F.);
#1496 = FACE_BOUND('',#1497,.T.);
#1497 = EDGE_LOOP('',(#1498,#1508,#1515,#1516));
#1498 = ORIENTED_EDGE('',*,*,#1499,.T.);
#1499 = EDGE_CURVE('',#1500,#1502,#1504,.T.);
#1500 = VERTEX_POINT('',#1501);
#1501 = CARTESIAN_POINT('',(24.11,15.24,0.));
#1502 = VERTEX_POINT('',#1503);
#1503 = CARTESIAN_POINT('',(24.11,15.24,0.4103624));
#1504 = LINE('',#1505,#1506);
#1505 = CARTESIAN_POINT('',(24.11,15.24,0.));
#1506 = VECTOR('',#1507,1.);
#1507 = DIRECTION('',(0.,0.,1.));
#1508 = ORIENTED_EDGE('',*,*,#1509,.T.);
#1509 = EDGE_CURVE('',#1502,#1502,#1510,.T.);
#1510 = CIRCLE('',#1511,1.25);
#1511 = AXIS2_PLACEMENT_3D('',#1512,#1513,#1514);
#1512 = CARTESIAN_POINT('',(22.86,15.24,0.4103624));
#1513 = DIRECTION('',(0.,0.,1.));
#1514 = DIRECTION('',(1.,0.,-0.));
#1515 = ORIENTED_EDGE('',*,*,#1499,.F.);
#1516 = ORIENTED_EDGE('',*,*,#1517,.F.);
#1517 = EDGE_CURVE('',#1500,#1500,#1518,.T.);
#1518 = CIRCLE('',#1519,1.25);
#1519 = AXIS2_PLACEMENT_3D('',#1520,#1521,#1522);
#1520 = CARTESIAN_POINT('',(22.86,15.24,0.));
#1521 = DIRECTION('',(0.,0.,1.));
#1522 = DIRECTION('',(1.,0.,-0.));
#1523 = CYLINDRICAL_SURFACE('',#1524,1.25);
#1524 = AXIS2_PLACEMENT_3D('',#1525,#1526,#1527);
#1525 = CARTESIAN_POINT('',(22.86,15.24,0.));
#1526 = DIRECTION('',(-0.,-0.,-1.));
#1527 = DIRECTION('',(1.,0.,-0.));
#1528 = ADVANCED_FACE('',(#1529,#1539,#1542,#1545,#1548,#1551,#1583,
    #1586,#1589,#1592,#1595),#1598,.F.);
#1529 = FACE_BOUND('',#1530,.F.);
#1530 = EDGE_LOOP('',(#1531,#1532,#1533,#1534,#1535,#1536,#1537,#1538));
#1531 = ORIENTED_EDGE('',*,*,#76,.T.);
#1532 = ORIENTED_EDGE('',*,*,#108,.T.);
#1533 = ORIENTED_EDGE('',*,*,#140,.T.);
#1534 = ORIENTED_EDGE('',*,*,#172,.T.);
#1535 = ORIENTED_EDGE('',*,*,#204,.T.);
#1536 = ORIENTED_EDGE('',*,*,#236,.T.);
#1537 = ORIENTED_EDGE('',*,*,#268,.T.);
#1538 = ORIENTED_EDGE('',*,*,#291,.T.);
#1539 = FACE_BOUND('',#1540,.F.);
#1540 = EDGE_LOOP('',(#1541));
#1541 = ORIENTED_EDGE('',*,*,#323,.F.);
#1542 = FACE_BOUND('',#1543,.F.);
#1543 = EDGE_LOOP('',(#1544));
#1544 = ORIENTED_EDGE('',*,*,#356,.F.);
#1545 = FACE_BOUND('',#1546,.F.);
#1546 = EDGE_LOOP('',(#1547));
#1547 = ORIENTED_EDGE('',*,*,#389,.F.);
#1548 = FACE_BOUND('',#1549,.F.);
#1549 = EDGE_LOOP('',(#1550));
#1550 = ORIENTED_EDGE('',*,*,#422,.F.);
#1551 = FACE_BOUND('',#1552,.F.);
#1552 = EDGE_LOOP('',(#1553,#1554,#1555,#1556,#1557,#1558,#1559,#1560,
    #1561,#1562,#1563,#1564,#1565,#1566,#1567,#1568,#1569,#1570,#1571,
    #1572,#1573,#1574,#1575,#1576,#1577,#1578,#1579,#1580,#1581,#1582));
#1553 = ORIENTED_EDGE('',*,*,#463,.T.);
#1554 = ORIENTED_EDGE('',*,*,#494,.T.);
#1555 = ORIENTED_EDGE('',*,*,#525,.T.);
#1556 = ORIENTED_EDGE('',*,*,#556,.T.);
#1557 = ORIENTED_EDGE('',*,*,#587,.T.);
#1558 = ORIENTED_EDGE('',*,*,#618,.T.);
#1559 = ORIENTED_EDGE('',*,*,#649,.T.);
#1560 = ORIENTED_EDGE('',*,*,#680,.T.);
#1561 = ORIENTED_EDGE('',*,*,#711,.T.);
#1562 = ORIENTED_EDGE('',*,*,#742,.T.);
#1563 = ORIENTED_EDGE('',*,*,#773,.T.);
#1564 = ORIENTED_EDGE('',*,*,#804,.T.);
#1565 = ORIENTED_EDGE('',*,*,#835,.T.);
#1566 = ORIENTED_EDGE('',*,*,#866,.T.);
#1567 = ORIENTED_EDGE('',*,*,#897,.T.);
#1568 = ORIENTED_EDGE('',*,*,#928,.T.);
#1569 = ORIENTED_EDGE('',*,*,#959,.T.);
#1570 = ORIENTED_EDGE('',*,*,#990,.T.);
#1571 = ORIENTED_EDGE('',*,*,#1021,.T.);
#1572 = ORIENTED_EDGE('',*,*,#1052,.T.);
#1573 = ORIENTED_EDGE('',*,*,#1083,.T.);
#1574 = ORIENTED_EDGE('',*,*,#1114,.T.);
#1575 = ORIENTED_EDGE('',*,*,#1145,.T.);
#1576 = ORIENTED_EDGE('',*,*,#1176,.T.);
#1577 = ORIENTED_EDGE('',*,*,#1207,.T.);
#1578 = ORIENTED_EDGE('',*,*,#1238,.T.);
#1579 = ORIENTED_EDGE('',*,*,#1269,.T.);
#1580 = ORIENTED_EDGE('',*,*,#1300,.T.);
#1581 = ORIENTED_EDGE('',*,*,#1331,.T.);
#1582 = ORIENTED_EDGE('',*,*,#1353,.T.);
#1583 = FACE_BOUND('',#1584,.F.);
#1584 = EDGE_LOOP('',(#1585));
#1585 = ORIENTED_EDGE('',*,*,#1385,.F.);
#1586 = FACE_BOUND('',#1587,.F.);
#1587 = EDGE_LOOP('',(#1588));
#1588 = ORIENTED_EDGE('',*,*,#1418,.F.);
#1589 = FACE_BOUND('',#1590,.F.);
#1590 = EDGE_LOOP('',(#1591));
#1591 = ORIENTED_EDGE('',*,*,#1451,.F.);
#1592 = FACE_BOUND('',#1593,.F.);
#1593 = EDGE_LOOP('',(#1594));
#1594 = ORIENTED_EDGE('',*,*,#1484,.F.);
#1595 = FACE_BOUND('',#1596,.F.);
#1596 = EDGE_LOOP('',(#1597));
#1597 = ORIENTED_EDGE('',*,*,#1517,.F.);
#1598 = PLANE('',#1599);
#1599 = AXIS2_PLACEMENT_3D('',#1600,#1601,#1602);
#1600 = CARTESIAN_POINT('',(12.7,8.89,0.));
#1601 = DIRECTION('',(0.,0.,1.));
#1602 = DIRECTION('',(1.,0.,-0.));
#1603 = ADVANCED_FACE('',(#1604,#1614,#1617,#1620,#1623,#1626,#1658,
    #1661,#1664,#1667,#1670),#1673,.T.);
#1604 = FACE_BOUND('',#1605,.T.);
#1605 = EDGE_LOOP('',(#1606,#1607,#1608,#1609,#1610,#1611,#1612,#1613));
#1606 = ORIENTED_EDGE('',*,*,#59,.T.);
#1607 = ORIENTED_EDGE('',*,*,#92,.T.);
#1608 = ORIENTED_EDGE('',*,*,#123,.T.);
#1609 = ORIENTED_EDGE('',*,*,#156,.T.);
#1610 = ORIENTED_EDGE('',*,*,#187,.T.);
#1611 = ORIENTED_EDGE('',*,*,#220,.T.);
#1612 = ORIENTED_EDGE('',*,*,#251,.T.);
#1613 = ORIENTED_EDGE('',*,*,#284,.T.);
#1614 = FACE_BOUND('',#1615,.T.);
#1615 = EDGE_LOOP('',(#1616));
#1616 = ORIENTED_EDGE('',*,*,#315,.F.);
#1617 = FACE_BOUND('',#1618,.T.);
#1618 = EDGE_LOOP('',(#1619));
#1619 = ORIENTED_EDGE('',*,*,#348,.F.);
#1620 = FACE_BOUND('',#1621,.T.);
#1621 = EDGE_LOOP('',(#1622));
#1622 = ORIENTED_EDGE('',*,*,#381,.F.);
#1623 = FACE_BOUND('',#1624,.T.);
#1624 = EDGE_LOOP('',(#1625));
#1625 = ORIENTED_EDGE('',*,*,#414,.F.);
#1626 = FACE_BOUND('',#1627,.T.);
#1627 = EDGE_LOOP('',(#1628,#1629,#1630,#1631,#1632,#1633,#1634,#1635,
    #1636,#1637,#1638,#1639,#1640,#1641,#1642,#1643,#1644,#1645,#1646,
    #1647,#1648,#1649,#1650,#1651,#1652,#1653,#1654,#1655,#1656,#1657));
#1628 = ORIENTED_EDGE('',*,*,#447,.T.);
#1629 = ORIENTED_EDGE('',*,*,#478,.T.);
#1630 = ORIENTED_EDGE('',*,*,#509,.T.);
#1631 = ORIENTED_EDGE('',*,*,#540,.T.);
#1632 = ORIENTED_EDGE('',*,*,#571,.T.);
#1633 = ORIENTED_EDGE('',*,*,#602,.T.);
#1634 = ORIENTED_EDGE('',*,*,#633,.T.);
#1635 = ORIENTED_EDGE('',*,*,#664,.T.);
#1636 = ORIENTED_EDGE('',*,*,#695,.T.);
#1637 = ORIENTED_EDGE('',*,*,#726,.T.);
#1638 = ORIENTED_EDGE('',*,*,#757,.T.);
#1639 = ORIENTED_EDGE('',*,*,#788,.T.);
#1640 = ORIENTED_EDGE('',*,*,#819,.T.);
#1641 = ORIENTED_EDGE('',*,*,#850,.T.);
#1642 = ORIENTED_EDGE('',*,*,#881,.T.);
#1643 = ORIENTED_EDGE('',*,*,#912,.T.);
#1644 = ORIENTED_EDGE('',*,*,#943,.T.);
#1645 = ORIENTED_EDGE('',*,*,#974,.T.);
#1646 = ORIENTED_EDGE('',*,*,#1005,.T.);
#1647 = ORIENTED_EDGE('',*,*,#1036,.T.);
#1648 = ORIENTED_EDGE('',*,*,#1067,.T.);
#1649 = ORIENTED_EDGE('',*,*,#1098,.T.);
#1650 = ORIENTED_EDGE('',*,*,#1129,.T.);
#1651 = ORIENTED_EDGE('',*,*,#1160,.T.);
#1652 = ORIENTED_EDGE('',*,*,#1191,.T.);
#1653 = ORIENTED_EDGE('',*,*,#1222,.T.);
#1654 = ORIENTED_EDGE('',*,*,#1253,.T.);
#1655 = ORIENTED_EDGE('',*,*,#1284,.T.);
#1656 = ORIENTED_EDGE('',*,*,#1315,.T.);
#1657 = ORIENTED_EDGE('',*,*,#1346,.T.);
#1658 = FACE_BOUND('',#1659,.T.);
#1659 = EDGE_LOOP('',(#1660));
#1660 = ORIENTED_EDGE('',*,*,#1377,.F.);
#1661 = FACE_BOUND('',#1662,.T.);
#1662 = EDGE_LOOP('',(#1663));
#1663 = ORIENTED_EDGE('',*,*,#1410,.F.);
#1664 = FACE_BOUND('',#1665,.T.);
#1665 = EDGE_LOOP('',(#1666));
#1666 = ORIENTED_EDGE('',*,*,#1443,.F.);
#1667 = FACE_BOUND('',#1668,.T.);
#1668 = EDGE_LOOP('',(#1669));
#1669 = ORIENTED_EDGE('',*,*,#1476,.F.);
#1670 = FACE_BOUND('',#1671,.T.);
#1671 = EDGE_LOOP('',(#1672));
#1672 = ORIENTED_EDGE('',*,*,#1509,.F.);
#1673 = PLANE('',#1674);
#1674 = AXIS2_PLACEMENT_3D('',#1675,#1676,#1677);
#1675 = CARTESIAN_POINT('',(12.7,8.89,0.4103624));
#1676 = DIRECTION('',(0.,0.,1.));
#1677 = DIRECTION('',(1.,0.,-0.));
#1678 = ( GEOMETRIC_REPRESENTATION_CONTEXT(3) 
GLOBAL_UNCERTAINTY_ASSIGNED_CONTEXT((#1682)) 
GLOBAL_UNIT_ASSIGNED_CONTEXT((#1679,#1680,#1681)) REPRESENTATION_CONTEXT
('Context #1','3D Context with UNIT and UNCERTAINTY') );
#1679 = ( LENGTH_UNIT() NAMED_UNIT(*) SI_UNIT(.MILLI.,.METRE.) );
#1680 = ( NAMED_UNIT(*) PLANE_ANGLE_UNIT() SI_UNIT($,.RADIAN.) );
#1681 = ( NAMED_UNIT(*) SI_UNIT($,.STERADIAN.) SOLID_ANGLE_UNIT() );
#1682 = UNCERTAINTY_MEASURE_WITH_UNIT(LENGTH_MEASURE(1.E-07),#1679,
  'distance_accuracy_value','confusion accuracy');
#1683 = SHAPE_DEFINITION_REPRESENTATION(#1684,#42);
#1684 = PRODUCT_DEFINITION_SHAPE('','',#1685);
#1685 = PRODUCT_DEFINITION('design','',#1686,#1689);
#1686 = PRODUCT_DEFINITION_FORMATION('','',#1687);
#1687 = PRODUCT('Open CASCADE STEP translator 7.5 1.1.1',
  'Open CASCADE STEP translator 7.5 1.1.1','',(#1688));
#1688 = PRODUCT_CONTEXT('',#2,'mechanical');
#1689 = PRODUCT_DEFINITION_CONTEXT('part definition',#2,'design');
#1690 = CONTEXT_DEPENDENT_SHAPE_REPRESENTATION(#1691,#1693);
#1691 = ( REPRESENTATION_RELATIONSHIP('','',#42,#32) 
REPRESENTATION_RELATIONSHIP_WITH_TRANSFORMATION(#1692) 
SHAPE_REPRESENTATION_RELATIONSHIP() );
#1692 = ITEM_DEFINED_TRANSFORMATION('','',#11,#33);
#1693 = PRODUCT_DEFINITION_SHAPE('Placement','Placement of an item',
  #1694);
#1694 = NEXT_ASSEMBLY_USAGE_OCCURRENCE('1','','',#27,#1685,$);
#1695 = PRODUCT_RELATED_PRODUCT_CATEGORY('part',$,(#1687));
#1696 = CONTEXT_DEPENDENT_SHAPE_REPRESENTATION(#1697,#1699);
#1697 = ( REPRESENTATION_RELATIONSHIP('','',#32,#10) 
REPRESENTATION_RELATIONSHIP_WITH_TRANSFORMATION(#1698) 
SHAPE_REPRESENTATION_RELATIONSHIP() );
#1698 = ITEM_DEFINED_TRANSFORMATION('','',#11,#15);
#1699 = PRODUCT_DEFINITION_SHAPE('Placement','Placement of an item',
  #1700);
#1700 = NEXT_ASSEMBLY_USAGE_OCCURRENCE('2','','',#5,#27,$);
#1701 = PRODUCT_RELATED_PRODUCT_CATEGORY('part',$,(#29));
#1702 = MECHANICAL_DESIGN_GEOMETRIC_PRESENTATION_REPRESENTATION('',(
    #1703),#1678);
#1703 = STYLED_ITEM('color',(#1704),#43);
#1704 = PRESENTATION_STYLE_ASSIGNMENT((#1705,#1711));
#1705 = SURFACE_STYLE_USAGE(.BOTH.,#1706);
#1706 = SURFACE_SIDE_STYLE('',(#1707));
#1707 = SURFACE_STYLE_FILL_AREA(#1708);
#1708 = FILL_AREA_STYLE('',(#1709));
#1709 = FILL_AREA_STYLE_COLOUR('',#1710);
#1710 = COLOUR_RGB('',0.,0.501960785193,0.);
#1711 = CURVE_STYLE('',#1712,POSITIVE_LENGTH_MEASURE(0.1),#1710);
#1712 = DRAUGHTING_PRE_DEFINED_CURVE_FONT('continuous');
ENDSEC;
END-ISO-10303-21;
