%TF.GenerationSoftware,KiCad,Pcbnew,9.0.7*%
%TF.CreationDate,2026-03-12T23:23:53-06:00*%
%TF.ProjectId,final_pcb,66696e61-6c5f-4706-9362-2e6b69636164,rev?*%
%TF.SameCoordinates,Original*%
%TF.FileFunction,Copper,L1,Top*%
%TF.FilePolarity,Positive*%
%FSLAX46Y46*%
G04 Gerber Fmt 4.6, Leading zero omitted, Abs format (unit mm)*
G04 Created by KiCad (PCBNEW 9.0.7) date 2026-03-12 23:23:53*
%MOMM*%
%LPD*%
G01*
G04 APERTURE LIST*
G04 Aperture macros list*
%AMRoundRect*
0 Rectangle with rounded corners*
0 $1 Rounding radius*
0 $2 $3 $4 $5 $6 $7 $8 $9 X,Y pos of 4 corners*
0 Add a 4 corners polygon primitive as box body*
4,1,4,$2,$3,$4,$5,$6,$7,$8,$9,$2,$3,0*
0 Add four circle primitives for the rounded corners*
1,1,$1+$1,$2,$3*
1,1,$1+$1,$4,$5*
1,1,$1+$1,$6,$7*
1,1,$1+$1,$8,$9*
0 Add four rect primitives between the rounded corners*
20,1,$1+$1,$2,$3,$4,$5,0*
20,1,$1+$1,$4,$5,$6,$7,0*
20,1,$1+$1,$6,$7,$8,$9,0*
20,1,$1+$1,$8,$9,$2,$3,0*%
G04 Aperture macros list end*
%TA.AperFunction,ComponentPad*%
%ADD10C,1.600000*%
%TD*%
%TA.AperFunction,ComponentPad*%
%ADD11R,1.700000X1.700000*%
%TD*%
%TA.AperFunction,ComponentPad*%
%ADD12C,1.700000*%
%TD*%
%TA.AperFunction,ComponentPad*%
%ADD13R,1.800000X1.800000*%
%TD*%
%TA.AperFunction,ComponentPad*%
%ADD14C,1.800000*%
%TD*%
%TA.AperFunction,ComponentPad*%
%ADD15R,1.905000X2.000000*%
%TD*%
%TA.AperFunction,ComponentPad*%
%ADD16O,1.905000X2.000000*%
%TD*%
%TA.AperFunction,ComponentPad*%
%ADD17O,1.100000X2.200000*%
%TD*%
%TA.AperFunction,ComponentPad*%
%ADD18R,1.879600X1.879600*%
%TD*%
%TA.AperFunction,ComponentPad*%
%ADD19C,1.879600*%
%TD*%
%TA.AperFunction,ComponentPad*%
%ADD20RoundRect,0.250000X0.550000X-0.550000X0.550000X0.550000X-0.550000X0.550000X-0.550000X-0.550000X0*%
%TD*%
%TA.AperFunction,ComponentPad*%
%ADD21O,1.727200X1.727200*%
%TD*%
%TA.AperFunction,ComponentPad*%
%ADD22R,1.727200X1.727200*%
%TD*%
%TA.AperFunction,Conductor*%
%ADD23C,0.250000*%
%TD*%
G04 APERTURE END LIST*
D10*
%TO.P,R2,1*%
%TO.N,Net-(D2-A)*%
X183900000Y-68010000D03*
%TO.P,R2,2*%
%TO.N,/D6*%
X183900000Y-60390000D03*
%TD*%
D11*
%TO.P,J3,1,Pin_1*%
%TO.N,/GND*%
X168000000Y-65720000D03*
D12*
%TO.P,J3,2,Pin_2*%
%TO.N,unconnected-(J4-Pin_2-Pad2)*%
X168000000Y-68260000D03*
%TO.P,J3,3,Pin_3*%
%TO.N,unconnected-(J4-Pin_3-Pad3)*%
X168000000Y-70800000D03*
%TO.P,J3,4,Pin_4*%
%TO.N,unconnected-(J4-Pin_4-Pad4)*%
X168000000Y-73340000D03*
%TO.P,J3,5,Pin_5*%
%TO.N,unconnected-(J4-Pin_5-Pad5)*%
X168000000Y-75880000D03*
%TO.P,J3,6,Pin_6*%
%TO.N,unconnected-(J4-Pin_6-Pad6)*%
X168000000Y-78420000D03*
%TD*%
D10*
%TO.P,R3,1*%
%TO.N,Net-(D3-A)*%
X179800000Y-68020000D03*
%TO.P,R3,2*%
%TO.N,/D7*%
X179800000Y-60400000D03*
%TD*%
D13*
%TO.P,D1,1,K*%
%TO.N,/GND*%
X186200000Y-73600000D03*
D14*
%TO.P,D1,2,A*%
%TO.N,Net-(D1-A)*%
X186200000Y-71060000D03*
%TD*%
D15*
%TO.P,U4,1,GND*%
%TO.N,/GND*%
X166900000Y-100900000D03*
D16*
%TO.P,U4,2,VO*%
%TO.N,/+3.3V*%
X169440000Y-100900000D03*
%TO.P,U4,3,VI*%
%TO.N,/VIN*%
X171980000Y-100900000D03*
%TD*%
D17*
%TO.P,U6,1,+VS*%
%TO.N,/+3.3V*%
X145837500Y-102901000D03*
%TO.P,U6,2,VOUT*%
%TO.N,/A0*%
X147107500Y-102901000D03*
%TO.P,U6,3,GND*%
%TO.N,/GND*%
X148377500Y-102901000D03*
%TD*%
D10*
%TO.P,R4,1*%
%TO.N,Net-(D4-A)*%
X175600000Y-68320000D03*
%TO.P,R4,2*%
%TO.N,/D9*%
X175600000Y-60700000D03*
%TD*%
D11*
%TO.P,J2,1,Pin_1*%
%TO.N,/GND*%
X158100000Y-65800000D03*
D12*
%TO.P,J2,2,Pin_2*%
%TO.N,/+3.3V*%
X158100000Y-68340000D03*
%TO.P,J2,3,Pin_3*%
%TO.N,/SDA*%
X158100000Y-70880000D03*
%TO.P,J2,4,Pin_4*%
%TO.N,/SCL*%
X158100000Y-73420000D03*
%TO.P,J2,5,Pin_5*%
%TO.N,unconnected-(J3-Pin_5-Pad5)*%
X158100000Y-75960000D03*
%TO.P,J2,6,Pin_6*%
%TO.N,/+3.3V*%
X158100000Y-78500000D03*
%TD*%
D18*
%TO.P,U1,1,BLK*%
%TO.N,unconnected-(U1-BLK-Pad1)*%
X176600000Y-91860000D03*
D19*
%TO.P,U1,2,GND*%
%TO.N,/GND*%
X176600000Y-89320000D03*
%TO.P,U1,3,VCC*%
%TO.N,/+5V*%
X176600000Y-86780000D03*
%TO.P,U1,4,TXO*%
%TO.N,/D1*%
X176600000Y-84240000D03*
%TO.P,U1,5,RXI*%
%TO.N,unconnected-(U1-RXI-Pad5)*%
X176600000Y-81700000D03*
%TO.P,U1,6,GRN*%
%TO.N,unconnected-(U1-GRN-Pad6)*%
X176600000Y-79160000D03*
%TD*%
D10*
%TO.P,R1,1*%
%TO.N,Net-(D1-A)*%
X188100000Y-68020000D03*
%TO.P,R1,2*%
%TO.N,/D5*%
X188100000Y-60400000D03*
%TD*%
D20*
%TO.P,C2,1*%
%TO.N,/+3.3V*%
X161850000Y-96150000D03*
D10*
%TO.P,C2,2*%
%TO.N,/GND*%
X161850000Y-94150000D03*
%TD*%
%TO.P,C3,1*%
%TO.N,/GND*%
X151500000Y-103450000D03*
%TO.P,C3,2*%
%TO.N,/+3.3V*%
X151500000Y-100950000D03*
%TD*%
D21*
%TO.P,A1,*%
%TO.N,*%
X154134000Y-104704237D03*
%TO.P,A1,3V3,3.3V*%
%TO.N,unconnected-(A1-3.3V-Pad3V3)*%
X161754000Y-104704237D03*
%TO.P,A1,5V1,5V*%
%TO.N,/+5V*%
X164294000Y-104704237D03*
%TO.P,A1,5V2,SPI_5V*%
%TO.N,unconnected-(A1-SPI_5V-Pad5V2)*%
X192361000Y-76764237D03*
%TO.P,A1,A0,A0*%
%TO.N,/A0*%
X176994000Y-104704237D03*
%TO.P,A1,A1,A1*%
%TO.N,unconnected-(A1-PadA1)*%
X179534000Y-104704237D03*
%TO.P,A1,A2,A2*%
%TO.N,unconnected-(A1-PadA2)*%
X182074000Y-104704237D03*
%TO.P,A1,A3,A3*%
%TO.N,unconnected-(A1-PadA3)*%
X184614000Y-104704237D03*
%TO.P,A1,A4,A4*%
%TO.N,unconnected-(A1-PadA4)*%
X187154000Y-104704237D03*
%TO.P,A1,A5,A5*%
%TO.N,unconnected-(A1-PadA5)*%
X189694000Y-104704237D03*
%TO.P,A1,AREF,AREF*%
%TO.N,unconnected-(A1-PadAREF)*%
X150070000Y-56444237D03*
%TO.P,A1,D0,D0/RX*%
%TO.N,unconnected-(A1-D0{slash}RX-PadD0)*%
X189694000Y-56444237D03*
%TO.P,A1,D1,D1/TX*%
%TO.N,/D1*%
X187154000Y-56444237D03*
%TO.P,A1,D2,D2_INT0*%
%TO.N,unconnected-(A1-D2_INT0-PadD2)*%
X184614000Y-56444237D03*
%TO.P,A1,D3,D3_INT1*%
%TO.N,unconnected-(A1-D3_INT1-PadD3)*%
X182074000Y-56444237D03*
%TO.P,A1,D4,D4*%
%TO.N,unconnected-(A1-PadD4)*%
X179534000Y-56444237D03*
%TO.P,A1,D5,D5*%
%TO.N,/D5*%
X176994000Y-56444237D03*
%TO.P,A1,D6,D6*%
%TO.N,/D6*%
X174454000Y-56444237D03*
%TO.P,A1,D7,D7*%
%TO.N,/D7*%
X171914000Y-56444237D03*
%TO.P,A1,D8,D8*%
%TO.N,unconnected-(A1-PadD8)*%
X167850000Y-56444237D03*
%TO.P,A1,D9,D9*%
%TO.N,/D9*%
X165310000Y-56444237D03*
%TO.P,A1,D10,D10_CS*%
%TO.N,unconnected-(A1-D10_CS-PadD10)*%
X162770000Y-56444237D03*
%TO.P,A1,D11,D11*%
%TO.N,unconnected-(A1-PadD11)*%
X160230000Y-56444237D03*
%TO.P,A1,D12,D12*%
%TO.N,unconnected-(A1-PadD12)*%
X157690000Y-56444237D03*
%TO.P,A1,D13,D13*%
%TO.N,unconnected-(A1-PadD13)*%
X155150000Y-56444237D03*
D22*
%TO.P,A1,GND1,GND*%
%TO.N,/GND*%
X152610000Y-56444237D03*
%TO.P,A1,GND2,GND*%
%TO.N,unconnected-(A1-GND-PadGND2)*%
X166834000Y-104704237D03*
%TO.P,A1,GND3,GND*%
%TO.N,unconnected-(A1-GND-PadGND3)*%
X169374000Y-104704237D03*
%TO.P,A1,GND4,SPI_GND*%
%TO.N,unconnected-(A1-SPI_GND-PadGND4)*%
X192361000Y-81844237D03*
D21*
%TO.P,A1,IORF,IOREF*%
%TO.N,unconnected-(A1-IOREF-PadIORF)*%
X156674000Y-104704237D03*
%TO.P,A1,MISO,SPI_MISO*%
%TO.N,unconnected-(A1-SPI_MISO-PadMISO)*%
X189821000Y-76764237D03*
%TO.P,A1,MOSI,SPI_MOSI*%
%TO.N,unconnected-(A1-SPI_MOSI-PadMOSI)*%
X192361000Y-79304237D03*
%TO.P,A1,RST1,RESET*%
%TO.N,unconnected-(A1-RESET-PadRST1)*%
X159214000Y-104704237D03*
%TO.P,A1,RST2,SPI_RESET*%
%TO.N,unconnected-(A1-SPI_RESET-PadRST2)*%
X189821000Y-81844237D03*
%TO.P,A1,SCK,SPI_SCK*%
%TO.N,unconnected-(A1-SPI_SCK-PadSCK)*%
X189821000Y-79304237D03*
%TO.P,A1,SCL,SCL*%
%TO.N,/SCL*%
X144990000Y-56444237D03*
%TO.P,A1,SDA,SDA*%
%TO.N,/SDA*%
X147530000Y-56444237D03*
%TO.P,A1,VIN,VIN*%
%TO.N,/VIN*%
X171914000Y-104704237D03*
%TD*%
D13*
%TO.P,D4,1,K*%
%TO.N,/GND*%
X172400000Y-73500000D03*
D14*
%TO.P,D4,2,A*%
%TO.N,Net-(D4-A)*%
X172400000Y-70960000D03*
%TD*%
D11*
%TO.P,SW1,1,A*%
%TO.N,/+9V*%
X173000000Y-92160000D03*
D12*
%TO.P,SW1,2,B*%
%TO.N,/VIN*%
X173000000Y-94700000D03*
%TD*%
D11*
%TO.P,BT1,1,+*%
%TO.N,/+9V*%
X173000000Y-88400000D03*
D12*
%TO.P,BT1,2,-*%
%TO.N,/GND*%
X170460000Y-88400000D03*
%TD*%
D13*
%TO.P,D3,1,K*%
%TO.N,/GND*%
X177000000Y-73570000D03*
D14*
%TO.P,D3,2,A*%
%TO.N,Net-(D3-A)*%
X177000000Y-71030000D03*
%TD*%
D11*
%TO.P,J1,1,Pin_1*%
%TO.N,/SDA*%
X152500000Y-67060000D03*
D12*
%TO.P,J1,2,Pin_2*%
%TO.N,/SCL*%
X152500000Y-69600000D03*
%TO.P,J1,3,Pin_3*%
%TO.N,/GND*%
X152500000Y-72140000D03*
%TO.P,J1,4,Pin_4*%
%TO.N,unconnected-(J1-Pin_4-Pad4)*%
X152500000Y-74680000D03*
%TO.P,J1,5,Pin_5*%
%TO.N,/+3.3V*%
X152500000Y-77220000D03*
%TD*%
D13*
%TO.P,D2,1,K*%
%TO.N,/GND*%
X181600000Y-73600000D03*
D14*
%TO.P,D2,2,A*%
%TO.N,Net-(D2-A)*%
X181600000Y-71060000D03*
%TD*%
D20*
%TO.P,C1,1*%
%TO.N,/VIN*%
X167850000Y-95150000D03*
D10*
%TO.P,C1,2*%
%TO.N,/GND*%
X167850000Y-93150000D03*
%TD*%
D23*
%TO.N,/+3.3V*%
X145837500Y-102382149D02*
X145837500Y-102901000D01*
X147269649Y-100950000D02*
X145837500Y-102382149D01*
X151500000Y-100950000D02*
X147269649Y-100950000D01*
%TO.N,/A0*%
X147100000Y-104650000D02*
X147100000Y-102908500D01*
X148950000Y-106500000D02*
X147100000Y-104650000D01*
X176994000Y-104706000D02*
X175200000Y-106500000D01*
X175200000Y-106500000D02*
X148950000Y-106500000D01*
X176994000Y-104704237D02*
X176994000Y-104706000D01*
X147100000Y-102908500D02*
X147107500Y-102901000D01*
%TO.N,/VIN*%
X172550000Y-95150000D02*
X173000000Y-94700000D01*
X167850000Y-95150000D02*
X172550000Y-95150000D01*
%TO.N,/+3.3V*%
X161850000Y-96150000D02*
X164690000Y-96150000D01*
X164690000Y-96150000D02*
X169440000Y-100900000D01*
X158100000Y-92400000D02*
X161850000Y-96150000D01*
X158100000Y-91500000D02*
X158100000Y-92400000D01*
X158100000Y-94350000D02*
X158100000Y-91500000D01*
X151500000Y-100950000D02*
X158100000Y-94350000D01*
%TO.N,/+9V*%
X173000000Y-88400000D02*
X173000000Y-92160000D01*
%TO.N,/D9*%
X175600000Y-60700000D02*
X169565763Y-60700000D01*
X169565763Y-60700000D02*
X165310000Y-56444237D01*
%TO.N,/D7*%
X171914000Y-56444237D02*
X174769763Y-59300000D01*
X174769763Y-59300000D02*
X178700000Y-59300000D01*
X178700000Y-59300000D02*
X179800000Y-60400000D01*
%TO.N,/SDA*%
X147530000Y-56444237D02*
X147530000Y-62090000D01*
X152500000Y-67060000D02*
X156080000Y-70640000D01*
X156080000Y-70640000D02*
X158100000Y-70640000D01*
X147530000Y-62090000D02*
X152500000Y-67060000D01*
%TO.N,/VIN*%
X171980000Y-104638237D02*
X171914000Y-104704237D01*
X171980000Y-95720000D02*
X173000000Y-94700000D01*
X171980000Y-100900000D02*
X171980000Y-104638237D01*
X171980000Y-100900000D02*
X171980000Y-95720000D01*
%TO.N,/D5*%
X185800000Y-58100000D02*
X188100000Y-60400000D01*
X176994000Y-56494000D02*
X177200000Y-56700000D01*
X176994000Y-56444237D02*
X177619118Y-56444237D01*
X179274881Y-58100000D02*
X185800000Y-58100000D01*
X177619118Y-56444237D02*
X179274881Y-58100000D01*
%TO.N,/D1*%
X187154000Y-56444237D02*
X189400000Y-58690237D01*
X178012000Y-84240000D02*
X176600000Y-84240000D01*
X189400000Y-58690237D02*
X189400000Y-72852000D01*
X189400000Y-72852000D02*
X178012000Y-84240000D01*
%TO.N,/A0*%
X176994000Y-104704237D02*
X177089763Y-104800000D01*
X177089763Y-104800000D02*
X177100000Y-104800000D01*
X176995763Y-104704237D02*
X176994000Y-104704237D01*
%TO.N,/SCL*%
X158080000Y-73200000D02*
X158100000Y-73180000D01*
X144990000Y-62090000D02*
X144990000Y-56444237D01*
X152500000Y-69600000D02*
X144990000Y-62090000D01*
X152500000Y-69600000D02*
X156100000Y-73200000D01*
X156100000Y-73200000D02*
X158080000Y-73200000D01*
%TO.N,/D6*%
X174454000Y-56444237D02*
X176609763Y-58600000D01*
X176609763Y-58600000D02*
X182110000Y-58600000D01*
X182110000Y-58600000D02*
X183900000Y-60390000D01*
%TO.N,Net-(D1-A)*%
X188080000Y-68020000D02*
X186200000Y-69900000D01*
X186200000Y-69900000D02*
X186200000Y-71060000D01*
X188100000Y-68020000D02*
X188080000Y-68020000D01*
%TO.N,Net-(D2-A)*%
X183900000Y-68010000D02*
X181600000Y-70310000D01*
X181600000Y-70310000D02*
X181600000Y-71060000D01*
%TO.N,Net-(D3-A)*%
X177000000Y-70820000D02*
X177000000Y-71030000D01*
X179800000Y-68020000D02*
X177000000Y-70820000D01*
%TO.N,Net-(D4-A)*%
X175600000Y-68320000D02*
X172960000Y-70960000D01*
X172960000Y-70960000D02*
X172400000Y-70960000D01*
%TO.N,/+5V*%
X176600000Y-86780000D02*
X177865800Y-88045800D01*
X173406163Y-105893837D02*
X165483600Y-105893837D01*
X165483600Y-105893837D02*
X164294000Y-104704237D01*
X177865800Y-101434200D02*
X173406163Y-105893837D01*
X177865800Y-88045800D02*
X177865800Y-101434200D01*
%TO.N,/+3.3V*%
X158100000Y-68340000D02*
X160700000Y-70940000D01*
X158100000Y-78500000D02*
X158100000Y-91500000D01*
X160700000Y-70940000D02*
X160700000Y-75900000D01*
X153780000Y-78500000D02*
X158100000Y-78500000D01*
X160700000Y-75900000D02*
X158100000Y-78500000D01*
X152500000Y-77220000D02*
X153780000Y-78500000D01*
%TD*%
M02*
