%TF.GenerationSoftware,KiCad,Pcbnew,9.0.7*%
%TF.CreationDate,2026-03-12T23:23:53-06:00*%
%TF.ProjectId,final_pcb,66696e61-6c5f-4706-9362-2e6b69636164,rev?*%
%TF.SameCoordinates,Original*%
%TF.FileFunction,Soldermask,Top*%
%TF.FilePolarity,Negative*%
%FSLAX46Y46*%
G04 Gerber Fmt 4.6, Leading zero omitted, Abs format (unit mm)*
G04 Created by KiCad (PCBNEW 9.0.7) date 2026-03-12 23:23:53*
%MOMM*%
%LPD*%
G01*
G04 APERTURE LIST*
G04 Aperture macros list*
%AMRoundRect*
0 Rectangle with rounded corners*
0 $1 Rounding radius*
0 $2 $3 $4 $5 $6 $7 $8 $9 X,Y pos of 4 corners*
0 Add a 4 corners polygon primitive as box body*
4,1,4,$2,$3,$4,$5,$6,$7,$8,$9,$2,$3,0*
0 Add four circle primitives for the rounded corners*
1,1,$1+$1,$2,$3*
1,1,$1+$1,$4,$5*
1,1,$1+$1,$6,$7*
1,1,$1+$1,$8,$9*
0 Add four rect primitives between the rounded corners*
20,1,$1+$1,$2,$3,$4,$5,0*
20,1,$1+$1,$4,$5,$6,$7,0*
20,1,$1+$1,$6,$7,$8,$9,0*
20,1,$1+$1,$8,$9,$2,$3,0*%
G04 Aperture macros list end*
%ADD10C,1.600000*%
%ADD11R,1.700000X1.700000*%
%ADD12C,1.700000*%
%ADD13R,1.800000X1.800000*%
%ADD14C,1.800000*%
%ADD15R,1.905000X2.000000*%
%ADD16O,1.905000X2.000000*%
%ADD17O,1.304000X2.404000*%
%ADD18RoundRect,0.102000X-0.939800X0.939800X-0.939800X-0.939800X0.939800X-0.939800X0.939800X0.939800X0*%
%ADD19C,2.083600*%
%ADD20RoundRect,0.250000X0.550000X-0.550000X0.550000X0.550000X-0.550000X0.550000X-0.550000X-0.550000X0*%
%ADD21C,3.200000*%
%ADD22O,1.727200X1.727200*%
%ADD23R,1.727200X1.727200*%
G04 APERTURE END LIST*
D10*
%TO.C,R2*%
X183900000Y-68010000D03*
X183900000Y-60390000D03*
%TD*%
D11*
%TO.C,J3*%
X168000000Y-65720000D03*
D12*
X168000000Y-68260000D03*
X168000000Y-70800000D03*
X168000000Y-73340000D03*
X168000000Y-75880000D03*
X168000000Y-78420000D03*
%TD*%
D10*
%TO.C,R3*%
X179800000Y-68020000D03*
X179800000Y-60400000D03*
%TD*%
D13*
%TO.C,D1*%
X186200000Y-73600000D03*
D14*
X186200000Y-71060000D03*
%TD*%
D15*
%TO.C,U4*%
X166900000Y-100900000D03*
D16*
X169440000Y-100900000D03*
X171980000Y-100900000D03*
%TD*%
D17*
%TO.C,U6*%
X145837500Y-102901000D03*
X147107500Y-102901000D03*
X148377500Y-102901000D03*
%TD*%
D10*
%TO.C,R4*%
X175600000Y-68320000D03*
X175600000Y-60700000D03*
%TD*%
D11*
%TO.C,J2*%
X158100000Y-65800000D03*
D12*
X158100000Y-68340000D03*
X158100000Y-70880000D03*
X158100000Y-73420000D03*
X158100000Y-75960000D03*
X158100000Y-78500000D03*
%TD*%
D18*
%TO.C,U1*%
X176600000Y-91860000D03*
D19*
X176600000Y-89320000D03*
X176600000Y-86780000D03*
X176600000Y-84240000D03*
X176600000Y-81700000D03*
X176600000Y-79160000D03*
%TD*%
D10*
%TO.C,R1*%
X188100000Y-68020000D03*
X188100000Y-60400000D03*
%TD*%
D20*
%TO.C,C2*%
X161850000Y-96150000D03*
D10*
X161850000Y-94150000D03*
%TD*%
%TO.C,C3*%
X151500000Y-103450000D03*
X151500000Y-100950000D03*
%TD*%
D21*
%TO.C,A1*%
X140164000Y-104704237D03*
X141434000Y-56444237D03*
D22*
X154134000Y-104704237D03*
D21*
X192234000Y-71684237D03*
X192234000Y-99624237D03*
D22*
X161754000Y-104704237D03*
X164294000Y-104704237D03*
X192361000Y-76764237D03*
X176994000Y-104704237D03*
X179534000Y-104704237D03*
X182074000Y-104704237D03*
X184614000Y-104704237D03*
X187154000Y-104704237D03*
X189694000Y-104704237D03*
X150070000Y-56444237D03*
X189694000Y-56444237D03*
X187154000Y-56444237D03*
X184614000Y-56444237D03*
X182074000Y-56444237D03*
X179534000Y-56444237D03*
X176994000Y-56444237D03*
X174454000Y-56444237D03*
X171914000Y-56444237D03*
X167850000Y-56444237D03*
X165310000Y-56444237D03*
X162770000Y-56444237D03*
X160230000Y-56444237D03*
X157690000Y-56444237D03*
X155150000Y-56444237D03*
D23*
X152610000Y-56444237D03*
X166834000Y-104704237D03*
X169374000Y-104704237D03*
X192361000Y-81844237D03*
D22*
X156674000Y-104704237D03*
X189821000Y-76764237D03*
X192361000Y-79304237D03*
X159214000Y-104704237D03*
X189821000Y-81844237D03*
X189821000Y-79304237D03*
X144990000Y-56444237D03*
X147530000Y-56444237D03*
X171914000Y-104704237D03*
%TD*%
D13*
%TO.C,D4*%
X172400000Y-73500000D03*
D14*
X172400000Y-70960000D03*
%TD*%
D11*
%TO.C,SW1*%
X173000000Y-92160000D03*
D12*
X173000000Y-94700000D03*
%TD*%
D11*
%TO.C,BT1*%
X173000000Y-88400000D03*
D12*
X170460000Y-88400000D03*
%TD*%
D13*
%TO.C,D3*%
X177000000Y-73570000D03*
D14*
X177000000Y-71030000D03*
%TD*%
D11*
%TO.C,J1*%
X152500000Y-67060000D03*
D12*
X152500000Y-69600000D03*
X152500000Y-72140000D03*
X152500000Y-74680000D03*
X152500000Y-77220000D03*
%TD*%
D13*
%TO.C,D2*%
X181600000Y-73600000D03*
D14*
X181600000Y-71060000D03*
%TD*%
D20*
%TO.C,C1*%
X167850000Y-95150000D03*
D10*
X167850000Y-93150000D03*
%TD*%
M02*
