%TF.GenerationSoftware,KiCad,Pcbnew,9.0.7*%
%TF.CreationDate,2026-02-04T16:35:54-07:00*%
%TF.ProjectId,Uno_Shield_DSP_Class_v1,556e6f5f-5368-4696-956c-645f4453505f,rev?*%
%TF.SameCoordinates,Original*%
%TF.FileFunction,Legend,Top*%
%TF.FilePolarity,Positive*%
%FSLAX46Y46*%
G04 Gerber Fmt 4.6, Leading zero omitted, Abs format (unit mm)*
G04 Created by KiCad (PCBNEW 9.0.7) date 2026-02-04 16:35:54*
%MOMM*%
%LPD*%
G01*
G04 APERTURE LIST*
%ADD10C,0.150000*%
%ADD11C,0.120000*%
G04 APERTURE END LIST*
D10*
X86060000Y-70860000D02*
X113360000Y-70860000D01*
X113360000Y-98660000D01*
X86060000Y-98660000D01*
X86060000Y-70860000D01*
X87940000Y-52820000D02*
X109270000Y-52820000D01*
X109270000Y-69360000D01*
X87940000Y-69360000D01*
X87940000Y-52820000D01*
G36*
X116050542Y-73149077D02*
G01*
X116122484Y-73221019D01*
X116162826Y-73382386D01*
X116162826Y-73697251D01*
X116122484Y-73858617D01*
X116050541Y-73930561D01*
X115982026Y-73964819D01*
X115826960Y-73964819D01*
X115758444Y-73930561D01*
X115686501Y-73858617D01*
X115646160Y-73697251D01*
X115646160Y-73382386D01*
X115686501Y-73221019D01*
X115758444Y-73149077D01*
X115826960Y-73114819D01*
X115982026Y-73114819D01*
X116050542Y-73149077D01*
G37*
G36*
X120851068Y-74225930D02*
G01*
X115385049Y-74225930D01*
X115385049Y-73373152D01*
X115496160Y-73373152D01*
X115496160Y-73706485D01*
X115496411Y-73709038D01*
X115496249Y-73710131D01*
X115497058Y-73715604D01*
X115497601Y-73721117D01*
X115498023Y-73722138D01*
X115498399Y-73724675D01*
X115546018Y-73915151D01*
X115550965Y-73928997D01*
X115554284Y-73933476D01*
X115556418Y-73938628D01*
X115565746Y-73949994D01*
X115660984Y-74045233D01*
X115666734Y-74049953D01*
X115668033Y-74051450D01*
X115670287Y-74052869D01*
X115672349Y-74054561D01*
X115674181Y-74055319D01*
X115680476Y-74059282D01*
X115775714Y-74106901D01*
X115789445Y-74112156D01*
X115792134Y-74112347D01*
X115794623Y-74113378D01*
X115809255Y-74114819D01*
X115999731Y-74114819D01*
X116014363Y-74113378D01*
X116016852Y-74112346D01*
X116019540Y-74112156D01*
X116033272Y-74106901D01*
X116128510Y-74059282D01*
X116134809Y-74055317D01*
X116136637Y-74054560D01*
X116138693Y-74052871D01*
X116140953Y-74051450D01*
X116142252Y-74049951D01*
X116148002Y-74045233D01*
X116243241Y-73949993D01*
X116252568Y-73938628D01*
X116254701Y-73933476D01*
X116258021Y-73928997D01*
X116262968Y-73915151D01*
X116310587Y-73724675D01*
X116310962Y-73722138D01*
X116311385Y-73721117D01*
X116311927Y-73715604D01*
X116312737Y-73710131D01*
X116312574Y-73709038D01*
X116312826Y-73706485D01*
X116312826Y-73373152D01*
X116312574Y-73370598D01*
X116312737Y-73369506D01*
X116311927Y-73364032D01*
X116311385Y-73358520D01*
X116310962Y-73357498D01*
X116310587Y-73354962D01*
X116262968Y-73164486D01*
X116258021Y-73150640D01*
X116254702Y-73146161D01*
X116252568Y-73141008D01*
X116243240Y-73129643D01*
X116153416Y-73039819D01*
X116591398Y-73039819D01*
X116591398Y-74039819D01*
X116592839Y-74054451D01*
X116604038Y-74081487D01*
X116624730Y-74102179D01*
X116651766Y-74113378D01*
X116681030Y-74113378D01*
X116708066Y-74102179D01*
X116728758Y-74081487D01*
X116739957Y-74054451D01*
X116741398Y-74039819D01*
X116741398Y-73591009D01*
X116999731Y-73591009D01*
X117014363Y-73589568D01*
X117041399Y-73578369D01*
X117062091Y-73557677D01*
X117073290Y-73530641D01*
X117073290Y-73501377D01*
X117062091Y-73474341D01*
X117041399Y-73453649D01*
X117014363Y-73442450D01*
X116999731Y-73441009D01*
X116741398Y-73441009D01*
X116741398Y-73114819D01*
X117142588Y-73114819D01*
X117157220Y-73113378D01*
X117184256Y-73102179D01*
X117204948Y-73081487D01*
X117216147Y-73054451D01*
X117216147Y-73039819D01*
X117448541Y-73039819D01*
X117448541Y-74039819D01*
X117449982Y-74054451D01*
X117461181Y-74081487D01*
X117481873Y-74102179D01*
X117508909Y-74113378D01*
X117538173Y-74113378D01*
X117565209Y-74102179D01*
X117585901Y-74081487D01*
X117597100Y-74054451D01*
X117598541Y-74039819D01*
X117598541Y-73591009D01*
X117856874Y-73591009D01*
X117871506Y-73589568D01*
X117898542Y-73578369D01*
X117919234Y-73557677D01*
X117930433Y-73530641D01*
X117930433Y-73501377D01*
X117919234Y-73474341D01*
X117898542Y-73453649D01*
X117871506Y-73442450D01*
X117856874Y-73441009D01*
X117598541Y-73441009D01*
X117598541Y-73230295D01*
X118258065Y-73230295D01*
X118258065Y-73325533D01*
X118259506Y-73340165D01*
X118260537Y-73342654D01*
X118260728Y-73345342D01*
X118265983Y-73359074D01*
X118313602Y-73454312D01*
X118317566Y-73460611D01*
X118318324Y-73462439D01*
X118320012Y-73464495D01*
X118321434Y-73466755D01*
X118322932Y-73468054D01*
X118327651Y-73473804D01*
X118375270Y-73521423D01*
X118381019Y-73526141D01*
X118382319Y-73527640D01*
X118384578Y-73529061D01*
X118386635Y-73530750D01*
X118388462Y-73531507D01*
X118394762Y-73535472D01*
X118490000Y-73583091D01*
X118491069Y-73583500D01*
X118491505Y-73583823D01*
X118497641Y-73586015D01*
X118503731Y-73588346D01*
X118504271Y-73588384D01*
X118505351Y-73588770D01*
X118687841Y-73634392D01*
X118764828Y-73672886D01*
X118795235Y-73703293D01*
X118829493Y-73771809D01*
X118829493Y-73831637D01*
X118795234Y-73900153D01*
X118764827Y-73930561D01*
X118696312Y-73964819D01*
X118488092Y-73964819D01*
X118356782Y-73921049D01*
X118342445Y-73917789D01*
X118313255Y-73919864D01*
X118287082Y-73932950D01*
X118267908Y-73955057D01*
X118258654Y-73982820D01*
X118260729Y-74012010D01*
X118273815Y-74038183D01*
X118295922Y-74057357D01*
X118309348Y-74063351D01*
X118452204Y-74110970D01*
X118459459Y-74112619D01*
X118461290Y-74113378D01*
X118463943Y-74113639D01*
X118466541Y-74114230D01*
X118468515Y-74114089D01*
X118475922Y-74114819D01*
X118714017Y-74114819D01*
X118728649Y-74113378D01*
X118731138Y-74112346D01*
X118733826Y-74112156D01*
X118747558Y-74106901D01*
X118842796Y-74059282D01*
X118849095Y-74055317D01*
X118850923Y-74054560D01*
X118852979Y-74052872D01*
X118855239Y-74051450D01*
X118856539Y-74049950D01*
X118862289Y-74045232D01*
X118909907Y-73997613D01*
X118914625Y-73991863D01*
X118916124Y-73990564D01*
X118917545Y-73988305D01*
X118919235Y-73986247D01*
X118919992Y-73984417D01*
X118923956Y-73978121D01*
X118971575Y-73882883D01*
X118976830Y-73869152D01*
X118977021Y-73866462D01*
X118978052Y-73863974D01*
X118979493Y-73849342D01*
X118979493Y-73754104D01*
X118978052Y-73739472D01*
X118977021Y-73736983D01*
X118976830Y-73734294D01*
X118971575Y-73720563D01*
X118923956Y-73625325D01*
X118919991Y-73619025D01*
X118919234Y-73617198D01*
X118917545Y-73615141D01*
X118916124Y-73612882D01*
X118914625Y-73611582D01*
X118909907Y-73605833D01*
X118862288Y-73558214D01*
X118856538Y-73553495D01*
X118855239Y-73551997D01*
X118852979Y-73550575D01*
X118850923Y-73548887D01*
X118849095Y-73548129D01*
X118842796Y-73544165D01*
X118747558Y-73496546D01*
X118746488Y-73496136D01*
X118746053Y-73495814D01*
X118739907Y-73493618D01*
X118733826Y-73491291D01*
X118733286Y-73491252D01*
X118732207Y-73490867D01*
X118549717Y-73445244D01*
X118472730Y-73406751D01*
X118442323Y-73376344D01*
X118408065Y-73307828D01*
X118408065Y-73248000D01*
X118442323Y-73179484D01*
X118472730Y-73149077D01*
X118541246Y-73114819D01*
X118749466Y-73114819D01*
X118880775Y-73158589D01*
X118895112Y-73161849D01*
X118924302Y-73159774D01*
X118950476Y-73146688D01*
X118969650Y-73124580D01*
X118978904Y-73096818D01*
X118976829Y-73067628D01*
X118963742Y-73041455D01*
X118961856Y-73039819D01*
X119258065Y-73039819D01*
X119258065Y-74039819D01*
X119259506Y-74054451D01*
X119270705Y-74081487D01*
X119291397Y-74102179D01*
X119318433Y-74113378D01*
X119333065Y-74114819D01*
X119809255Y-74114819D01*
X119823887Y-74113378D01*
X119850923Y-74102179D01*
X119871615Y-74081487D01*
X119882814Y-74054451D01*
X119882814Y-74025187D01*
X119871615Y-73998151D01*
X119850923Y-73977459D01*
X119823887Y-73966260D01*
X119809255Y-73964819D01*
X119408065Y-73964819D01*
X119408065Y-73591009D01*
X119666398Y-73591009D01*
X119681030Y-73589568D01*
X119708066Y-73578369D01*
X119728758Y-73557677D01*
X119739957Y-73530641D01*
X119739957Y-73501377D01*
X119728758Y-73474341D01*
X119708066Y-73453649D01*
X119681030Y-73442450D01*
X119666398Y-73441009D01*
X119408065Y-73441009D01*
X119408065Y-73114819D01*
X119809255Y-73114819D01*
X119823887Y-73113378D01*
X119850923Y-73102179D01*
X119871615Y-73081487D01*
X119882814Y-73054451D01*
X119882814Y-73025187D01*
X120021411Y-73025187D01*
X120021411Y-73054451D01*
X120032610Y-73081487D01*
X120053302Y-73102179D01*
X120080338Y-73113378D01*
X120094970Y-73114819D01*
X120305684Y-73114819D01*
X120305684Y-74039819D01*
X120307125Y-74054451D01*
X120318324Y-74081487D01*
X120339016Y-74102179D01*
X120366052Y-74113378D01*
X120395316Y-74113378D01*
X120422352Y-74102179D01*
X120443044Y-74081487D01*
X120454243Y-74054451D01*
X120455684Y-74039819D01*
X120455684Y-73114819D01*
X120666398Y-73114819D01*
X120681030Y-73113378D01*
X120708066Y-73102179D01*
X120728758Y-73081487D01*
X120739957Y-73054451D01*
X120739957Y-73025187D01*
X120728758Y-72998151D01*
X120708066Y-72977459D01*
X120681030Y-72966260D01*
X120666398Y-72964819D01*
X120094970Y-72964819D01*
X120080338Y-72966260D01*
X120053302Y-72977459D01*
X120032610Y-72998151D01*
X120021411Y-73025187D01*
X119882814Y-73025187D01*
X119871615Y-72998151D01*
X119850923Y-72977459D01*
X119823887Y-72966260D01*
X119809255Y-72964819D01*
X119333065Y-72964819D01*
X119318433Y-72966260D01*
X119291397Y-72977459D01*
X119270705Y-72998151D01*
X119259506Y-73025187D01*
X119258065Y-73039819D01*
X118961856Y-73039819D01*
X118941635Y-73022281D01*
X118928210Y-73016287D01*
X118785353Y-72968668D01*
X118778099Y-72967018D01*
X118776268Y-72966260D01*
X118773613Y-72965998D01*
X118771016Y-72965408D01*
X118769041Y-72965548D01*
X118761636Y-72964819D01*
X118523541Y-72964819D01*
X118508909Y-72966260D01*
X118506420Y-72967290D01*
X118503731Y-72967482D01*
X118490000Y-72972737D01*
X118394762Y-73020356D01*
X118388462Y-73024320D01*
X118386635Y-73025078D01*
X118384578Y-73026766D01*
X118382319Y-73028188D01*
X118381019Y-73029686D01*
X118375270Y-73034405D01*
X118327651Y-73082024D01*
X118322932Y-73087773D01*
X118321434Y-73089073D01*
X118320012Y-73091332D01*
X118318324Y-73093389D01*
X118317566Y-73095216D01*
X118313602Y-73101516D01*
X118265983Y-73196754D01*
X118260728Y-73210486D01*
X118260537Y-73213173D01*
X118259506Y-73215663D01*
X118258065Y-73230295D01*
X117598541Y-73230295D01*
X117598541Y-73114819D01*
X117999731Y-73114819D01*
X118014363Y-73113378D01*
X118041399Y-73102179D01*
X118062091Y-73081487D01*
X118073290Y-73054451D01*
X118073290Y-73025187D01*
X118062091Y-72998151D01*
X118041399Y-72977459D01*
X118014363Y-72966260D01*
X117999731Y-72964819D01*
X117523541Y-72964819D01*
X117508909Y-72966260D01*
X117481873Y-72977459D01*
X117461181Y-72998151D01*
X117449982Y-73025187D01*
X117448541Y-73039819D01*
X117216147Y-73039819D01*
X117216147Y-73025187D01*
X117204948Y-72998151D01*
X117184256Y-72977459D01*
X117157220Y-72966260D01*
X117142588Y-72964819D01*
X116666398Y-72964819D01*
X116651766Y-72966260D01*
X116624730Y-72977459D01*
X116604038Y-72998151D01*
X116592839Y-73025187D01*
X116591398Y-73039819D01*
X116153416Y-73039819D01*
X116148002Y-73034405D01*
X116142252Y-73029686D01*
X116140953Y-73028188D01*
X116138693Y-73026766D01*
X116136637Y-73025078D01*
X116134809Y-73024320D01*
X116128510Y-73020356D01*
X116033272Y-72972737D01*
X116019540Y-72967482D01*
X116016852Y-72967291D01*
X116014363Y-72966260D01*
X115999731Y-72964819D01*
X115809255Y-72964819D01*
X115794623Y-72966260D01*
X115792134Y-72967290D01*
X115789445Y-72967482D01*
X115775714Y-72972737D01*
X115680476Y-73020356D01*
X115674181Y-73024318D01*
X115672349Y-73025077D01*
X115670287Y-73026768D01*
X115668033Y-73028188D01*
X115666734Y-73029684D01*
X115660984Y-73034405D01*
X115565746Y-73129643D01*
X115556419Y-73141008D01*
X115554285Y-73146158D01*
X115550965Y-73150640D01*
X115546018Y-73164486D01*
X115498399Y-73354962D01*
X115498023Y-73357498D01*
X115497601Y-73358520D01*
X115497058Y-73364032D01*
X115496249Y-73369506D01*
X115496411Y-73370598D01*
X115496160Y-73373152D01*
X115385049Y-73373152D01*
X115385049Y-72853708D01*
X120851068Y-72853708D01*
X120851068Y-74225930D01*
G37*
X98031819Y-75277030D02*
X98031819Y-75753220D01*
X98031819Y-75753220D02*
X98508009Y-75800839D01*
X98508009Y-75800839D02*
X98460390Y-75753220D01*
X98460390Y-75753220D02*
X98412771Y-75657982D01*
X98412771Y-75657982D02*
X98412771Y-75419887D01*
X98412771Y-75419887D02*
X98460390Y-75324649D01*
X98460390Y-75324649D02*
X98508009Y-75277030D01*
X98508009Y-75277030D02*
X98603247Y-75229411D01*
X98603247Y-75229411D02*
X98841342Y-75229411D01*
X98841342Y-75229411D02*
X98936580Y-75277030D01*
X98936580Y-75277030D02*
X98984200Y-75324649D01*
X98984200Y-75324649D02*
X99031819Y-75419887D01*
X99031819Y-75419887D02*
X99031819Y-75657982D01*
X99031819Y-75657982D02*
X98984200Y-75753220D01*
X98984200Y-75753220D02*
X98936580Y-75800839D01*
X98031819Y-74943696D02*
X99031819Y-74610363D01*
X99031819Y-74610363D02*
X98031819Y-74277030D01*
X104014200Y-76700839D02*
X104061819Y-76557982D01*
X104061819Y-76557982D02*
X104061819Y-76319887D01*
X104061819Y-76319887D02*
X104014200Y-76224649D01*
X104014200Y-76224649D02*
X103966580Y-76177030D01*
X103966580Y-76177030D02*
X103871342Y-76129411D01*
X103871342Y-76129411D02*
X103776104Y-76129411D01*
X103776104Y-76129411D02*
X103680866Y-76177030D01*
X103680866Y-76177030D02*
X103633247Y-76224649D01*
X103633247Y-76224649D02*
X103585628Y-76319887D01*
X103585628Y-76319887D02*
X103538009Y-76510363D01*
X103538009Y-76510363D02*
X103490390Y-76605601D01*
X103490390Y-76605601D02*
X103442771Y-76653220D01*
X103442771Y-76653220D02*
X103347533Y-76700839D01*
X103347533Y-76700839D02*
X103252295Y-76700839D01*
X103252295Y-76700839D02*
X103157057Y-76653220D01*
X103157057Y-76653220D02*
X103109438Y-76605601D01*
X103109438Y-76605601D02*
X103061819Y-76510363D01*
X103061819Y-76510363D02*
X103061819Y-76272268D01*
X103061819Y-76272268D02*
X103109438Y-76129411D01*
X104061819Y-75700839D02*
X103061819Y-75700839D01*
X103061819Y-75700839D02*
X103061819Y-75462744D01*
X103061819Y-75462744D02*
X103109438Y-75319887D01*
X103109438Y-75319887D02*
X103204676Y-75224649D01*
X103204676Y-75224649D02*
X103299914Y-75177030D01*
X103299914Y-75177030D02*
X103490390Y-75129411D01*
X103490390Y-75129411D02*
X103633247Y-75129411D01*
X103633247Y-75129411D02*
X103823723Y-75177030D01*
X103823723Y-75177030D02*
X103918961Y-75224649D01*
X103918961Y-75224649D02*
X104014200Y-75319887D01*
X104014200Y-75319887D02*
X104061819Y-75462744D01*
X104061819Y-75462744D02*
X104061819Y-75700839D01*
X103776104Y-74748458D02*
X103776104Y-74272268D01*
X104061819Y-74843696D02*
X103061819Y-74510363D01*
X103061819Y-74510363D02*
X104061819Y-74177030D01*
X89221819Y-65387030D02*
X89221819Y-65863220D01*
X89221819Y-65863220D02*
X89698009Y-65910839D01*
X89698009Y-65910839D02*
X89650390Y-65863220D01*
X89650390Y-65863220D02*
X89602771Y-65767982D01*
X89602771Y-65767982D02*
X89602771Y-65529887D01*
X89602771Y-65529887D02*
X89650390Y-65434649D01*
X89650390Y-65434649D02*
X89698009Y-65387030D01*
X89698009Y-65387030D02*
X89793247Y-65339411D01*
X89793247Y-65339411D02*
X90031342Y-65339411D01*
X90031342Y-65339411D02*
X90126580Y-65387030D01*
X90126580Y-65387030D02*
X90174200Y-65434649D01*
X90174200Y-65434649D02*
X90221819Y-65529887D01*
X90221819Y-65529887D02*
X90221819Y-65767982D01*
X90221819Y-65767982D02*
X90174200Y-65863220D01*
X90174200Y-65863220D02*
X90126580Y-65910839D01*
X89221819Y-65053696D02*
X90221819Y-64720363D01*
X90221819Y-64720363D02*
X89221819Y-64387030D01*
X167148009Y-58449887D02*
X167195628Y-58307030D01*
X167195628Y-58307030D02*
X167243247Y-58259411D01*
X167243247Y-58259411D02*
X167338485Y-58211792D01*
X167338485Y-58211792D02*
X167481342Y-58211792D01*
X167481342Y-58211792D02*
X167576580Y-58259411D01*
X167576580Y-58259411D02*
X167624200Y-58307030D01*
X167624200Y-58307030D02*
X167671819Y-58402268D01*
X167671819Y-58402268D02*
X167671819Y-58783220D01*
X167671819Y-58783220D02*
X166671819Y-58783220D01*
X166671819Y-58783220D02*
X166671819Y-58449887D01*
X166671819Y-58449887D02*
X166719438Y-58354649D01*
X166719438Y-58354649D02*
X166767057Y-58307030D01*
X166767057Y-58307030D02*
X166862295Y-58259411D01*
X166862295Y-58259411D02*
X166957533Y-58259411D01*
X166957533Y-58259411D02*
X167052771Y-58307030D01*
X167052771Y-58307030D02*
X167100390Y-58354649D01*
X167100390Y-58354649D02*
X167148009Y-58449887D01*
X167148009Y-58449887D02*
X167148009Y-58783220D01*
X166671819Y-57783220D02*
X167481342Y-57783220D01*
X167481342Y-57783220D02*
X167576580Y-57735601D01*
X167576580Y-57735601D02*
X167624200Y-57687982D01*
X167624200Y-57687982D02*
X167671819Y-57592744D01*
X167671819Y-57592744D02*
X167671819Y-57402268D01*
X167671819Y-57402268D02*
X167624200Y-57307030D01*
X167624200Y-57307030D02*
X167576580Y-57259411D01*
X167576580Y-57259411D02*
X167481342Y-57211792D01*
X167481342Y-57211792D02*
X166671819Y-57211792D01*
X166671819Y-56878458D02*
X166671819Y-56307030D01*
X167671819Y-56592744D02*
X166671819Y-56592744D01*
X166671819Y-56116553D02*
X166671819Y-55545125D01*
X167671819Y-55830839D02*
X166671819Y-55830839D01*
X166671819Y-55021315D02*
X166671819Y-54830839D01*
X166671819Y-54830839D02*
X166719438Y-54735601D01*
X166719438Y-54735601D02*
X166814676Y-54640363D01*
X166814676Y-54640363D02*
X167005152Y-54592744D01*
X167005152Y-54592744D02*
X167338485Y-54592744D01*
X167338485Y-54592744D02*
X167528961Y-54640363D01*
X167528961Y-54640363D02*
X167624200Y-54735601D01*
X167624200Y-54735601D02*
X167671819Y-54830839D01*
X167671819Y-54830839D02*
X167671819Y-55021315D01*
X167671819Y-55021315D02*
X167624200Y-55116553D01*
X167624200Y-55116553D02*
X167528961Y-55211791D01*
X167528961Y-55211791D02*
X167338485Y-55259410D01*
X167338485Y-55259410D02*
X167005152Y-55259410D01*
X167005152Y-55259410D02*
X166814676Y-55211791D01*
X166814676Y-55211791D02*
X166719438Y-55116553D01*
X166719438Y-55116553D02*
X166671819Y-55021315D01*
X167671819Y-54164172D02*
X166671819Y-54164172D01*
X166671819Y-54164172D02*
X167671819Y-53592744D01*
X167671819Y-53592744D02*
X166671819Y-53592744D01*
X167767057Y-53354649D02*
X167767057Y-52592744D01*
X167671819Y-51830839D02*
X167671819Y-52402267D01*
X167671819Y-52116553D02*
X166671819Y-52116553D01*
X166671819Y-52116553D02*
X166814676Y-52211791D01*
X166814676Y-52211791D02*
X166909914Y-52307029D01*
X166909914Y-52307029D02*
X166957533Y-52402267D01*
G36*
X144390542Y-83039077D02*
G01*
X144462484Y-83111019D01*
X144502826Y-83272386D01*
X144502826Y-83587251D01*
X144462484Y-83748617D01*
X144390541Y-83820561D01*
X144322026Y-83854819D01*
X144166960Y-83854819D01*
X144098444Y-83820561D01*
X144026501Y-83748617D01*
X143986160Y-83587251D01*
X143986160Y-83272386D01*
X144026501Y-83111019D01*
X144098444Y-83039077D01*
X144166960Y-83004819D01*
X144322026Y-83004819D01*
X144390542Y-83039077D01*
G37*
G36*
X143390542Y-83039077D02*
G01*
X143420949Y-83069484D01*
X143455207Y-83138000D01*
X143455207Y-83245447D01*
X143420949Y-83313963D01*
X143390542Y-83344370D01*
X143322026Y-83378628D01*
X143033779Y-83378628D01*
X143033779Y-83004819D01*
X143322026Y-83004819D01*
X143390542Y-83039077D01*
G37*
G36*
X147240128Y-84211168D02*
G01*
X142772668Y-84211168D01*
X142772668Y-84010425D01*
X145456649Y-84010425D01*
X145456649Y-84039689D01*
X145467848Y-84066725D01*
X145488540Y-84087417D01*
X145515576Y-84098616D01*
X145530208Y-84100057D01*
X146292112Y-84100057D01*
X146306744Y-84098616D01*
X146333780Y-84087417D01*
X146354472Y-84066725D01*
X146365671Y-84039689D01*
X146365671Y-84010425D01*
X146354472Y-83983389D01*
X146333780Y-83962697D01*
X146306744Y-83951498D01*
X146292112Y-83950057D01*
X145530208Y-83950057D01*
X145515576Y-83951498D01*
X145488540Y-83962697D01*
X145467848Y-83983389D01*
X145456649Y-84010425D01*
X142772668Y-84010425D01*
X142772668Y-82929819D01*
X142883779Y-82929819D01*
X142883779Y-83929819D01*
X142885220Y-83944451D01*
X142896419Y-83971487D01*
X142917111Y-83992179D01*
X142944147Y-84003378D01*
X142973411Y-84003378D01*
X143000447Y-83992179D01*
X143021139Y-83971487D01*
X143032338Y-83944451D01*
X143033779Y-83929819D01*
X143033779Y-83528628D01*
X143339731Y-83528628D01*
X143354363Y-83527187D01*
X143356852Y-83526155D01*
X143359540Y-83525965D01*
X143373272Y-83520710D01*
X143468510Y-83473091D01*
X143474809Y-83469126D01*
X143476637Y-83468369D01*
X143478693Y-83466680D01*
X143480953Y-83465259D01*
X143482252Y-83463760D01*
X143488002Y-83459042D01*
X143535621Y-83411423D01*
X143540339Y-83405673D01*
X143541838Y-83404374D01*
X143543259Y-83402114D01*
X143544948Y-83400058D01*
X143545705Y-83398230D01*
X143549670Y-83391931D01*
X143597289Y-83296693D01*
X143602544Y-83282962D01*
X143602735Y-83280272D01*
X143603766Y-83277784D01*
X143605207Y-83263152D01*
X143836160Y-83263152D01*
X143836160Y-83596485D01*
X143836411Y-83599038D01*
X143836249Y-83600131D01*
X143837058Y-83605604D01*
X143837601Y-83611117D01*
X143838023Y-83612138D01*
X143838399Y-83614675D01*
X143886018Y-83805151D01*
X143890965Y-83818997D01*
X143894284Y-83823476D01*
X143896418Y-83828628D01*
X143905746Y-83839994D01*
X144000984Y-83935233D01*
X144006734Y-83939953D01*
X144008033Y-83941450D01*
X144010287Y-83942869D01*
X144012349Y-83944561D01*
X144014181Y-83945319D01*
X144020476Y-83949282D01*
X144115714Y-83996901D01*
X144129445Y-84002156D01*
X144132134Y-84002347D01*
X144134623Y-84003378D01*
X144149255Y-84004819D01*
X144339731Y-84004819D01*
X144354363Y-84003378D01*
X144356852Y-84002346D01*
X144359540Y-84002156D01*
X144373272Y-83996901D01*
X144468510Y-83949282D01*
X144474809Y-83945317D01*
X144476637Y-83944560D01*
X144478693Y-83942871D01*
X144480953Y-83941450D01*
X144482252Y-83939951D01*
X144488002Y-83935233D01*
X144583241Y-83839993D01*
X144592568Y-83828628D01*
X144594701Y-83823476D01*
X144598021Y-83818997D01*
X144602968Y-83805151D01*
X144650587Y-83614675D01*
X144650962Y-83612138D01*
X144651385Y-83611117D01*
X144651927Y-83605604D01*
X144652737Y-83600131D01*
X144652574Y-83599038D01*
X144652826Y-83596485D01*
X144652826Y-83263152D01*
X144652574Y-83260598D01*
X144652737Y-83259506D01*
X144651927Y-83254032D01*
X144651385Y-83248520D01*
X144650962Y-83247498D01*
X144650587Y-83244962D01*
X144602968Y-83054486D01*
X144598021Y-83040640D01*
X144594702Y-83036161D01*
X144592568Y-83031008D01*
X144583240Y-83019643D01*
X144488002Y-82924405D01*
X144482252Y-82919686D01*
X144480953Y-82918188D01*
X144478693Y-82916766D01*
X144476770Y-82915187D01*
X144789982Y-82915187D01*
X144789982Y-82944451D01*
X144801181Y-82971487D01*
X144821873Y-82992179D01*
X144848909Y-83003378D01*
X144863541Y-83004819D01*
X145074255Y-83004819D01*
X145074255Y-83929819D01*
X145075696Y-83944451D01*
X145086895Y-83971487D01*
X145107587Y-83992179D01*
X145134623Y-84003378D01*
X145163887Y-84003378D01*
X145190923Y-83992179D01*
X145211615Y-83971487D01*
X145222814Y-83944451D01*
X145224255Y-83929819D01*
X145224255Y-83915187D01*
X146361411Y-83915187D01*
X146361411Y-83944451D01*
X146372610Y-83971487D01*
X146393302Y-83992179D01*
X146420338Y-84003378D01*
X146434970Y-84004819D01*
X147054017Y-84004819D01*
X147068649Y-84003378D01*
X147095685Y-83992179D01*
X147116377Y-83971487D01*
X147127576Y-83944451D01*
X147127576Y-83915187D01*
X147116377Y-83888151D01*
X147095685Y-83867459D01*
X147068649Y-83856260D01*
X147054017Y-83854819D01*
X146616036Y-83854819D01*
X147059431Y-83411423D01*
X147068759Y-83400058D01*
X147069790Y-83397567D01*
X147071555Y-83395533D01*
X147077549Y-83382107D01*
X147125168Y-83239251D01*
X147126817Y-83231995D01*
X147127576Y-83230165D01*
X147127837Y-83227511D01*
X147128428Y-83224914D01*
X147128287Y-83222939D01*
X147129017Y-83215533D01*
X147129017Y-83120295D01*
X147127576Y-83105663D01*
X147126545Y-83103174D01*
X147126354Y-83100485D01*
X147121099Y-83086754D01*
X147073480Y-82991516D01*
X147069515Y-82985216D01*
X147068758Y-82983389D01*
X147067069Y-82981332D01*
X147065648Y-82979073D01*
X147064149Y-82977773D01*
X147059431Y-82972024D01*
X147011812Y-82924405D01*
X147006062Y-82919686D01*
X147004763Y-82918188D01*
X147002503Y-82916766D01*
X147000447Y-82915078D01*
X146998619Y-82914320D01*
X146992320Y-82910356D01*
X146897082Y-82862737D01*
X146883350Y-82857482D01*
X146880662Y-82857291D01*
X146878173Y-82856260D01*
X146863541Y-82854819D01*
X146625446Y-82854819D01*
X146610814Y-82856260D01*
X146608325Y-82857290D01*
X146605636Y-82857482D01*
X146591905Y-82862737D01*
X146496667Y-82910356D01*
X146490367Y-82914320D01*
X146488540Y-82915078D01*
X146486483Y-82916766D01*
X146484224Y-82918188D01*
X146482924Y-82919686D01*
X146477175Y-82924405D01*
X146429556Y-82972024D01*
X146420229Y-82983389D01*
X146409030Y-83010426D01*
X146409030Y-83039688D01*
X146420229Y-83066725D01*
X146440921Y-83087417D01*
X146467958Y-83098616D01*
X146497220Y-83098616D01*
X146524257Y-83087417D01*
X146535622Y-83078090D01*
X146574635Y-83039077D01*
X146643151Y-83004819D01*
X146845836Y-83004819D01*
X146914352Y-83039077D01*
X146944759Y-83069484D01*
X146979017Y-83138000D01*
X146979017Y-83203363D01*
X146940845Y-83317876D01*
X146381937Y-83876786D01*
X146372610Y-83888151D01*
X146361411Y-83915187D01*
X145224255Y-83915187D01*
X145224255Y-83004819D01*
X145434969Y-83004819D01*
X145449601Y-83003378D01*
X145476637Y-82992179D01*
X145497329Y-82971487D01*
X145508528Y-82944451D01*
X145508528Y-82915187D01*
X145497329Y-82888151D01*
X145476637Y-82867459D01*
X145449601Y-82856260D01*
X145434969Y-82854819D01*
X144863541Y-82854819D01*
X144848909Y-82856260D01*
X144821873Y-82867459D01*
X144801181Y-82888151D01*
X144789982Y-82915187D01*
X144476770Y-82915187D01*
X144476637Y-82915078D01*
X144474809Y-82914320D01*
X144468510Y-82910356D01*
X144373272Y-82862737D01*
X144359540Y-82857482D01*
X144356852Y-82857291D01*
X144354363Y-82856260D01*
X144339731Y-82854819D01*
X144149255Y-82854819D01*
X144134623Y-82856260D01*
X144132134Y-82857290D01*
X144129445Y-82857482D01*
X144115714Y-82862737D01*
X144020476Y-82910356D01*
X144014181Y-82914318D01*
X144012349Y-82915077D01*
X144010287Y-82916768D01*
X144008033Y-82918188D01*
X144006734Y-82919684D01*
X144000984Y-82924405D01*
X143905746Y-83019643D01*
X143896419Y-83031008D01*
X143894285Y-83036158D01*
X143890965Y-83040640D01*
X143886018Y-83054486D01*
X143838399Y-83244962D01*
X143838023Y-83247498D01*
X143837601Y-83248520D01*
X143837058Y-83254032D01*
X143836249Y-83259506D01*
X143836411Y-83260598D01*
X143836160Y-83263152D01*
X143605207Y-83263152D01*
X143605207Y-83120295D01*
X143603766Y-83105663D01*
X143602735Y-83103174D01*
X143602544Y-83100485D01*
X143597289Y-83086754D01*
X143549670Y-82991516D01*
X143545705Y-82985216D01*
X143544948Y-82983389D01*
X143543259Y-82981332D01*
X143541838Y-82979073D01*
X143540339Y-82977773D01*
X143535621Y-82972024D01*
X143488002Y-82924405D01*
X143482252Y-82919686D01*
X143480953Y-82918188D01*
X143478693Y-82916766D01*
X143476637Y-82915078D01*
X143474809Y-82914320D01*
X143468510Y-82910356D01*
X143373272Y-82862737D01*
X143359540Y-82857482D01*
X143356852Y-82857291D01*
X143354363Y-82856260D01*
X143339731Y-82854819D01*
X142958779Y-82854819D01*
X142944147Y-82856260D01*
X142917111Y-82867459D01*
X142896419Y-82888151D01*
X142885220Y-82915187D01*
X142883779Y-82929819D01*
X142772668Y-82929819D01*
X142772668Y-82743708D01*
X147240128Y-82743708D01*
X147240128Y-84211168D01*
G37*
X95499438Y-76009411D02*
X95451819Y-76104649D01*
X95451819Y-76104649D02*
X95451819Y-76247506D01*
X95451819Y-76247506D02*
X95499438Y-76390363D01*
X95499438Y-76390363D02*
X95594676Y-76485601D01*
X95594676Y-76485601D02*
X95689914Y-76533220D01*
X95689914Y-76533220D02*
X95880390Y-76580839D01*
X95880390Y-76580839D02*
X96023247Y-76580839D01*
X96023247Y-76580839D02*
X96213723Y-76533220D01*
X96213723Y-76533220D02*
X96308961Y-76485601D01*
X96308961Y-76485601D02*
X96404200Y-76390363D01*
X96404200Y-76390363D02*
X96451819Y-76247506D01*
X96451819Y-76247506D02*
X96451819Y-76152268D01*
X96451819Y-76152268D02*
X96404200Y-76009411D01*
X96404200Y-76009411D02*
X96356580Y-75961792D01*
X96356580Y-75961792D02*
X96023247Y-75961792D01*
X96023247Y-75961792D02*
X96023247Y-76152268D01*
X96451819Y-75533220D02*
X95451819Y-75533220D01*
X95451819Y-75533220D02*
X96451819Y-74961792D01*
X96451819Y-74961792D02*
X95451819Y-74961792D01*
X96451819Y-74485601D02*
X95451819Y-74485601D01*
X95451819Y-74485601D02*
X95451819Y-74247506D01*
X95451819Y-74247506D02*
X95499438Y-74104649D01*
X95499438Y-74104649D02*
X95594676Y-74009411D01*
X95594676Y-74009411D02*
X95689914Y-73961792D01*
X95689914Y-73961792D02*
X95880390Y-73914173D01*
X95880390Y-73914173D02*
X96023247Y-73914173D01*
X96023247Y-73914173D02*
X96213723Y-73961792D01*
X96213723Y-73961792D02*
X96308961Y-74009411D01*
X96308961Y-74009411D02*
X96404200Y-74104649D01*
X96404200Y-74104649D02*
X96451819Y-74247506D01*
X96451819Y-74247506D02*
X96451819Y-74485601D01*
G36*
X150063979Y-79562990D02*
G01*
X150138092Y-79637103D01*
X150176585Y-79714090D01*
X150219969Y-79887624D01*
X150219969Y-80012013D01*
X150176585Y-80185547D01*
X150138091Y-80262534D01*
X150063979Y-80336647D01*
X149949466Y-80374819D01*
X149798541Y-80374819D01*
X149798541Y-79524819D01*
X149949466Y-79524819D01*
X150063979Y-79562990D01*
G37*
G36*
X151631494Y-79559077D02*
G01*
X151703436Y-79631019D01*
X151743778Y-79792386D01*
X151743778Y-80107251D01*
X151703436Y-80268617D01*
X151631493Y-80340561D01*
X151562978Y-80374819D01*
X151407912Y-80374819D01*
X151339396Y-80340561D01*
X151267453Y-80268617D01*
X151227112Y-80107251D01*
X151227112Y-79792386D01*
X151267453Y-79631019D01*
X151339396Y-79559077D01*
X151407912Y-79524819D01*
X151562978Y-79524819D01*
X151631494Y-79559077D01*
G37*
G36*
X153441018Y-79559077D02*
G01*
X153512960Y-79631019D01*
X153553302Y-79792386D01*
X153553302Y-80107251D01*
X153512960Y-80268617D01*
X153441017Y-80340561D01*
X153372502Y-80374819D01*
X153217436Y-80374819D01*
X153148920Y-80340561D01*
X153076977Y-80268617D01*
X153036636Y-80107251D01*
X153036636Y-79792386D01*
X153076977Y-79631019D01*
X153148920Y-79559077D01*
X153217436Y-79524819D01*
X153372502Y-79524819D01*
X153441018Y-79559077D01*
G37*
G36*
X148143293Y-80089104D02*
G01*
X147875217Y-80089104D01*
X148009255Y-79686989D01*
X148143293Y-80089104D01*
G37*
G36*
X155717734Y-80731168D02*
G01*
X147490400Y-80731168D01*
X147490400Y-80530425D01*
X151935696Y-80530425D01*
X151935696Y-80559689D01*
X151946895Y-80586725D01*
X151967587Y-80607417D01*
X151994623Y-80618616D01*
X152009255Y-80620057D01*
X152771159Y-80620057D01*
X152785791Y-80618616D01*
X152812827Y-80607417D01*
X152833519Y-80586725D01*
X152844718Y-80559689D01*
X152844718Y-80530425D01*
X152833519Y-80503389D01*
X152812827Y-80482697D01*
X152785791Y-80471498D01*
X152771159Y-80470057D01*
X152009255Y-80470057D01*
X151994623Y-80471498D01*
X151967587Y-80482697D01*
X151946895Y-80503389D01*
X151935696Y-80530425D01*
X147490400Y-80530425D01*
X147490400Y-80440439D01*
X147601511Y-80440439D01*
X147603586Y-80469629D01*
X147616672Y-80495802D01*
X147638779Y-80514976D01*
X147666542Y-80524230D01*
X147695732Y-80522155D01*
X147721905Y-80509069D01*
X147741079Y-80486962D01*
X147747073Y-80473536D01*
X147825217Y-80239104D01*
X148193293Y-80239104D01*
X148271437Y-80473536D01*
X148277431Y-80486961D01*
X148296605Y-80509068D01*
X148322778Y-80522155D01*
X148351968Y-80524230D01*
X148379730Y-80514976D01*
X148401838Y-80495802D01*
X148414924Y-80469628D01*
X148416999Y-80440438D01*
X148413739Y-80426102D01*
X148088312Y-79449819D01*
X148600922Y-79449819D01*
X148600922Y-80259342D01*
X148602363Y-80273974D01*
X148603394Y-80276463D01*
X148603585Y-80279151D01*
X148608840Y-80292883D01*
X148656459Y-80388121D01*
X148660422Y-80394417D01*
X148661180Y-80396247D01*
X148662869Y-80398305D01*
X148664291Y-80400564D01*
X148665789Y-80401863D01*
X148670507Y-80407612D01*
X148718126Y-80455232D01*
X148723875Y-80459950D01*
X148725176Y-80461450D01*
X148727435Y-80462872D01*
X148729492Y-80464560D01*
X148731319Y-80465317D01*
X148737619Y-80469282D01*
X148832857Y-80516901D01*
X148846588Y-80522156D01*
X148849277Y-80522347D01*
X148851766Y-80523378D01*
X148866398Y-80524819D01*
X149056874Y-80524819D01*
X149071506Y-80523378D01*
X149073995Y-80522346D01*
X149076683Y-80522156D01*
X149090415Y-80516901D01*
X149185653Y-80469282D01*
X149191952Y-80465317D01*
X149193780Y-80464560D01*
X149195836Y-80462872D01*
X149198096Y-80461450D01*
X149199396Y-80459950D01*
X149205146Y-80455232D01*
X149252764Y-80407613D01*
X149257482Y-80401863D01*
X149258981Y-80400564D01*
X149260402Y-80398305D01*
X149262092Y-80396247D01*
X149262849Y-80394417D01*
X149266813Y-80388121D01*
X149314432Y-80292883D01*
X149319687Y-80279152D01*
X149319878Y-80276462D01*
X149320909Y-80273974D01*
X149322350Y-80259342D01*
X149322350Y-79449819D01*
X149648541Y-79449819D01*
X149648541Y-80449819D01*
X149649982Y-80464451D01*
X149661181Y-80491487D01*
X149681873Y-80512179D01*
X149708909Y-80523378D01*
X149723541Y-80524819D01*
X149961636Y-80524819D01*
X149969041Y-80524089D01*
X149971016Y-80524230D01*
X149973613Y-80523639D01*
X149976268Y-80523378D01*
X149978099Y-80522619D01*
X149985353Y-80520970D01*
X150128210Y-80473351D01*
X150141635Y-80467357D01*
X150143670Y-80465591D01*
X150146161Y-80464560D01*
X150157526Y-80455233D01*
X150252765Y-80359993D01*
X150257482Y-80354244D01*
X150258981Y-80352945D01*
X150260402Y-80350686D01*
X150262092Y-80348628D01*
X150262849Y-80346798D01*
X150266813Y-80340502D01*
X150314432Y-80245264D01*
X150314841Y-80244194D01*
X150315164Y-80243759D01*
X150317356Y-80237622D01*
X150319687Y-80231533D01*
X150319725Y-80230992D01*
X150320111Y-80229913D01*
X150367730Y-80039437D01*
X150368105Y-80036900D01*
X150368528Y-80035879D01*
X150369070Y-80030366D01*
X150369880Y-80024893D01*
X150369717Y-80023800D01*
X150369969Y-80021247D01*
X150369969Y-79878390D01*
X150369717Y-79875836D01*
X150369880Y-79874744D01*
X150369070Y-79869270D01*
X150368528Y-79863758D01*
X150368105Y-79862736D01*
X150367730Y-79860200D01*
X150320111Y-79669724D01*
X150319725Y-79668644D01*
X150319687Y-79668104D01*
X150317356Y-79662014D01*
X150315164Y-79655878D01*
X150314841Y-79655442D01*
X150314432Y-79654373D01*
X150266813Y-79559135D01*
X150262850Y-79552840D01*
X150262092Y-79551008D01*
X150260400Y-79548946D01*
X150258981Y-79546692D01*
X150257484Y-79545393D01*
X150252764Y-79539643D01*
X150162940Y-79449819D01*
X150648541Y-79449819D01*
X150648541Y-80449819D01*
X150649982Y-80464451D01*
X150661181Y-80491487D01*
X150681873Y-80512179D01*
X150708909Y-80523378D01*
X150738173Y-80523378D01*
X150765209Y-80512179D01*
X150785901Y-80491487D01*
X150797100Y-80464451D01*
X150798541Y-80449819D01*
X150798541Y-79783152D01*
X151077112Y-79783152D01*
X151077112Y-80116485D01*
X151077363Y-80119038D01*
X151077201Y-80120131D01*
X151078010Y-80125604D01*
X151078553Y-80131117D01*
X151078975Y-80132138D01*
X151079351Y-80134675D01*
X151126970Y-80325151D01*
X151131917Y-80338997D01*
X151135236Y-80343476D01*
X151137370Y-80348628D01*
X151146698Y-80359994D01*
X151241936Y-80455233D01*
X151247686Y-80459953D01*
X151248985Y-80461450D01*
X151251239Y-80462869D01*
X151253301Y-80464561D01*
X151255133Y-80465319D01*
X151261428Y-80469282D01*
X151356666Y-80516901D01*
X151370397Y-80522156D01*
X151373086Y-80522347D01*
X151375575Y-80523378D01*
X151390207Y-80524819D01*
X151580683Y-80524819D01*
X151595315Y-80523378D01*
X151597804Y-80522346D01*
X151600492Y-80522156D01*
X151614224Y-80516901D01*
X151709462Y-80469282D01*
X151715761Y-80465317D01*
X151717589Y-80464560D01*
X151719645Y-80462871D01*
X151721905Y-80461450D01*
X151723204Y-80459951D01*
X151728954Y-80455233D01*
X151824193Y-80359993D01*
X151833520Y-80348628D01*
X151835653Y-80343476D01*
X151838973Y-80338997D01*
X151843920Y-80325151D01*
X151891539Y-80134675D01*
X151891914Y-80132138D01*
X151892337Y-80131117D01*
X151892879Y-80125604D01*
X151893689Y-80120131D01*
X151893526Y-80119038D01*
X151893778Y-80116485D01*
X151893778Y-79783152D01*
X152886636Y-79783152D01*
X152886636Y-80116485D01*
X152886887Y-80119038D01*
X152886725Y-80120131D01*
X152887534Y-80125604D01*
X152888077Y-80131117D01*
X152888499Y-80132138D01*
X152888875Y-80134675D01*
X152936494Y-80325151D01*
X152941441Y-80338997D01*
X152944760Y-80343476D01*
X152946894Y-80348628D01*
X152956222Y-80359994D01*
X153051460Y-80455233D01*
X153057210Y-80459953D01*
X153058509Y-80461450D01*
X153060763Y-80462869D01*
X153062825Y-80464561D01*
X153064657Y-80465319D01*
X153070952Y-80469282D01*
X153166190Y-80516901D01*
X153179921Y-80522156D01*
X153182610Y-80522347D01*
X153185099Y-80523378D01*
X153199731Y-80524819D01*
X153390207Y-80524819D01*
X153404839Y-80523378D01*
X153407328Y-80522346D01*
X153410016Y-80522156D01*
X153423748Y-80516901D01*
X153518986Y-80469282D01*
X153525285Y-80465317D01*
X153527113Y-80464560D01*
X153529169Y-80462871D01*
X153531429Y-80461450D01*
X153532728Y-80459951D01*
X153538478Y-80455233D01*
X153633717Y-80359993D01*
X153643044Y-80348628D01*
X153645177Y-80343476D01*
X153648497Y-80338997D01*
X153653444Y-80325151D01*
X153701063Y-80134675D01*
X153701438Y-80132138D01*
X153701861Y-80131117D01*
X153702403Y-80125604D01*
X153703213Y-80120131D01*
X153703050Y-80119038D01*
X153703302Y-80116485D01*
X153703302Y-79783152D01*
X153703050Y-79780598D01*
X153703213Y-79779506D01*
X153702403Y-79774032D01*
X153701861Y-79768520D01*
X153701438Y-79767498D01*
X153701063Y-79764962D01*
X153653444Y-79574486D01*
X153648497Y-79560640D01*
X153645178Y-79556161D01*
X153643044Y-79551008D01*
X153633716Y-79539643D01*
X153543892Y-79449819D01*
X153981874Y-79449819D01*
X153981874Y-80259342D01*
X153983315Y-80273974D01*
X153984346Y-80276463D01*
X153984537Y-80279151D01*
X153989792Y-80292883D01*
X154037411Y-80388121D01*
X154041374Y-80394417D01*
X154042132Y-80396247D01*
X154043821Y-80398305D01*
X154045243Y-80400564D01*
X154046741Y-80401863D01*
X154051459Y-80407612D01*
X154099078Y-80455232D01*
X154104827Y-80459950D01*
X154106128Y-80461450D01*
X154108387Y-80462872D01*
X154110444Y-80464560D01*
X154112271Y-80465317D01*
X154118571Y-80469282D01*
X154213809Y-80516901D01*
X154227540Y-80522156D01*
X154230229Y-80522347D01*
X154232718Y-80523378D01*
X154247350Y-80524819D01*
X154437826Y-80524819D01*
X154452458Y-80523378D01*
X154454947Y-80522346D01*
X154457635Y-80522156D01*
X154471367Y-80516901D01*
X154566605Y-80469282D01*
X154572904Y-80465317D01*
X154574732Y-80464560D01*
X154576788Y-80462872D01*
X154579048Y-80461450D01*
X154580348Y-80459950D01*
X154586098Y-80455232D01*
X154633716Y-80407613D01*
X154638434Y-80401863D01*
X154639933Y-80400564D01*
X154641354Y-80398305D01*
X154643044Y-80396247D01*
X154643801Y-80394417D01*
X154647765Y-80388121D01*
X154695384Y-80292883D01*
X154700639Y-80279152D01*
X154700830Y-80276462D01*
X154701861Y-80273974D01*
X154703302Y-80259342D01*
X154703302Y-79449819D01*
X154701861Y-79435187D01*
X154888077Y-79435187D01*
X154888077Y-79464451D01*
X154899276Y-79491487D01*
X154919968Y-79512179D01*
X154947004Y-79523378D01*
X154961636Y-79524819D01*
X155172350Y-79524819D01*
X155172350Y-80449819D01*
X155173791Y-80464451D01*
X155184990Y-80491487D01*
X155205682Y-80512179D01*
X155232718Y-80523378D01*
X155261982Y-80523378D01*
X155289018Y-80512179D01*
X155309710Y-80491487D01*
X155320909Y-80464451D01*
X155322350Y-80449819D01*
X155322350Y-79524819D01*
X155533064Y-79524819D01*
X155547696Y-79523378D01*
X155574732Y-79512179D01*
X155595424Y-79491487D01*
X155606623Y-79464451D01*
X155606623Y-79435187D01*
X155595424Y-79408151D01*
X155574732Y-79387459D01*
X155547696Y-79376260D01*
X155533064Y-79374819D01*
X154961636Y-79374819D01*
X154947004Y-79376260D01*
X154919968Y-79387459D01*
X154899276Y-79408151D01*
X154888077Y-79435187D01*
X154701861Y-79435187D01*
X154690662Y-79408151D01*
X154669970Y-79387459D01*
X154642934Y-79376260D01*
X154613670Y-79376260D01*
X154586634Y-79387459D01*
X154565942Y-79408151D01*
X154554743Y-79435187D01*
X154553302Y-79449819D01*
X154553302Y-80241637D01*
X154519043Y-80310153D01*
X154488636Y-80340561D01*
X154420121Y-80374819D01*
X154265055Y-80374819D01*
X154196539Y-80340561D01*
X154166132Y-80310153D01*
X154131874Y-80241637D01*
X154131874Y-79449819D01*
X154130433Y-79435187D01*
X154119234Y-79408151D01*
X154098542Y-79387459D01*
X154071506Y-79376260D01*
X154042242Y-79376260D01*
X154015206Y-79387459D01*
X153994514Y-79408151D01*
X153983315Y-79435187D01*
X153981874Y-79449819D01*
X153543892Y-79449819D01*
X153538478Y-79444405D01*
X153532728Y-79439686D01*
X153531429Y-79438188D01*
X153529169Y-79436766D01*
X153527113Y-79435078D01*
X153525285Y-79434320D01*
X153518986Y-79430356D01*
X153423748Y-79382737D01*
X153410016Y-79377482D01*
X153407328Y-79377291D01*
X153404839Y-79376260D01*
X153390207Y-79374819D01*
X153199731Y-79374819D01*
X153185099Y-79376260D01*
X153182610Y-79377290D01*
X153179921Y-79377482D01*
X153166190Y-79382737D01*
X153070952Y-79430356D01*
X153064657Y-79434318D01*
X153062825Y-79435077D01*
X153060763Y-79436768D01*
X153058509Y-79438188D01*
X153057210Y-79439684D01*
X153051460Y-79444405D01*
X152956222Y-79539643D01*
X152946895Y-79551008D01*
X152944761Y-79556158D01*
X152941441Y-79560640D01*
X152936494Y-79574486D01*
X152888875Y-79764962D01*
X152888499Y-79767498D01*
X152888077Y-79768520D01*
X152887534Y-79774032D01*
X152886725Y-79779506D01*
X152886887Y-79780598D01*
X152886636Y-79783152D01*
X151893778Y-79783152D01*
X151893526Y-79780598D01*
X151893689Y-79779506D01*
X151892879Y-79774032D01*
X151892337Y-79768520D01*
X151891914Y-79767498D01*
X151891539Y-79764962D01*
X151843920Y-79574486D01*
X151838973Y-79560640D01*
X151835654Y-79556161D01*
X151833520Y-79551008D01*
X151824192Y-79539643D01*
X151728954Y-79444405D01*
X151723204Y-79439686D01*
X151721905Y-79438188D01*
X151719645Y-79436766D01*
X151717589Y-79435078D01*
X151715761Y-79434320D01*
X151709462Y-79430356D01*
X151614224Y-79382737D01*
X151600492Y-79377482D01*
X151597804Y-79377291D01*
X151595315Y-79376260D01*
X151580683Y-79374819D01*
X151390207Y-79374819D01*
X151375575Y-79376260D01*
X151373086Y-79377290D01*
X151370397Y-79377482D01*
X151356666Y-79382737D01*
X151261428Y-79430356D01*
X151255133Y-79434318D01*
X151253301Y-79435077D01*
X151251239Y-79436768D01*
X151248985Y-79438188D01*
X151247686Y-79439684D01*
X151241936Y-79444405D01*
X151146698Y-79539643D01*
X151137371Y-79551008D01*
X151135237Y-79556158D01*
X151131917Y-79560640D01*
X151126970Y-79574486D01*
X151079351Y-79764962D01*
X151078975Y-79767498D01*
X151078553Y-79768520D01*
X151078010Y-79774032D01*
X151077201Y-79779506D01*
X151077363Y-79780598D01*
X151077112Y-79783152D01*
X150798541Y-79783152D01*
X150798541Y-79449819D01*
X150797100Y-79435187D01*
X150785901Y-79408151D01*
X150765209Y-79387459D01*
X150738173Y-79376260D01*
X150708909Y-79376260D01*
X150681873Y-79387459D01*
X150661181Y-79408151D01*
X150649982Y-79435187D01*
X150648541Y-79449819D01*
X150162940Y-79449819D01*
X150157526Y-79444405D01*
X150146161Y-79435078D01*
X150143670Y-79434046D01*
X150141635Y-79432281D01*
X150128210Y-79426287D01*
X149985353Y-79378668D01*
X149978099Y-79377018D01*
X149976268Y-79376260D01*
X149973613Y-79375998D01*
X149971016Y-79375408D01*
X149969041Y-79375548D01*
X149961636Y-79374819D01*
X149723541Y-79374819D01*
X149708909Y-79376260D01*
X149681873Y-79387459D01*
X149661181Y-79408151D01*
X149649982Y-79435187D01*
X149648541Y-79449819D01*
X149322350Y-79449819D01*
X149320909Y-79435187D01*
X149309710Y-79408151D01*
X149289018Y-79387459D01*
X149261982Y-79376260D01*
X149232718Y-79376260D01*
X149205682Y-79387459D01*
X149184990Y-79408151D01*
X149173791Y-79435187D01*
X149172350Y-79449819D01*
X149172350Y-80241637D01*
X149138091Y-80310153D01*
X149107684Y-80340561D01*
X149039169Y-80374819D01*
X148884103Y-80374819D01*
X148815587Y-80340561D01*
X148785180Y-80310153D01*
X148750922Y-80241637D01*
X148750922Y-79449819D01*
X148749481Y-79435187D01*
X148738282Y-79408151D01*
X148717590Y-79387459D01*
X148690554Y-79376260D01*
X148661290Y-79376260D01*
X148634254Y-79387459D01*
X148613562Y-79408151D01*
X148602363Y-79435187D01*
X148600922Y-79449819D01*
X148088312Y-79449819D01*
X148080406Y-79426102D01*
X148074412Y-79412676D01*
X148070900Y-79408627D01*
X148068505Y-79403836D01*
X148061401Y-79397674D01*
X148055238Y-79390569D01*
X148050444Y-79388172D01*
X148046397Y-79384662D01*
X148037475Y-79381688D01*
X148029065Y-79377483D01*
X148023720Y-79377103D01*
X148018635Y-79375408D01*
X148009255Y-79376074D01*
X147999875Y-79375408D01*
X147994789Y-79377103D01*
X147989445Y-79377483D01*
X147981037Y-79381687D01*
X147972112Y-79384662D01*
X147968061Y-79388175D01*
X147963272Y-79390570D01*
X147957113Y-79397670D01*
X147950005Y-79403836D01*
X147947608Y-79408629D01*
X147944098Y-79412677D01*
X147938104Y-79426102D01*
X147604771Y-80426102D01*
X147601511Y-80440439D01*
X147490400Y-80440439D01*
X147490400Y-79263708D01*
X155717734Y-79263708D01*
X155717734Y-80731168D01*
G37*
X97092200Y-66110839D02*
X97139819Y-65967982D01*
X97139819Y-65967982D02*
X97139819Y-65729887D01*
X97139819Y-65729887D02*
X97092200Y-65634649D01*
X97092200Y-65634649D02*
X97044580Y-65587030D01*
X97044580Y-65587030D02*
X96949342Y-65539411D01*
X96949342Y-65539411D02*
X96854104Y-65539411D01*
X96854104Y-65539411D02*
X96758866Y-65587030D01*
X96758866Y-65587030D02*
X96711247Y-65634649D01*
X96711247Y-65634649D02*
X96663628Y-65729887D01*
X96663628Y-65729887D02*
X96616009Y-65920363D01*
X96616009Y-65920363D02*
X96568390Y-66015601D01*
X96568390Y-66015601D02*
X96520771Y-66063220D01*
X96520771Y-66063220D02*
X96425533Y-66110839D01*
X96425533Y-66110839D02*
X96330295Y-66110839D01*
X96330295Y-66110839D02*
X96235057Y-66063220D01*
X96235057Y-66063220D02*
X96187438Y-66015601D01*
X96187438Y-66015601D02*
X96139819Y-65920363D01*
X96139819Y-65920363D02*
X96139819Y-65682268D01*
X96139819Y-65682268D02*
X96187438Y-65539411D01*
X97139819Y-65110839D02*
X96139819Y-65110839D01*
X96139819Y-65110839D02*
X96139819Y-64872744D01*
X96139819Y-64872744D02*
X96187438Y-64729887D01*
X96187438Y-64729887D02*
X96282676Y-64634649D01*
X96282676Y-64634649D02*
X96377914Y-64587030D01*
X96377914Y-64587030D02*
X96568390Y-64539411D01*
X96568390Y-64539411D02*
X96711247Y-64539411D01*
X96711247Y-64539411D02*
X96901723Y-64587030D01*
X96901723Y-64587030D02*
X96996961Y-64634649D01*
X96996961Y-64634649D02*
X97092200Y-64729887D01*
X97092200Y-64729887D02*
X97139819Y-64872744D01*
X97139819Y-64872744D02*
X97139819Y-65110839D01*
X96854104Y-64158458D02*
X96854104Y-63682268D01*
X97139819Y-64253696D02*
X96139819Y-63920363D01*
X96139819Y-63920363D02*
X97139819Y-63587030D01*
X101564200Y-76400839D02*
X101611819Y-76257982D01*
X101611819Y-76257982D02*
X101611819Y-76019887D01*
X101611819Y-76019887D02*
X101564200Y-75924649D01*
X101564200Y-75924649D02*
X101516580Y-75877030D01*
X101516580Y-75877030D02*
X101421342Y-75829411D01*
X101421342Y-75829411D02*
X101326104Y-75829411D01*
X101326104Y-75829411D02*
X101230866Y-75877030D01*
X101230866Y-75877030D02*
X101183247Y-75924649D01*
X101183247Y-75924649D02*
X101135628Y-76019887D01*
X101135628Y-76019887D02*
X101088009Y-76210363D01*
X101088009Y-76210363D02*
X101040390Y-76305601D01*
X101040390Y-76305601D02*
X100992771Y-76353220D01*
X100992771Y-76353220D02*
X100897533Y-76400839D01*
X100897533Y-76400839D02*
X100802295Y-76400839D01*
X100802295Y-76400839D02*
X100707057Y-76353220D01*
X100707057Y-76353220D02*
X100659438Y-76305601D01*
X100659438Y-76305601D02*
X100611819Y-76210363D01*
X100611819Y-76210363D02*
X100611819Y-75972268D01*
X100611819Y-75972268D02*
X100659438Y-75829411D01*
X101516580Y-74829411D02*
X101564200Y-74877030D01*
X101564200Y-74877030D02*
X101611819Y-75019887D01*
X101611819Y-75019887D02*
X101611819Y-75115125D01*
X101611819Y-75115125D02*
X101564200Y-75257982D01*
X101564200Y-75257982D02*
X101468961Y-75353220D01*
X101468961Y-75353220D02*
X101373723Y-75400839D01*
X101373723Y-75400839D02*
X101183247Y-75448458D01*
X101183247Y-75448458D02*
X101040390Y-75448458D01*
X101040390Y-75448458D02*
X100849914Y-75400839D01*
X100849914Y-75400839D02*
X100754676Y-75353220D01*
X100754676Y-75353220D02*
X100659438Y-75257982D01*
X100659438Y-75257982D02*
X100611819Y-75115125D01*
X100611819Y-75115125D02*
X100611819Y-75019887D01*
X100611819Y-75019887D02*
X100659438Y-74877030D01*
X100659438Y-74877030D02*
X100707057Y-74829411D01*
X101611819Y-73924649D02*
X101611819Y-74400839D01*
X101611819Y-74400839D02*
X100611819Y-74400839D01*
X167088009Y-66309887D02*
X167135628Y-66167030D01*
X167135628Y-66167030D02*
X167183247Y-66119411D01*
X167183247Y-66119411D02*
X167278485Y-66071792D01*
X167278485Y-66071792D02*
X167421342Y-66071792D01*
X167421342Y-66071792D02*
X167516580Y-66119411D01*
X167516580Y-66119411D02*
X167564200Y-66167030D01*
X167564200Y-66167030D02*
X167611819Y-66262268D01*
X167611819Y-66262268D02*
X167611819Y-66643220D01*
X167611819Y-66643220D02*
X166611819Y-66643220D01*
X166611819Y-66643220D02*
X166611819Y-66309887D01*
X166611819Y-66309887D02*
X166659438Y-66214649D01*
X166659438Y-66214649D02*
X166707057Y-66167030D01*
X166707057Y-66167030D02*
X166802295Y-66119411D01*
X166802295Y-66119411D02*
X166897533Y-66119411D01*
X166897533Y-66119411D02*
X166992771Y-66167030D01*
X166992771Y-66167030D02*
X167040390Y-66214649D01*
X167040390Y-66214649D02*
X167088009Y-66309887D01*
X167088009Y-66309887D02*
X167088009Y-66643220D01*
X166611819Y-65643220D02*
X167421342Y-65643220D01*
X167421342Y-65643220D02*
X167516580Y-65595601D01*
X167516580Y-65595601D02*
X167564200Y-65547982D01*
X167564200Y-65547982D02*
X167611819Y-65452744D01*
X167611819Y-65452744D02*
X167611819Y-65262268D01*
X167611819Y-65262268D02*
X167564200Y-65167030D01*
X167564200Y-65167030D02*
X167516580Y-65119411D01*
X167516580Y-65119411D02*
X167421342Y-65071792D01*
X167421342Y-65071792D02*
X166611819Y-65071792D01*
X166611819Y-64738458D02*
X166611819Y-64167030D01*
X167611819Y-64452744D02*
X166611819Y-64452744D01*
X166611819Y-63976553D02*
X166611819Y-63405125D01*
X167611819Y-63690839D02*
X166611819Y-63690839D01*
X166611819Y-62881315D02*
X166611819Y-62690839D01*
X166611819Y-62690839D02*
X166659438Y-62595601D01*
X166659438Y-62595601D02*
X166754676Y-62500363D01*
X166754676Y-62500363D02*
X166945152Y-62452744D01*
X166945152Y-62452744D02*
X167278485Y-62452744D01*
X167278485Y-62452744D02*
X167468961Y-62500363D01*
X167468961Y-62500363D02*
X167564200Y-62595601D01*
X167564200Y-62595601D02*
X167611819Y-62690839D01*
X167611819Y-62690839D02*
X167611819Y-62881315D01*
X167611819Y-62881315D02*
X167564200Y-62976553D01*
X167564200Y-62976553D02*
X167468961Y-63071791D01*
X167468961Y-63071791D02*
X167278485Y-63119410D01*
X167278485Y-63119410D02*
X166945152Y-63119410D01*
X166945152Y-63119410D02*
X166754676Y-63071791D01*
X166754676Y-63071791D02*
X166659438Y-62976553D01*
X166659438Y-62976553D02*
X166611819Y-62881315D01*
X167611819Y-62024172D02*
X166611819Y-62024172D01*
X166611819Y-62024172D02*
X167611819Y-61452744D01*
X167611819Y-61452744D02*
X166611819Y-61452744D01*
X167707057Y-61214649D02*
X167707057Y-60452744D01*
X166707057Y-60262267D02*
X166659438Y-60214648D01*
X166659438Y-60214648D02*
X166611819Y-60119410D01*
X166611819Y-60119410D02*
X166611819Y-59881315D01*
X166611819Y-59881315D02*
X166659438Y-59786077D01*
X166659438Y-59786077D02*
X166707057Y-59738458D01*
X166707057Y-59738458D02*
X166802295Y-59690839D01*
X166802295Y-59690839D02*
X166897533Y-59690839D01*
X166897533Y-59690839D02*
X167040390Y-59738458D01*
X167040390Y-59738458D02*
X167611819Y-60309886D01*
X167611819Y-60309886D02*
X167611819Y-59690839D01*
X91659438Y-65459411D02*
X91611819Y-65554649D01*
X91611819Y-65554649D02*
X91611819Y-65697506D01*
X91611819Y-65697506D02*
X91659438Y-65840363D01*
X91659438Y-65840363D02*
X91754676Y-65935601D01*
X91754676Y-65935601D02*
X91849914Y-65983220D01*
X91849914Y-65983220D02*
X92040390Y-66030839D01*
X92040390Y-66030839D02*
X92183247Y-66030839D01*
X92183247Y-66030839D02*
X92373723Y-65983220D01*
X92373723Y-65983220D02*
X92468961Y-65935601D01*
X92468961Y-65935601D02*
X92564200Y-65840363D01*
X92564200Y-65840363D02*
X92611819Y-65697506D01*
X92611819Y-65697506D02*
X92611819Y-65602268D01*
X92611819Y-65602268D02*
X92564200Y-65459411D01*
X92564200Y-65459411D02*
X92516580Y-65411792D01*
X92516580Y-65411792D02*
X92183247Y-65411792D01*
X92183247Y-65411792D02*
X92183247Y-65602268D01*
X92611819Y-64983220D02*
X91611819Y-64983220D01*
X91611819Y-64983220D02*
X92611819Y-64411792D01*
X92611819Y-64411792D02*
X91611819Y-64411792D01*
X92611819Y-63935601D02*
X91611819Y-63935601D01*
X91611819Y-63935601D02*
X91611819Y-63697506D01*
X91611819Y-63697506D02*
X91659438Y-63554649D01*
X91659438Y-63554649D02*
X91754676Y-63459411D01*
X91754676Y-63459411D02*
X91849914Y-63411792D01*
X91849914Y-63411792D02*
X92040390Y-63364173D01*
X92040390Y-63364173D02*
X92183247Y-63364173D01*
X92183247Y-63364173D02*
X92373723Y-63411792D01*
X92373723Y-63411792D02*
X92468961Y-63459411D01*
X92468961Y-63459411D02*
X92564200Y-63554649D01*
X92564200Y-63554649D02*
X92611819Y-63697506D01*
X92611819Y-63697506D02*
X92611819Y-63935601D01*
X94664200Y-65790839D02*
X94711819Y-65647982D01*
X94711819Y-65647982D02*
X94711819Y-65409887D01*
X94711819Y-65409887D02*
X94664200Y-65314649D01*
X94664200Y-65314649D02*
X94616580Y-65267030D01*
X94616580Y-65267030D02*
X94521342Y-65219411D01*
X94521342Y-65219411D02*
X94426104Y-65219411D01*
X94426104Y-65219411D02*
X94330866Y-65267030D01*
X94330866Y-65267030D02*
X94283247Y-65314649D01*
X94283247Y-65314649D02*
X94235628Y-65409887D01*
X94235628Y-65409887D02*
X94188009Y-65600363D01*
X94188009Y-65600363D02*
X94140390Y-65695601D01*
X94140390Y-65695601D02*
X94092771Y-65743220D01*
X94092771Y-65743220D02*
X93997533Y-65790839D01*
X93997533Y-65790839D02*
X93902295Y-65790839D01*
X93902295Y-65790839D02*
X93807057Y-65743220D01*
X93807057Y-65743220D02*
X93759438Y-65695601D01*
X93759438Y-65695601D02*
X93711819Y-65600363D01*
X93711819Y-65600363D02*
X93711819Y-65362268D01*
X93711819Y-65362268D02*
X93759438Y-65219411D01*
X94616580Y-64219411D02*
X94664200Y-64267030D01*
X94664200Y-64267030D02*
X94711819Y-64409887D01*
X94711819Y-64409887D02*
X94711819Y-64505125D01*
X94711819Y-64505125D02*
X94664200Y-64647982D01*
X94664200Y-64647982D02*
X94568961Y-64743220D01*
X94568961Y-64743220D02*
X94473723Y-64790839D01*
X94473723Y-64790839D02*
X94283247Y-64838458D01*
X94283247Y-64838458D02*
X94140390Y-64838458D01*
X94140390Y-64838458D02*
X93949914Y-64790839D01*
X93949914Y-64790839D02*
X93854676Y-64743220D01*
X93854676Y-64743220D02*
X93759438Y-64647982D01*
X93759438Y-64647982D02*
X93711819Y-64505125D01*
X93711819Y-64505125D02*
X93711819Y-64409887D01*
X93711819Y-64409887D02*
X93759438Y-64267030D01*
X93759438Y-64267030D02*
X93807057Y-64219411D01*
X94711819Y-63314649D02*
X94711819Y-63790839D01*
X94711819Y-63790839D02*
X93711819Y-63790839D01*
G36*
X151373979Y-81482990D02*
G01*
X151448092Y-81557103D01*
X151486585Y-81634090D01*
X151529969Y-81807624D01*
X151529969Y-81932013D01*
X151486585Y-82105547D01*
X151448091Y-82182534D01*
X151373979Y-82256647D01*
X151259466Y-82294819D01*
X151108541Y-82294819D01*
X151108541Y-81444819D01*
X151259466Y-81444819D01*
X151373979Y-81482990D01*
G37*
G36*
X152941494Y-81479077D02*
G01*
X153013436Y-81551019D01*
X153053778Y-81712386D01*
X153053778Y-82027251D01*
X153013436Y-82188617D01*
X152941493Y-82260561D01*
X152872978Y-82294819D01*
X152717912Y-82294819D01*
X152649396Y-82260561D01*
X152577453Y-82188617D01*
X152537112Y-82027251D01*
X152537112Y-81712386D01*
X152577453Y-81551019D01*
X152649396Y-81479077D01*
X152717912Y-81444819D01*
X152872978Y-81444819D01*
X152941494Y-81479077D01*
G37*
G36*
X149453293Y-82009104D02*
G01*
X149185217Y-82009104D01*
X149319255Y-81606989D01*
X149453293Y-82009104D01*
G37*
G36*
X155552984Y-82651168D02*
G01*
X148800400Y-82651168D01*
X148800400Y-82450425D01*
X153245696Y-82450425D01*
X153245696Y-82479689D01*
X153256895Y-82506725D01*
X153277587Y-82527417D01*
X153304623Y-82538616D01*
X153319255Y-82540057D01*
X154081159Y-82540057D01*
X154095791Y-82538616D01*
X154122827Y-82527417D01*
X154143519Y-82506725D01*
X154154718Y-82479689D01*
X154154718Y-82450425D01*
X154143519Y-82423389D01*
X154122827Y-82402697D01*
X154095791Y-82391498D01*
X154081159Y-82390057D01*
X153319255Y-82390057D01*
X153304623Y-82391498D01*
X153277587Y-82402697D01*
X153256895Y-82423389D01*
X153245696Y-82450425D01*
X148800400Y-82450425D01*
X148800400Y-82360439D01*
X148911511Y-82360439D01*
X148913586Y-82389629D01*
X148926672Y-82415802D01*
X148948779Y-82434976D01*
X148976542Y-82444230D01*
X149005732Y-82442155D01*
X149031905Y-82429069D01*
X149051079Y-82406962D01*
X149057073Y-82393536D01*
X149135217Y-82159104D01*
X149503293Y-82159104D01*
X149581437Y-82393536D01*
X149587431Y-82406961D01*
X149606605Y-82429068D01*
X149632778Y-82442155D01*
X149661968Y-82444230D01*
X149689730Y-82434976D01*
X149711838Y-82415802D01*
X149724924Y-82389628D01*
X149726999Y-82360438D01*
X149723739Y-82346102D01*
X149398312Y-81369819D01*
X149910922Y-81369819D01*
X149910922Y-82179342D01*
X149912363Y-82193974D01*
X149913394Y-82196463D01*
X149913585Y-82199151D01*
X149918840Y-82212883D01*
X149966459Y-82308121D01*
X149970422Y-82314417D01*
X149971180Y-82316247D01*
X149972869Y-82318305D01*
X149974291Y-82320564D01*
X149975789Y-82321863D01*
X149980507Y-82327612D01*
X150028126Y-82375232D01*
X150033875Y-82379950D01*
X150035176Y-82381450D01*
X150037435Y-82382872D01*
X150039492Y-82384560D01*
X150041319Y-82385317D01*
X150047619Y-82389282D01*
X150142857Y-82436901D01*
X150156588Y-82442156D01*
X150159277Y-82442347D01*
X150161766Y-82443378D01*
X150176398Y-82444819D01*
X150366874Y-82444819D01*
X150381506Y-82443378D01*
X150383995Y-82442346D01*
X150386683Y-82442156D01*
X150400415Y-82436901D01*
X150495653Y-82389282D01*
X150501952Y-82385317D01*
X150503780Y-82384560D01*
X150505836Y-82382872D01*
X150508096Y-82381450D01*
X150509396Y-82379950D01*
X150515146Y-82375232D01*
X150562764Y-82327613D01*
X150567482Y-82321863D01*
X150568981Y-82320564D01*
X150570402Y-82318305D01*
X150572092Y-82316247D01*
X150572849Y-82314417D01*
X150576813Y-82308121D01*
X150624432Y-82212883D01*
X150629687Y-82199152D01*
X150629878Y-82196462D01*
X150630909Y-82193974D01*
X150632350Y-82179342D01*
X150632350Y-81369819D01*
X150958541Y-81369819D01*
X150958541Y-82369819D01*
X150959982Y-82384451D01*
X150971181Y-82411487D01*
X150991873Y-82432179D01*
X151018909Y-82443378D01*
X151033541Y-82444819D01*
X151271636Y-82444819D01*
X151279041Y-82444089D01*
X151281016Y-82444230D01*
X151283613Y-82443639D01*
X151286268Y-82443378D01*
X151288099Y-82442619D01*
X151295353Y-82440970D01*
X151438210Y-82393351D01*
X151451635Y-82387357D01*
X151453670Y-82385591D01*
X151456161Y-82384560D01*
X151467526Y-82375233D01*
X151562765Y-82279993D01*
X151567482Y-82274244D01*
X151568981Y-82272945D01*
X151570402Y-82270686D01*
X151572092Y-82268628D01*
X151572849Y-82266798D01*
X151576813Y-82260502D01*
X151624432Y-82165264D01*
X151624841Y-82164194D01*
X151625164Y-82163759D01*
X151627356Y-82157622D01*
X151629687Y-82151533D01*
X151629725Y-82150992D01*
X151630111Y-82149913D01*
X151677730Y-81959437D01*
X151678105Y-81956900D01*
X151678528Y-81955879D01*
X151679070Y-81950366D01*
X151679880Y-81944893D01*
X151679717Y-81943800D01*
X151679969Y-81941247D01*
X151679969Y-81798390D01*
X151679717Y-81795836D01*
X151679880Y-81794744D01*
X151679070Y-81789270D01*
X151678528Y-81783758D01*
X151678105Y-81782736D01*
X151677730Y-81780200D01*
X151630111Y-81589724D01*
X151629725Y-81588644D01*
X151629687Y-81588104D01*
X151627356Y-81582014D01*
X151625164Y-81575878D01*
X151624841Y-81575442D01*
X151624432Y-81574373D01*
X151576813Y-81479135D01*
X151572850Y-81472840D01*
X151572092Y-81471008D01*
X151570400Y-81468946D01*
X151568981Y-81466692D01*
X151567484Y-81465393D01*
X151562764Y-81459643D01*
X151472940Y-81369819D01*
X151958541Y-81369819D01*
X151958541Y-82369819D01*
X151959982Y-82384451D01*
X151971181Y-82411487D01*
X151991873Y-82432179D01*
X152018909Y-82443378D01*
X152048173Y-82443378D01*
X152075209Y-82432179D01*
X152095901Y-82411487D01*
X152107100Y-82384451D01*
X152108541Y-82369819D01*
X152108541Y-81703152D01*
X152387112Y-81703152D01*
X152387112Y-82036485D01*
X152387363Y-82039038D01*
X152387201Y-82040131D01*
X152388010Y-82045604D01*
X152388553Y-82051117D01*
X152388975Y-82052138D01*
X152389351Y-82054675D01*
X152436970Y-82245151D01*
X152441917Y-82258997D01*
X152445236Y-82263476D01*
X152447370Y-82268628D01*
X152456698Y-82279994D01*
X152551936Y-82375233D01*
X152557686Y-82379953D01*
X152558985Y-82381450D01*
X152561239Y-82382869D01*
X152563301Y-82384561D01*
X152565133Y-82385319D01*
X152571428Y-82389282D01*
X152666666Y-82436901D01*
X152680397Y-82442156D01*
X152683086Y-82442347D01*
X152685575Y-82443378D01*
X152700207Y-82444819D01*
X152890683Y-82444819D01*
X152905315Y-82443378D01*
X152907804Y-82442346D01*
X152910492Y-82442156D01*
X152924224Y-82436901D01*
X153019462Y-82389282D01*
X153025761Y-82385317D01*
X153027589Y-82384560D01*
X153029645Y-82382871D01*
X153031905Y-82381450D01*
X153033204Y-82379951D01*
X153038954Y-82375233D01*
X153134193Y-82279993D01*
X153143520Y-82268628D01*
X153145653Y-82263476D01*
X153148973Y-82258997D01*
X153153920Y-82245151D01*
X153201539Y-82054675D01*
X153201914Y-82052138D01*
X153202337Y-82051117D01*
X153202879Y-82045604D01*
X153203689Y-82040131D01*
X153203526Y-82039038D01*
X153203778Y-82036485D01*
X153203778Y-81703152D01*
X153203526Y-81700598D01*
X153203689Y-81699506D01*
X153202879Y-81694032D01*
X153202337Y-81688520D01*
X153201914Y-81687498D01*
X153201539Y-81684962D01*
X153153920Y-81494486D01*
X153148973Y-81480640D01*
X153145654Y-81476161D01*
X153143520Y-81471008D01*
X153134192Y-81459643D01*
X153044368Y-81369819D01*
X154244255Y-81369819D01*
X154244255Y-82369819D01*
X154245696Y-82384451D01*
X154256895Y-82411487D01*
X154277587Y-82432179D01*
X154304623Y-82443378D01*
X154333887Y-82443378D01*
X154360923Y-82432179D01*
X154381615Y-82411487D01*
X154392814Y-82384451D01*
X154394255Y-82369819D01*
X154394255Y-81369819D01*
X154720445Y-81369819D01*
X154720445Y-82369819D01*
X154721886Y-82384451D01*
X154733085Y-82411487D01*
X154753777Y-82432179D01*
X154780813Y-82443378D01*
X154810077Y-82443378D01*
X154837113Y-82432179D01*
X154857805Y-82411487D01*
X154869004Y-82384451D01*
X154870445Y-82369819D01*
X154870445Y-81652235D01*
X155301755Y-82407030D01*
X155303944Y-82410114D01*
X155304513Y-82411487D01*
X155305910Y-82412884D01*
X155310265Y-82419019D01*
X155318153Y-82425127D01*
X155325205Y-82432179D01*
X155329623Y-82434009D01*
X155333403Y-82436936D01*
X155343024Y-82439560D01*
X155352241Y-82443378D01*
X155357022Y-82443378D01*
X155361634Y-82444636D01*
X155371531Y-82443378D01*
X155381505Y-82443378D01*
X155385920Y-82441548D01*
X155390664Y-82440946D01*
X155399328Y-82435995D01*
X155408541Y-82432179D01*
X155411919Y-82428800D01*
X155416073Y-82426427D01*
X155422182Y-82418537D01*
X155429233Y-82411487D01*
X155431062Y-82407070D01*
X155433990Y-82403290D01*
X155436614Y-82393666D01*
X155440432Y-82384451D01*
X155441168Y-82376968D01*
X155441690Y-82375058D01*
X155441502Y-82373582D01*
X155441873Y-82369819D01*
X155441873Y-81369819D01*
X155440432Y-81355187D01*
X155429233Y-81328151D01*
X155408541Y-81307459D01*
X155381505Y-81296260D01*
X155352241Y-81296260D01*
X155325205Y-81307459D01*
X155304513Y-81328151D01*
X155293314Y-81355187D01*
X155291873Y-81369819D01*
X155291873Y-82087402D01*
X154860563Y-81332609D01*
X154858374Y-81329525D01*
X154857805Y-81328151D01*
X154856405Y-81326751D01*
X154852053Y-81320619D01*
X154844163Y-81314509D01*
X154837113Y-81307459D01*
X154832696Y-81305629D01*
X154828916Y-81302702D01*
X154819292Y-81300077D01*
X154810077Y-81296260D01*
X154805296Y-81296260D01*
X154800684Y-81295002D01*
X154790787Y-81296260D01*
X154780813Y-81296260D01*
X154776397Y-81298089D01*
X154771654Y-81298692D01*
X154762989Y-81303642D01*
X154753777Y-81307459D01*
X154750398Y-81310837D01*
X154746245Y-81313211D01*
X154740135Y-81321100D01*
X154733085Y-81328151D01*
X154731255Y-81332567D01*
X154728328Y-81336348D01*
X154725703Y-81345971D01*
X154721886Y-81355187D01*
X154721149Y-81362669D01*
X154720628Y-81364580D01*
X154720815Y-81366055D01*
X154720445Y-81369819D01*
X154394255Y-81369819D01*
X154392814Y-81355187D01*
X154381615Y-81328151D01*
X154360923Y-81307459D01*
X154333887Y-81296260D01*
X154304623Y-81296260D01*
X154277587Y-81307459D01*
X154256895Y-81328151D01*
X154245696Y-81355187D01*
X154244255Y-81369819D01*
X153044368Y-81369819D01*
X153038954Y-81364405D01*
X153033204Y-81359686D01*
X153031905Y-81358188D01*
X153029645Y-81356766D01*
X153027589Y-81355078D01*
X153025761Y-81354320D01*
X153019462Y-81350356D01*
X152924224Y-81302737D01*
X152910492Y-81297482D01*
X152907804Y-81297291D01*
X152905315Y-81296260D01*
X152890683Y-81294819D01*
X152700207Y-81294819D01*
X152685575Y-81296260D01*
X152683086Y-81297290D01*
X152680397Y-81297482D01*
X152666666Y-81302737D01*
X152571428Y-81350356D01*
X152565133Y-81354318D01*
X152563301Y-81355077D01*
X152561239Y-81356768D01*
X152558985Y-81358188D01*
X152557686Y-81359684D01*
X152551936Y-81364405D01*
X152456698Y-81459643D01*
X152447371Y-81471008D01*
X152445237Y-81476158D01*
X152441917Y-81480640D01*
X152436970Y-81494486D01*
X152389351Y-81684962D01*
X152388975Y-81687498D01*
X152388553Y-81688520D01*
X152388010Y-81694032D01*
X152387201Y-81699506D01*
X152387363Y-81700598D01*
X152387112Y-81703152D01*
X152108541Y-81703152D01*
X152108541Y-81369819D01*
X152107100Y-81355187D01*
X152095901Y-81328151D01*
X152075209Y-81307459D01*
X152048173Y-81296260D01*
X152018909Y-81296260D01*
X151991873Y-81307459D01*
X151971181Y-81328151D01*
X151959982Y-81355187D01*
X151958541Y-81369819D01*
X151472940Y-81369819D01*
X151467526Y-81364405D01*
X151456161Y-81355078D01*
X151453670Y-81354046D01*
X151451635Y-81352281D01*
X151438210Y-81346287D01*
X151295353Y-81298668D01*
X151288099Y-81297018D01*
X151286268Y-81296260D01*
X151283613Y-81295998D01*
X151281016Y-81295408D01*
X151279041Y-81295548D01*
X151271636Y-81294819D01*
X151033541Y-81294819D01*
X151018909Y-81296260D01*
X150991873Y-81307459D01*
X150971181Y-81328151D01*
X150959982Y-81355187D01*
X150958541Y-81369819D01*
X150632350Y-81369819D01*
X150630909Y-81355187D01*
X150619710Y-81328151D01*
X150599018Y-81307459D01*
X150571982Y-81296260D01*
X150542718Y-81296260D01*
X150515682Y-81307459D01*
X150494990Y-81328151D01*
X150483791Y-81355187D01*
X150482350Y-81369819D01*
X150482350Y-82161637D01*
X150448091Y-82230153D01*
X150417684Y-82260561D01*
X150349169Y-82294819D01*
X150194103Y-82294819D01*
X150125587Y-82260561D01*
X150095180Y-82230153D01*
X150060922Y-82161637D01*
X150060922Y-81369819D01*
X150059481Y-81355187D01*
X150048282Y-81328151D01*
X150027590Y-81307459D01*
X150000554Y-81296260D01*
X149971290Y-81296260D01*
X149944254Y-81307459D01*
X149923562Y-81328151D01*
X149912363Y-81355187D01*
X149910922Y-81369819D01*
X149398312Y-81369819D01*
X149390406Y-81346102D01*
X149384412Y-81332676D01*
X149380900Y-81328627D01*
X149378505Y-81323836D01*
X149371401Y-81317674D01*
X149365238Y-81310569D01*
X149360444Y-81308172D01*
X149356397Y-81304662D01*
X149347475Y-81301688D01*
X149339065Y-81297483D01*
X149333720Y-81297103D01*
X149328635Y-81295408D01*
X149319255Y-81296074D01*
X149309875Y-81295408D01*
X149304789Y-81297103D01*
X149299445Y-81297483D01*
X149291037Y-81301687D01*
X149282112Y-81304662D01*
X149278061Y-81308175D01*
X149273272Y-81310570D01*
X149267113Y-81317670D01*
X149260005Y-81323836D01*
X149257608Y-81328629D01*
X149254098Y-81332677D01*
X149248104Y-81346102D01*
X148914771Y-82346102D01*
X148911511Y-82360439D01*
X148800400Y-82360439D01*
X148800400Y-81183708D01*
X155552984Y-81183708D01*
X155552984Y-82651168D01*
G37*
G36*
X128265963Y-93511050D02*
G01*
X128296370Y-93541457D01*
X128330628Y-93609973D01*
X128330628Y-93898220D01*
X127956819Y-93898220D01*
X127956819Y-93609973D01*
X127991077Y-93541457D01*
X128021484Y-93511050D01*
X128090000Y-93476792D01*
X128197447Y-93476792D01*
X128265963Y-93511050D01*
G37*
G36*
X128700617Y-92469514D02*
G01*
X128772561Y-92541457D01*
X128806819Y-92609973D01*
X128806819Y-92765039D01*
X128772561Y-92833554D01*
X128700617Y-92905497D01*
X128539251Y-92945839D01*
X128224386Y-92945839D01*
X128063019Y-92905497D01*
X127991077Y-92833555D01*
X127956819Y-92765039D01*
X127956819Y-92609973D01*
X127991077Y-92541457D01*
X128063019Y-92469514D01*
X128224386Y-92429173D01*
X128539251Y-92429173D01*
X128700617Y-92469514D01*
G37*
G36*
X129163168Y-94159331D02*
G01*
X127695708Y-94159331D01*
X127695708Y-93592268D01*
X127806819Y-93592268D01*
X127806819Y-93973220D01*
X127808260Y-93987852D01*
X127819459Y-94014888D01*
X127840151Y-94035580D01*
X127867187Y-94046779D01*
X127881819Y-94048220D01*
X128881819Y-94048220D01*
X128896451Y-94046779D01*
X128923487Y-94035580D01*
X128944179Y-94014888D01*
X128955378Y-93987852D01*
X128955378Y-93958588D01*
X128944179Y-93931552D01*
X128923487Y-93910860D01*
X128896451Y-93899661D01*
X128881819Y-93898220D01*
X128480628Y-93898220D01*
X128480628Y-93592268D01*
X128479187Y-93577636D01*
X128478156Y-93575147D01*
X128477965Y-93572458D01*
X128472710Y-93558727D01*
X128425091Y-93463489D01*
X128421126Y-93457189D01*
X128420369Y-93455362D01*
X128418680Y-93453305D01*
X128417259Y-93451046D01*
X128415760Y-93449746D01*
X128411042Y-93443997D01*
X128363423Y-93396378D01*
X128357673Y-93391659D01*
X128356374Y-93390161D01*
X128354114Y-93388739D01*
X128352058Y-93387051D01*
X128350230Y-93386293D01*
X128343931Y-93382329D01*
X128248693Y-93334710D01*
X128234961Y-93329455D01*
X128232273Y-93329264D01*
X128229784Y-93328233D01*
X128215152Y-93326792D01*
X128072295Y-93326792D01*
X128057663Y-93328233D01*
X128055174Y-93329263D01*
X128052485Y-93329455D01*
X128038754Y-93334710D01*
X127943516Y-93382329D01*
X127937216Y-93386293D01*
X127935389Y-93387051D01*
X127933332Y-93388739D01*
X127931073Y-93390161D01*
X127929773Y-93391659D01*
X127924024Y-93396378D01*
X127876405Y-93443997D01*
X127871686Y-93449746D01*
X127870188Y-93451046D01*
X127868766Y-93453305D01*
X127867078Y-93455362D01*
X127866320Y-93457189D01*
X127862356Y-93463489D01*
X127814737Y-93558727D01*
X127809482Y-93572459D01*
X127809291Y-93575146D01*
X127808260Y-93577636D01*
X127806819Y-93592268D01*
X127695708Y-93592268D01*
X127695708Y-92592268D01*
X127806819Y-92592268D01*
X127806819Y-92782744D01*
X127808260Y-92797376D01*
X127809291Y-92799865D01*
X127809482Y-92802553D01*
X127814737Y-92816285D01*
X127862356Y-92911523D01*
X127866320Y-92917822D01*
X127867078Y-92919650D01*
X127868766Y-92921706D01*
X127870188Y-92923966D01*
X127871686Y-92925265D01*
X127876405Y-92931015D01*
X127971643Y-93026253D01*
X127983008Y-93035581D01*
X127988161Y-93037715D01*
X127992640Y-93041034D01*
X128006486Y-93045981D01*
X128196962Y-93093600D01*
X128199498Y-93093975D01*
X128200520Y-93094398D01*
X128206032Y-93094940D01*
X128211506Y-93095750D01*
X128212598Y-93095587D01*
X128215152Y-93095839D01*
X128548485Y-93095839D01*
X128551038Y-93095587D01*
X128552131Y-93095750D01*
X128557604Y-93094940D01*
X128563117Y-93094398D01*
X128564138Y-93093975D01*
X128566675Y-93093600D01*
X128757151Y-93045981D01*
X128770997Y-93041034D01*
X128775476Y-93037714D01*
X128780628Y-93035581D01*
X128791994Y-93026253D01*
X128887233Y-92931015D01*
X128891953Y-92925264D01*
X128893450Y-92923966D01*
X128894869Y-92921711D01*
X128896561Y-92919650D01*
X128897319Y-92917817D01*
X128901282Y-92911523D01*
X128948901Y-92816285D01*
X128954156Y-92802554D01*
X128954347Y-92799864D01*
X128955378Y-92797376D01*
X128956819Y-92782744D01*
X128956819Y-92592268D01*
X128955378Y-92577636D01*
X128954347Y-92575147D01*
X128954156Y-92572458D01*
X128948901Y-92558727D01*
X128901282Y-92463489D01*
X128897319Y-92457194D01*
X128896561Y-92455362D01*
X128894869Y-92453300D01*
X128893450Y-92451046D01*
X128891953Y-92449747D01*
X128887233Y-92443997D01*
X128791994Y-92348759D01*
X128780628Y-92339431D01*
X128775476Y-92337297D01*
X128770997Y-92333978D01*
X128757151Y-92329031D01*
X128566675Y-92281412D01*
X128564138Y-92281036D01*
X128563117Y-92280614D01*
X128557604Y-92280071D01*
X128552131Y-92279262D01*
X128551038Y-92279424D01*
X128548485Y-92279173D01*
X128215152Y-92279173D01*
X128212598Y-92279424D01*
X128211506Y-92279262D01*
X128206032Y-92280071D01*
X128200520Y-92280614D01*
X128199498Y-92281036D01*
X128196962Y-92281412D01*
X128006486Y-92329031D01*
X127992640Y-92333978D01*
X127988161Y-92337296D01*
X127983008Y-92339431D01*
X127971643Y-92348759D01*
X127876405Y-92443997D01*
X127871686Y-92449746D01*
X127870188Y-92451046D01*
X127868766Y-92453305D01*
X127867078Y-92455362D01*
X127866320Y-92457189D01*
X127862356Y-92463489D01*
X127814737Y-92558727D01*
X127809482Y-92572459D01*
X127809291Y-92575146D01*
X127808260Y-92577636D01*
X127806819Y-92592268D01*
X127695708Y-92592268D01*
X127695708Y-91497030D01*
X127806819Y-91497030D01*
X127806819Y-92068458D01*
X127808260Y-92083090D01*
X127819459Y-92110126D01*
X127840151Y-92130818D01*
X127867187Y-92142017D01*
X127896451Y-92142017D01*
X127923487Y-92130818D01*
X127944179Y-92110126D01*
X127955378Y-92083090D01*
X127956819Y-92068458D01*
X127956819Y-91857744D01*
X128881819Y-91857744D01*
X128896451Y-91856303D01*
X128923487Y-91845104D01*
X128944179Y-91824412D01*
X128955378Y-91797376D01*
X128955378Y-91768112D01*
X128944179Y-91741076D01*
X128923487Y-91720384D01*
X128896451Y-91709185D01*
X128881819Y-91707744D01*
X127956819Y-91707744D01*
X127956819Y-91497030D01*
X127955378Y-91482398D01*
X127944179Y-91455362D01*
X127923487Y-91434670D01*
X127896451Y-91423471D01*
X127867187Y-91423471D01*
X127840151Y-91434670D01*
X127819459Y-91455362D01*
X127808260Y-91482398D01*
X127806819Y-91497030D01*
X127695708Y-91497030D01*
X127695708Y-90639887D01*
X128902057Y-90639887D01*
X128902057Y-91401792D01*
X128903498Y-91416424D01*
X128914697Y-91443460D01*
X128935389Y-91464152D01*
X128962425Y-91475351D01*
X128991689Y-91475351D01*
X129018725Y-91464152D01*
X129039417Y-91443460D01*
X129050616Y-91416424D01*
X129052057Y-91401792D01*
X129052057Y-90639887D01*
X129050616Y-90625255D01*
X129039417Y-90598219D01*
X129018725Y-90577527D01*
X128991689Y-90566328D01*
X128962425Y-90566328D01*
X128935389Y-90577527D01*
X128914697Y-90598219D01*
X128903498Y-90625255D01*
X128902057Y-90639887D01*
X127695708Y-90639887D01*
X127695708Y-90163775D01*
X127806819Y-90163775D01*
X127808260Y-90170979D01*
X127808260Y-90178328D01*
X127811101Y-90185188D01*
X127812558Y-90192469D01*
X127816646Y-90198574D01*
X127819459Y-90205364D01*
X127824709Y-90210614D01*
X127828841Y-90216784D01*
X127840099Y-90226004D01*
X127840151Y-90226056D01*
X127840173Y-90226065D01*
X127840216Y-90226100D01*
X127976894Y-90317218D01*
X128058275Y-90398599D01*
X128100451Y-90482951D01*
X128108283Y-90495394D01*
X128130391Y-90514567D01*
X128158152Y-90523821D01*
X128187342Y-90521747D01*
X128213517Y-90508659D01*
X128232690Y-90486552D01*
X128241944Y-90458790D01*
X128239870Y-90429600D01*
X128234615Y-90415869D01*
X128186996Y-90320631D01*
X128183033Y-90314336D01*
X128182275Y-90312504D01*
X128180583Y-90310442D01*
X128179164Y-90308188D01*
X128177667Y-90306889D01*
X128172947Y-90301139D01*
X128110504Y-90238696D01*
X128806819Y-90238696D01*
X128806819Y-90449410D01*
X128808260Y-90464042D01*
X128819459Y-90491078D01*
X128840151Y-90511770D01*
X128867187Y-90522969D01*
X128896451Y-90522969D01*
X128923487Y-90511770D01*
X128944179Y-90491078D01*
X128955378Y-90464042D01*
X128956819Y-90449410D01*
X128956819Y-89877982D01*
X128955378Y-89863350D01*
X128944179Y-89836314D01*
X128923487Y-89815622D01*
X128896451Y-89804423D01*
X128867187Y-89804423D01*
X128840151Y-89815622D01*
X128819459Y-89836314D01*
X128808260Y-89863350D01*
X128806819Y-89877982D01*
X128806819Y-90088696D01*
X127881819Y-90088696D01*
X127881766Y-90088701D01*
X127881740Y-90088696D01*
X127881663Y-90088711D01*
X127867187Y-90090137D01*
X127860326Y-90092978D01*
X127853046Y-90094435D01*
X127846940Y-90098523D01*
X127840151Y-90101336D01*
X127834900Y-90106586D01*
X127828731Y-90110718D01*
X127824654Y-90116832D01*
X127819459Y-90122028D01*
X127816617Y-90128888D01*
X127812498Y-90135067D01*
X127811072Y-90142275D01*
X127808260Y-90149064D01*
X127808260Y-90156490D01*
X127806819Y-90163775D01*
X127695708Y-90163775D01*
X127695708Y-89693312D01*
X129163168Y-89693312D01*
X129163168Y-94159331D01*
G37*
X136513333Y-67784819D02*
X136180000Y-67308628D01*
X135941905Y-67784819D02*
X135941905Y-66784819D01*
X135941905Y-66784819D02*
X136322857Y-66784819D01*
X136322857Y-66784819D02*
X136418095Y-66832438D01*
X136418095Y-66832438D02*
X136465714Y-66880057D01*
X136465714Y-66880057D02*
X136513333Y-66975295D01*
X136513333Y-66975295D02*
X136513333Y-67118152D01*
X136513333Y-67118152D02*
X136465714Y-67213390D01*
X136465714Y-67213390D02*
X136418095Y-67261009D01*
X136418095Y-67261009D02*
X136322857Y-67308628D01*
X136322857Y-67308628D02*
X135941905Y-67308628D01*
X136989524Y-67784819D02*
X137180000Y-67784819D01*
X137180000Y-67784819D02*
X137275238Y-67737200D01*
X137275238Y-67737200D02*
X137322857Y-67689580D01*
X137322857Y-67689580D02*
X137418095Y-67546723D01*
X137418095Y-67546723D02*
X137465714Y-67356247D01*
X137465714Y-67356247D02*
X137465714Y-66975295D01*
X137465714Y-66975295D02*
X137418095Y-66880057D01*
X137418095Y-66880057D02*
X137370476Y-66832438D01*
X137370476Y-66832438D02*
X137275238Y-66784819D01*
X137275238Y-66784819D02*
X137084762Y-66784819D01*
X137084762Y-66784819D02*
X136989524Y-66832438D01*
X136989524Y-66832438D02*
X136941905Y-66880057D01*
X136941905Y-66880057D02*
X136894286Y-66975295D01*
X136894286Y-66975295D02*
X136894286Y-67213390D01*
X136894286Y-67213390D02*
X136941905Y-67308628D01*
X136941905Y-67308628D02*
X136989524Y-67356247D01*
X136989524Y-67356247D02*
X137084762Y-67403866D01*
X137084762Y-67403866D02*
X137275238Y-67403866D01*
X137275238Y-67403866D02*
X137370476Y-67356247D01*
X137370476Y-67356247D02*
X137418095Y-67308628D01*
X137418095Y-67308628D02*
X137465714Y-67213390D01*
X127487142Y-67714819D02*
X127153809Y-67238628D01*
X126915714Y-67714819D02*
X126915714Y-66714819D01*
X126915714Y-66714819D02*
X127296666Y-66714819D01*
X127296666Y-66714819D02*
X127391904Y-66762438D01*
X127391904Y-66762438D02*
X127439523Y-66810057D01*
X127439523Y-66810057D02*
X127487142Y-66905295D01*
X127487142Y-66905295D02*
X127487142Y-67048152D01*
X127487142Y-67048152D02*
X127439523Y-67143390D01*
X127439523Y-67143390D02*
X127391904Y-67191009D01*
X127391904Y-67191009D02*
X127296666Y-67238628D01*
X127296666Y-67238628D02*
X126915714Y-67238628D01*
X128439523Y-67714819D02*
X127868095Y-67714819D01*
X128153809Y-67714819D02*
X128153809Y-66714819D01*
X128153809Y-66714819D02*
X128058571Y-66857676D01*
X128058571Y-66857676D02*
X127963333Y-66952914D01*
X127963333Y-66952914D02*
X127868095Y-67000533D01*
X128772857Y-66714819D02*
X129391904Y-66714819D01*
X129391904Y-66714819D02*
X129058571Y-67095771D01*
X129058571Y-67095771D02*
X129201428Y-67095771D01*
X129201428Y-67095771D02*
X129296666Y-67143390D01*
X129296666Y-67143390D02*
X129344285Y-67191009D01*
X129344285Y-67191009D02*
X129391904Y-67286247D01*
X129391904Y-67286247D02*
X129391904Y-67524342D01*
X129391904Y-67524342D02*
X129344285Y-67619580D01*
X129344285Y-67619580D02*
X129296666Y-67667200D01*
X129296666Y-67667200D02*
X129201428Y-67714819D01*
X129201428Y-67714819D02*
X128915714Y-67714819D01*
X128915714Y-67714819D02*
X128820476Y-67667200D01*
X128820476Y-67667200D02*
X128772857Y-67619580D01*
X127321650Y-54692988D02*
X126988317Y-54216797D01*
X126750222Y-54692988D02*
X126750222Y-53692988D01*
X126750222Y-53692988D02*
X127131174Y-53692988D01*
X127131174Y-53692988D02*
X127226412Y-53740607D01*
X127226412Y-53740607D02*
X127274031Y-53788226D01*
X127274031Y-53788226D02*
X127321650Y-53883464D01*
X127321650Y-53883464D02*
X127321650Y-54026321D01*
X127321650Y-54026321D02*
X127274031Y-54121559D01*
X127274031Y-54121559D02*
X127226412Y-54169178D01*
X127226412Y-54169178D02*
X127131174Y-54216797D01*
X127131174Y-54216797D02*
X126750222Y-54216797D01*
X128274031Y-54692988D02*
X127702603Y-54692988D01*
X127988317Y-54692988D02*
X127988317Y-53692988D01*
X127988317Y-53692988D02*
X127893079Y-53835845D01*
X127893079Y-53835845D02*
X127797841Y-53931083D01*
X127797841Y-53931083D02*
X127702603Y-53978702D01*
X129131174Y-54026321D02*
X129131174Y-54692988D01*
X128893079Y-53645369D02*
X128654984Y-54359654D01*
X128654984Y-54359654D02*
X129274031Y-54359654D01*
X119647142Y-54764819D02*
X119313809Y-54288628D01*
X119075714Y-54764819D02*
X119075714Y-53764819D01*
X119075714Y-53764819D02*
X119456666Y-53764819D01*
X119456666Y-53764819D02*
X119551904Y-53812438D01*
X119551904Y-53812438D02*
X119599523Y-53860057D01*
X119599523Y-53860057D02*
X119647142Y-53955295D01*
X119647142Y-53955295D02*
X119647142Y-54098152D01*
X119647142Y-54098152D02*
X119599523Y-54193390D01*
X119599523Y-54193390D02*
X119551904Y-54241009D01*
X119551904Y-54241009D02*
X119456666Y-54288628D01*
X119456666Y-54288628D02*
X119075714Y-54288628D01*
X120599523Y-54764819D02*
X120028095Y-54764819D01*
X120313809Y-54764819D02*
X120313809Y-53764819D01*
X120313809Y-53764819D02*
X120218571Y-53907676D01*
X120218571Y-53907676D02*
X120123333Y-54002914D01*
X120123333Y-54002914D02*
X120028095Y-54050533D01*
X121170952Y-54193390D02*
X121075714Y-54145771D01*
X121075714Y-54145771D02*
X121028095Y-54098152D01*
X121028095Y-54098152D02*
X120980476Y-54002914D01*
X120980476Y-54002914D02*
X120980476Y-53955295D01*
X120980476Y-53955295D02*
X121028095Y-53860057D01*
X121028095Y-53860057D02*
X121075714Y-53812438D01*
X121075714Y-53812438D02*
X121170952Y-53764819D01*
X121170952Y-53764819D02*
X121361428Y-53764819D01*
X121361428Y-53764819D02*
X121456666Y-53812438D01*
X121456666Y-53812438D02*
X121504285Y-53860057D01*
X121504285Y-53860057D02*
X121551904Y-53955295D01*
X121551904Y-53955295D02*
X121551904Y-54002914D01*
X121551904Y-54002914D02*
X121504285Y-54098152D01*
X121504285Y-54098152D02*
X121456666Y-54145771D01*
X121456666Y-54145771D02*
X121361428Y-54193390D01*
X121361428Y-54193390D02*
X121170952Y-54193390D01*
X121170952Y-54193390D02*
X121075714Y-54241009D01*
X121075714Y-54241009D02*
X121028095Y-54288628D01*
X121028095Y-54288628D02*
X120980476Y-54383866D01*
X120980476Y-54383866D02*
X120980476Y-54574342D01*
X120980476Y-54574342D02*
X121028095Y-54669580D01*
X121028095Y-54669580D02*
X121075714Y-54717200D01*
X121075714Y-54717200D02*
X121170952Y-54764819D01*
X121170952Y-54764819D02*
X121361428Y-54764819D01*
X121361428Y-54764819D02*
X121456666Y-54717200D01*
X121456666Y-54717200D02*
X121504285Y-54669580D01*
X121504285Y-54669580D02*
X121551904Y-54574342D01*
X121551904Y-54574342D02*
X121551904Y-54383866D01*
X121551904Y-54383866D02*
X121504285Y-54288628D01*
X121504285Y-54288628D02*
X121456666Y-54241009D01*
X121456666Y-54241009D02*
X121361428Y-54193390D01*
X148183333Y-54764819D02*
X147850000Y-54288628D01*
X147611905Y-54764819D02*
X147611905Y-53764819D01*
X147611905Y-53764819D02*
X147992857Y-53764819D01*
X147992857Y-53764819D02*
X148088095Y-53812438D01*
X148088095Y-53812438D02*
X148135714Y-53860057D01*
X148135714Y-53860057D02*
X148183333Y-53955295D01*
X148183333Y-53955295D02*
X148183333Y-54098152D01*
X148183333Y-54098152D02*
X148135714Y-54193390D01*
X148135714Y-54193390D02*
X148088095Y-54241009D01*
X148088095Y-54241009D02*
X147992857Y-54288628D01*
X147992857Y-54288628D02*
X147611905Y-54288628D01*
X149040476Y-54098152D02*
X149040476Y-54764819D01*
X148802381Y-53717200D02*
X148564286Y-54431485D01*
X148564286Y-54431485D02*
X149183333Y-54431485D01*
X123427142Y-67784819D02*
X123093809Y-67308628D01*
X122855714Y-67784819D02*
X122855714Y-66784819D01*
X122855714Y-66784819D02*
X123236666Y-66784819D01*
X123236666Y-66784819D02*
X123331904Y-66832438D01*
X123331904Y-66832438D02*
X123379523Y-66880057D01*
X123379523Y-66880057D02*
X123427142Y-66975295D01*
X123427142Y-66975295D02*
X123427142Y-67118152D01*
X123427142Y-67118152D02*
X123379523Y-67213390D01*
X123379523Y-67213390D02*
X123331904Y-67261009D01*
X123331904Y-67261009D02*
X123236666Y-67308628D01*
X123236666Y-67308628D02*
X122855714Y-67308628D01*
X124379523Y-67784819D02*
X123808095Y-67784819D01*
X124093809Y-67784819D02*
X124093809Y-66784819D01*
X124093809Y-66784819D02*
X123998571Y-66927676D01*
X123998571Y-66927676D02*
X123903333Y-67022914D01*
X123903333Y-67022914D02*
X123808095Y-67070533D01*
X125284285Y-66784819D02*
X124808095Y-66784819D01*
X124808095Y-66784819D02*
X124760476Y-67261009D01*
X124760476Y-67261009D02*
X124808095Y-67213390D01*
X124808095Y-67213390D02*
X124903333Y-67165771D01*
X124903333Y-67165771D02*
X125141428Y-67165771D01*
X125141428Y-67165771D02*
X125236666Y-67213390D01*
X125236666Y-67213390D02*
X125284285Y-67261009D01*
X125284285Y-67261009D02*
X125331904Y-67356247D01*
X125331904Y-67356247D02*
X125331904Y-67594342D01*
X125331904Y-67594342D02*
X125284285Y-67689580D01*
X125284285Y-67689580D02*
X125236666Y-67737200D01*
X125236666Y-67737200D02*
X125141428Y-67784819D01*
X125141428Y-67784819D02*
X124903333Y-67784819D01*
X124903333Y-67784819D02*
X124808095Y-67737200D01*
X124808095Y-67737200D02*
X124760476Y-67689580D01*
X115517142Y-67874819D02*
X115183809Y-67398628D01*
X114945714Y-67874819D02*
X114945714Y-66874819D01*
X114945714Y-66874819D02*
X115326666Y-66874819D01*
X115326666Y-66874819D02*
X115421904Y-66922438D01*
X115421904Y-66922438D02*
X115469523Y-66970057D01*
X115469523Y-66970057D02*
X115517142Y-67065295D01*
X115517142Y-67065295D02*
X115517142Y-67208152D01*
X115517142Y-67208152D02*
X115469523Y-67303390D01*
X115469523Y-67303390D02*
X115421904Y-67351009D01*
X115421904Y-67351009D02*
X115326666Y-67398628D01*
X115326666Y-67398628D02*
X114945714Y-67398628D01*
X116469523Y-67874819D02*
X115898095Y-67874819D01*
X116183809Y-67874819D02*
X116183809Y-66874819D01*
X116183809Y-66874819D02*
X116088571Y-67017676D01*
X116088571Y-67017676D02*
X115993333Y-67112914D01*
X115993333Y-67112914D02*
X115898095Y-67160533D01*
X116945714Y-67874819D02*
X117136190Y-67874819D01*
X117136190Y-67874819D02*
X117231428Y-67827200D01*
X117231428Y-67827200D02*
X117279047Y-67779580D01*
X117279047Y-67779580D02*
X117374285Y-67636723D01*
X117374285Y-67636723D02*
X117421904Y-67446247D01*
X117421904Y-67446247D02*
X117421904Y-67065295D01*
X117421904Y-67065295D02*
X117374285Y-66970057D01*
X117374285Y-66970057D02*
X117326666Y-66922438D01*
X117326666Y-66922438D02*
X117231428Y-66874819D01*
X117231428Y-66874819D02*
X117040952Y-66874819D01*
X117040952Y-66874819D02*
X116945714Y-66922438D01*
X116945714Y-66922438D02*
X116898095Y-66970057D01*
X116898095Y-66970057D02*
X116850476Y-67065295D01*
X116850476Y-67065295D02*
X116850476Y-67303390D01*
X116850476Y-67303390D02*
X116898095Y-67398628D01*
X116898095Y-67398628D02*
X116945714Y-67446247D01*
X116945714Y-67446247D02*
X117040952Y-67493866D01*
X117040952Y-67493866D02*
X117231428Y-67493866D01*
X117231428Y-67493866D02*
X117326666Y-67446247D01*
X117326666Y-67446247D02*
X117374285Y-67398628D01*
X117374285Y-67398628D02*
X117421904Y-67303390D01*
X129723333Y-72149580D02*
X129675714Y-72197200D01*
X129675714Y-72197200D02*
X129532857Y-72244819D01*
X129532857Y-72244819D02*
X129437619Y-72244819D01*
X129437619Y-72244819D02*
X129294762Y-72197200D01*
X129294762Y-72197200D02*
X129199524Y-72101961D01*
X129199524Y-72101961D02*
X129151905Y-72006723D01*
X129151905Y-72006723D02*
X129104286Y-71816247D01*
X129104286Y-71816247D02*
X129104286Y-71673390D01*
X129104286Y-71673390D02*
X129151905Y-71482914D01*
X129151905Y-71482914D02*
X129199524Y-71387676D01*
X129199524Y-71387676D02*
X129294762Y-71292438D01*
X129294762Y-71292438D02*
X129437619Y-71244819D01*
X129437619Y-71244819D02*
X129532857Y-71244819D01*
X129532857Y-71244819D02*
X129675714Y-71292438D01*
X129675714Y-71292438D02*
X129723333Y-71340057D01*
X130104286Y-71340057D02*
X130151905Y-71292438D01*
X130151905Y-71292438D02*
X130247143Y-71244819D01*
X130247143Y-71244819D02*
X130485238Y-71244819D01*
X130485238Y-71244819D02*
X130580476Y-71292438D01*
X130580476Y-71292438D02*
X130628095Y-71340057D01*
X130628095Y-71340057D02*
X130675714Y-71435295D01*
X130675714Y-71435295D02*
X130675714Y-71530533D01*
X130675714Y-71530533D02*
X130628095Y-71673390D01*
X130628095Y-71673390D02*
X130056667Y-72244819D01*
X130056667Y-72244819D02*
X130675714Y-72244819D01*
X140363333Y-67784819D02*
X140030000Y-67308628D01*
X139791905Y-67784819D02*
X139791905Y-66784819D01*
X139791905Y-66784819D02*
X140172857Y-66784819D01*
X140172857Y-66784819D02*
X140268095Y-66832438D01*
X140268095Y-66832438D02*
X140315714Y-66880057D01*
X140315714Y-66880057D02*
X140363333Y-66975295D01*
X140363333Y-66975295D02*
X140363333Y-67118152D01*
X140363333Y-67118152D02*
X140315714Y-67213390D01*
X140315714Y-67213390D02*
X140268095Y-67261009D01*
X140268095Y-67261009D02*
X140172857Y-67308628D01*
X140172857Y-67308628D02*
X139791905Y-67308628D01*
X140696667Y-66784819D02*
X141363333Y-66784819D01*
X141363333Y-66784819D02*
X140934762Y-67784819D01*
X111547142Y-67874819D02*
X111213809Y-67398628D01*
X110975714Y-67874819D02*
X110975714Y-66874819D01*
X110975714Y-66874819D02*
X111356666Y-66874819D01*
X111356666Y-66874819D02*
X111451904Y-66922438D01*
X111451904Y-66922438D02*
X111499523Y-66970057D01*
X111499523Y-66970057D02*
X111547142Y-67065295D01*
X111547142Y-67065295D02*
X111547142Y-67208152D01*
X111547142Y-67208152D02*
X111499523Y-67303390D01*
X111499523Y-67303390D02*
X111451904Y-67351009D01*
X111451904Y-67351009D02*
X111356666Y-67398628D01*
X111356666Y-67398628D02*
X110975714Y-67398628D01*
X111928095Y-66970057D02*
X111975714Y-66922438D01*
X111975714Y-66922438D02*
X112070952Y-66874819D01*
X112070952Y-66874819D02*
X112309047Y-66874819D01*
X112309047Y-66874819D02*
X112404285Y-66922438D01*
X112404285Y-66922438D02*
X112451904Y-66970057D01*
X112451904Y-66970057D02*
X112499523Y-67065295D01*
X112499523Y-67065295D02*
X112499523Y-67160533D01*
X112499523Y-67160533D02*
X112451904Y-67303390D01*
X112451904Y-67303390D02*
X111880476Y-67874819D01*
X111880476Y-67874819D02*
X112499523Y-67874819D01*
X113451904Y-67874819D02*
X112880476Y-67874819D01*
X113166190Y-67874819D02*
X113166190Y-66874819D01*
X113166190Y-66874819D02*
X113070952Y-67017676D01*
X113070952Y-67017676D02*
X112975714Y-67112914D01*
X112975714Y-67112914D02*
X112880476Y-67160533D01*
X159126667Y-64207200D02*
X159269524Y-64254819D01*
X159269524Y-64254819D02*
X159507619Y-64254819D01*
X159507619Y-64254819D02*
X159602857Y-64207200D01*
X159602857Y-64207200D02*
X159650476Y-64159580D01*
X159650476Y-64159580D02*
X159698095Y-64064342D01*
X159698095Y-64064342D02*
X159698095Y-63969104D01*
X159698095Y-63969104D02*
X159650476Y-63873866D01*
X159650476Y-63873866D02*
X159602857Y-63826247D01*
X159602857Y-63826247D02*
X159507619Y-63778628D01*
X159507619Y-63778628D02*
X159317143Y-63731009D01*
X159317143Y-63731009D02*
X159221905Y-63683390D01*
X159221905Y-63683390D02*
X159174286Y-63635771D01*
X159174286Y-63635771D02*
X159126667Y-63540533D01*
X159126667Y-63540533D02*
X159126667Y-63445295D01*
X159126667Y-63445295D02*
X159174286Y-63350057D01*
X159174286Y-63350057D02*
X159221905Y-63302438D01*
X159221905Y-63302438D02*
X159317143Y-63254819D01*
X159317143Y-63254819D02*
X159555238Y-63254819D01*
X159555238Y-63254819D02*
X159698095Y-63302438D01*
X160031429Y-63254819D02*
X160269524Y-64254819D01*
X160269524Y-64254819D02*
X160460000Y-63540533D01*
X160460000Y-63540533D02*
X160650476Y-64254819D01*
X160650476Y-64254819D02*
X160888572Y-63254819D01*
X161221905Y-63350057D02*
X161269524Y-63302438D01*
X161269524Y-63302438D02*
X161364762Y-63254819D01*
X161364762Y-63254819D02*
X161602857Y-63254819D01*
X161602857Y-63254819D02*
X161698095Y-63302438D01*
X161698095Y-63302438D02*
X161745714Y-63350057D01*
X161745714Y-63350057D02*
X161793333Y-63445295D01*
X161793333Y-63445295D02*
X161793333Y-63540533D01*
X161793333Y-63540533D02*
X161745714Y-63683390D01*
X161745714Y-63683390D02*
X161174286Y-64254819D01*
X161174286Y-64254819D02*
X161793333Y-64254819D01*
X115537142Y-54684819D02*
X115203809Y-54208628D01*
X114965714Y-54684819D02*
X114965714Y-53684819D01*
X114965714Y-53684819D02*
X115346666Y-53684819D01*
X115346666Y-53684819D02*
X115441904Y-53732438D01*
X115441904Y-53732438D02*
X115489523Y-53780057D01*
X115489523Y-53780057D02*
X115537142Y-53875295D01*
X115537142Y-53875295D02*
X115537142Y-54018152D01*
X115537142Y-54018152D02*
X115489523Y-54113390D01*
X115489523Y-54113390D02*
X115441904Y-54161009D01*
X115441904Y-54161009D02*
X115346666Y-54208628D01*
X115346666Y-54208628D02*
X114965714Y-54208628D01*
X115918095Y-53780057D02*
X115965714Y-53732438D01*
X115965714Y-53732438D02*
X116060952Y-53684819D01*
X116060952Y-53684819D02*
X116299047Y-53684819D01*
X116299047Y-53684819D02*
X116394285Y-53732438D01*
X116394285Y-53732438D02*
X116441904Y-53780057D01*
X116441904Y-53780057D02*
X116489523Y-53875295D01*
X116489523Y-53875295D02*
X116489523Y-53970533D01*
X116489523Y-53970533D02*
X116441904Y-54113390D01*
X116441904Y-54113390D02*
X115870476Y-54684819D01*
X115870476Y-54684819D02*
X116489523Y-54684819D01*
X117108571Y-53684819D02*
X117203809Y-53684819D01*
X117203809Y-53684819D02*
X117299047Y-53732438D01*
X117299047Y-53732438D02*
X117346666Y-53780057D01*
X117346666Y-53780057D02*
X117394285Y-53875295D01*
X117394285Y-53875295D02*
X117441904Y-54065771D01*
X117441904Y-54065771D02*
X117441904Y-54303866D01*
X117441904Y-54303866D02*
X117394285Y-54494342D01*
X117394285Y-54494342D02*
X117346666Y-54589580D01*
X117346666Y-54589580D02*
X117299047Y-54637200D01*
X117299047Y-54637200D02*
X117203809Y-54684819D01*
X117203809Y-54684819D02*
X117108571Y-54684819D01*
X117108571Y-54684819D02*
X117013333Y-54637200D01*
X117013333Y-54637200D02*
X116965714Y-54589580D01*
X116965714Y-54589580D02*
X116918095Y-54494342D01*
X116918095Y-54494342D02*
X116870476Y-54303866D01*
X116870476Y-54303866D02*
X116870476Y-54065771D01*
X116870476Y-54065771D02*
X116918095Y-53875295D01*
X116918095Y-53875295D02*
X116965714Y-53780057D01*
X116965714Y-53780057D02*
X117013333Y-53732438D01*
X117013333Y-53732438D02*
X117108571Y-53684819D01*
X144143333Y-54834819D02*
X143810000Y-54358628D01*
X143571905Y-54834819D02*
X143571905Y-53834819D01*
X143571905Y-53834819D02*
X143952857Y-53834819D01*
X143952857Y-53834819D02*
X144048095Y-53882438D01*
X144048095Y-53882438D02*
X144095714Y-53930057D01*
X144095714Y-53930057D02*
X144143333Y-54025295D01*
X144143333Y-54025295D02*
X144143333Y-54168152D01*
X144143333Y-54168152D02*
X144095714Y-54263390D01*
X144095714Y-54263390D02*
X144048095Y-54311009D01*
X144048095Y-54311009D02*
X143952857Y-54358628D01*
X143952857Y-54358628D02*
X143571905Y-54358628D01*
X145000476Y-53834819D02*
X144810000Y-53834819D01*
X144810000Y-53834819D02*
X144714762Y-53882438D01*
X144714762Y-53882438D02*
X144667143Y-53930057D01*
X144667143Y-53930057D02*
X144571905Y-54072914D01*
X144571905Y-54072914D02*
X144524286Y-54263390D01*
X144524286Y-54263390D02*
X144524286Y-54644342D01*
X144524286Y-54644342D02*
X144571905Y-54739580D01*
X144571905Y-54739580D02*
X144619524Y-54787200D01*
X144619524Y-54787200D02*
X144714762Y-54834819D01*
X144714762Y-54834819D02*
X144905238Y-54834819D01*
X144905238Y-54834819D02*
X145000476Y-54787200D01*
X145000476Y-54787200D02*
X145048095Y-54739580D01*
X145048095Y-54739580D02*
X145095714Y-54644342D01*
X145095714Y-54644342D02*
X145095714Y-54406247D01*
X145095714Y-54406247D02*
X145048095Y-54311009D01*
X145048095Y-54311009D02*
X145000476Y-54263390D01*
X145000476Y-54263390D02*
X144905238Y-54215771D01*
X144905238Y-54215771D02*
X144714762Y-54215771D01*
X144714762Y-54215771D02*
X144619524Y-54263390D01*
X144619524Y-54263390D02*
X144571905Y-54311009D01*
X144571905Y-54311009D02*
X144524286Y-54406247D01*
X152976666Y-68994819D02*
X152976666Y-69709104D01*
X152976666Y-69709104D02*
X152929047Y-69851961D01*
X152929047Y-69851961D02*
X152833809Y-69947200D01*
X152833809Y-69947200D02*
X152690952Y-69994819D01*
X152690952Y-69994819D02*
X152595714Y-69994819D01*
X153357619Y-68994819D02*
X154024285Y-68994819D01*
X154024285Y-68994819D02*
X153595714Y-69994819D01*
X135857142Y-54674819D02*
X135523809Y-54198628D01*
X135285714Y-54674819D02*
X135285714Y-53674819D01*
X135285714Y-53674819D02*
X135666666Y-53674819D01*
X135666666Y-53674819D02*
X135761904Y-53722438D01*
X135761904Y-53722438D02*
X135809523Y-53770057D01*
X135809523Y-53770057D02*
X135857142Y-53865295D01*
X135857142Y-53865295D02*
X135857142Y-54008152D01*
X135857142Y-54008152D02*
X135809523Y-54103390D01*
X135809523Y-54103390D02*
X135761904Y-54151009D01*
X135761904Y-54151009D02*
X135666666Y-54198628D01*
X135666666Y-54198628D02*
X135285714Y-54198628D01*
X136809523Y-54674819D02*
X136238095Y-54674819D01*
X136523809Y-54674819D02*
X136523809Y-53674819D01*
X136523809Y-53674819D02*
X136428571Y-53817676D01*
X136428571Y-53817676D02*
X136333333Y-53912914D01*
X136333333Y-53912914D02*
X136238095Y-53960533D01*
X137428571Y-53674819D02*
X137523809Y-53674819D01*
X137523809Y-53674819D02*
X137619047Y-53722438D01*
X137619047Y-53722438D02*
X137666666Y-53770057D01*
X137666666Y-53770057D02*
X137714285Y-53865295D01*
X137714285Y-53865295D02*
X137761904Y-54055771D01*
X137761904Y-54055771D02*
X137761904Y-54293866D01*
X137761904Y-54293866D02*
X137714285Y-54484342D01*
X137714285Y-54484342D02*
X137666666Y-54579580D01*
X137666666Y-54579580D02*
X137619047Y-54627200D01*
X137619047Y-54627200D02*
X137523809Y-54674819D01*
X137523809Y-54674819D02*
X137428571Y-54674819D01*
X137428571Y-54674819D02*
X137333333Y-54627200D01*
X137333333Y-54627200D02*
X137285714Y-54579580D01*
X137285714Y-54579580D02*
X137238095Y-54484342D01*
X137238095Y-54484342D02*
X137190476Y-54293866D01*
X137190476Y-54293866D02*
X137190476Y-54055771D01*
X137190476Y-54055771D02*
X137238095Y-53865295D01*
X137238095Y-53865295D02*
X137285714Y-53770057D01*
X137285714Y-53770057D02*
X137333333Y-53722438D01*
X137333333Y-53722438D02*
X137428571Y-53674819D01*
X107148666Y-64234819D02*
X107148666Y-64949104D01*
X107148666Y-64949104D02*
X107101047Y-65091961D01*
X107101047Y-65091961D02*
X107005809Y-65187200D01*
X107005809Y-65187200D02*
X106862952Y-65234819D01*
X106862952Y-65234819D02*
X106767714Y-65234819D01*
X108101047Y-64234819D02*
X107624857Y-64234819D01*
X107624857Y-64234819D02*
X107577238Y-64711009D01*
X107577238Y-64711009D02*
X107624857Y-64663390D01*
X107624857Y-64663390D02*
X107720095Y-64615771D01*
X107720095Y-64615771D02*
X107958190Y-64615771D01*
X107958190Y-64615771D02*
X108053428Y-64663390D01*
X108053428Y-64663390D02*
X108101047Y-64711009D01*
X108101047Y-64711009D02*
X108148666Y-64806247D01*
X108148666Y-64806247D02*
X108148666Y-65044342D01*
X108148666Y-65044342D02*
X108101047Y-65139580D01*
X108101047Y-65139580D02*
X108053428Y-65187200D01*
X108053428Y-65187200D02*
X107958190Y-65234819D01*
X107958190Y-65234819D02*
X107720095Y-65234819D01*
X107720095Y-65234819D02*
X107624857Y-65187200D01*
X107624857Y-65187200D02*
X107577238Y-65139580D01*
X116784819Y-91432857D02*
X116308628Y-91766190D01*
X116784819Y-92004285D02*
X115784819Y-92004285D01*
X115784819Y-92004285D02*
X115784819Y-91623333D01*
X115784819Y-91623333D02*
X115832438Y-91528095D01*
X115832438Y-91528095D02*
X115880057Y-91480476D01*
X115880057Y-91480476D02*
X115975295Y-91432857D01*
X115975295Y-91432857D02*
X116118152Y-91432857D01*
X116118152Y-91432857D02*
X116213390Y-91480476D01*
X116213390Y-91480476D02*
X116261009Y-91528095D01*
X116261009Y-91528095D02*
X116308628Y-91623333D01*
X116308628Y-91623333D02*
X116308628Y-92004285D01*
X115880057Y-91051904D02*
X115832438Y-91004285D01*
X115832438Y-91004285D02*
X115784819Y-90909047D01*
X115784819Y-90909047D02*
X115784819Y-90670952D01*
X115784819Y-90670952D02*
X115832438Y-90575714D01*
X115832438Y-90575714D02*
X115880057Y-90528095D01*
X115880057Y-90528095D02*
X115975295Y-90480476D01*
X115975295Y-90480476D02*
X116070533Y-90480476D01*
X116070533Y-90480476D02*
X116213390Y-90528095D01*
X116213390Y-90528095D02*
X116784819Y-91099523D01*
X116784819Y-91099523D02*
X116784819Y-90480476D01*
X115784819Y-89623333D02*
X115784819Y-89813809D01*
X115784819Y-89813809D02*
X115832438Y-89909047D01*
X115832438Y-89909047D02*
X115880057Y-89956666D01*
X115880057Y-89956666D02*
X116022914Y-90051904D01*
X116022914Y-90051904D02*
X116213390Y-90099523D01*
X116213390Y-90099523D02*
X116594342Y-90099523D01*
X116594342Y-90099523D02*
X116689580Y-90051904D01*
X116689580Y-90051904D02*
X116737200Y-90004285D01*
X116737200Y-90004285D02*
X116784819Y-89909047D01*
X116784819Y-89909047D02*
X116784819Y-89718571D01*
X116784819Y-89718571D02*
X116737200Y-89623333D01*
X116737200Y-89623333D02*
X116689580Y-89575714D01*
X116689580Y-89575714D02*
X116594342Y-89528095D01*
X116594342Y-89528095D02*
X116356247Y-89528095D01*
X116356247Y-89528095D02*
X116261009Y-89575714D01*
X116261009Y-89575714D02*
X116213390Y-89623333D01*
X116213390Y-89623333D02*
X116165771Y-89718571D01*
X116165771Y-89718571D02*
X116165771Y-89909047D01*
X116165771Y-89909047D02*
X116213390Y-90004285D01*
X116213390Y-90004285D02*
X116261009Y-90051904D01*
X116261009Y-90051904D02*
X116356247Y-90099523D01*
X161144819Y-75329523D02*
X161859104Y-75329523D01*
X161859104Y-75329523D02*
X162001961Y-75377142D01*
X162001961Y-75377142D02*
X162097200Y-75472380D01*
X162097200Y-75472380D02*
X162144819Y-75615237D01*
X162144819Y-75615237D02*
X162144819Y-75710475D01*
X162144819Y-74329523D02*
X162144819Y-74900951D01*
X162144819Y-74615237D02*
X161144819Y-74615237D01*
X161144819Y-74615237D02*
X161287676Y-74710475D01*
X161287676Y-74710475D02*
X161382914Y-74805713D01*
X161382914Y-74805713D02*
X161430533Y-74900951D01*
X162144819Y-73377142D02*
X162144819Y-73948570D01*
X162144819Y-73662856D02*
X161144819Y-73662856D01*
X161144819Y-73662856D02*
X161287676Y-73758094D01*
X161287676Y-73758094D02*
X161382914Y-73853332D01*
X161382914Y-73853332D02*
X161430533Y-73948570D01*
X144143333Y-67734819D02*
X143810000Y-67258628D01*
X143571905Y-67734819D02*
X143571905Y-66734819D01*
X143571905Y-66734819D02*
X143952857Y-66734819D01*
X143952857Y-66734819D02*
X144048095Y-66782438D01*
X144048095Y-66782438D02*
X144095714Y-66830057D01*
X144095714Y-66830057D02*
X144143333Y-66925295D01*
X144143333Y-66925295D02*
X144143333Y-67068152D01*
X144143333Y-67068152D02*
X144095714Y-67163390D01*
X144095714Y-67163390D02*
X144048095Y-67211009D01*
X144048095Y-67211009D02*
X143952857Y-67258628D01*
X143952857Y-67258628D02*
X143571905Y-67258628D01*
X145048095Y-66734819D02*
X144571905Y-66734819D01*
X144571905Y-66734819D02*
X144524286Y-67211009D01*
X144524286Y-67211009D02*
X144571905Y-67163390D01*
X144571905Y-67163390D02*
X144667143Y-67115771D01*
X144667143Y-67115771D02*
X144905238Y-67115771D01*
X144905238Y-67115771D02*
X145000476Y-67163390D01*
X145000476Y-67163390D02*
X145048095Y-67211009D01*
X145048095Y-67211009D02*
X145095714Y-67306247D01*
X145095714Y-67306247D02*
X145095714Y-67544342D01*
X145095714Y-67544342D02*
X145048095Y-67639580D01*
X145048095Y-67639580D02*
X145000476Y-67687200D01*
X145000476Y-67687200D02*
X144905238Y-67734819D01*
X144905238Y-67734819D02*
X144667143Y-67734819D01*
X144667143Y-67734819D02*
X144571905Y-67687200D01*
X144571905Y-67687200D02*
X144524286Y-67639580D01*
X148362835Y-74387271D02*
X148410455Y-74434890D01*
X148410455Y-74434890D02*
X148458074Y-74577747D01*
X148458074Y-74577747D02*
X148458074Y-74672985D01*
X148458074Y-74672985D02*
X148410455Y-74815842D01*
X148410455Y-74815842D02*
X148315216Y-74911080D01*
X148315216Y-74911080D02*
X148219978Y-74958699D01*
X148219978Y-74958699D02*
X148029502Y-75006318D01*
X148029502Y-75006318D02*
X147886645Y-75006318D01*
X147886645Y-75006318D02*
X147696169Y-74958699D01*
X147696169Y-74958699D02*
X147600931Y-74911080D01*
X147600931Y-74911080D02*
X147505693Y-74815842D01*
X147505693Y-74815842D02*
X147458074Y-74672985D01*
X147458074Y-74672985D02*
X147458074Y-74577747D01*
X147458074Y-74577747D02*
X147505693Y-74434890D01*
X147505693Y-74434890D02*
X147553312Y-74387271D01*
X148458074Y-73434890D02*
X148458074Y-74006318D01*
X148458074Y-73720604D02*
X147458074Y-73720604D01*
X147458074Y-73720604D02*
X147600931Y-73815842D01*
X147600931Y-73815842D02*
X147696169Y-73911080D01*
X147696169Y-73911080D02*
X147743788Y-74006318D01*
X125717142Y-71954819D02*
X125383809Y-71478628D01*
X125145714Y-71954819D02*
X125145714Y-70954819D01*
X125145714Y-70954819D02*
X125526666Y-70954819D01*
X125526666Y-70954819D02*
X125621904Y-71002438D01*
X125621904Y-71002438D02*
X125669523Y-71050057D01*
X125669523Y-71050057D02*
X125717142Y-71145295D01*
X125717142Y-71145295D02*
X125717142Y-71288152D01*
X125717142Y-71288152D02*
X125669523Y-71383390D01*
X125669523Y-71383390D02*
X125621904Y-71431009D01*
X125621904Y-71431009D02*
X125526666Y-71478628D01*
X125526666Y-71478628D02*
X125145714Y-71478628D01*
X126098095Y-71050057D02*
X126145714Y-71002438D01*
X126145714Y-71002438D02*
X126240952Y-70954819D01*
X126240952Y-70954819D02*
X126479047Y-70954819D01*
X126479047Y-70954819D02*
X126574285Y-71002438D01*
X126574285Y-71002438D02*
X126621904Y-71050057D01*
X126621904Y-71050057D02*
X126669523Y-71145295D01*
X126669523Y-71145295D02*
X126669523Y-71240533D01*
X126669523Y-71240533D02*
X126621904Y-71383390D01*
X126621904Y-71383390D02*
X126050476Y-71954819D01*
X126050476Y-71954819D02*
X126669523Y-71954819D01*
X127526666Y-71288152D02*
X127526666Y-71954819D01*
X127288571Y-70907200D02*
X127050476Y-71621485D01*
X127050476Y-71621485D02*
X127669523Y-71621485D01*
X131647142Y-54544819D02*
X131313809Y-54068628D01*
X131075714Y-54544819D02*
X131075714Y-53544819D01*
X131075714Y-53544819D02*
X131456666Y-53544819D01*
X131456666Y-53544819D02*
X131551904Y-53592438D01*
X131551904Y-53592438D02*
X131599523Y-53640057D01*
X131599523Y-53640057D02*
X131647142Y-53735295D01*
X131647142Y-53735295D02*
X131647142Y-53878152D01*
X131647142Y-53878152D02*
X131599523Y-53973390D01*
X131599523Y-53973390D02*
X131551904Y-54021009D01*
X131551904Y-54021009D02*
X131456666Y-54068628D01*
X131456666Y-54068628D02*
X131075714Y-54068628D01*
X132599523Y-54544819D02*
X132028095Y-54544819D01*
X132313809Y-54544819D02*
X132313809Y-53544819D01*
X132313809Y-53544819D02*
X132218571Y-53687676D01*
X132218571Y-53687676D02*
X132123333Y-53782914D01*
X132123333Y-53782914D02*
X132028095Y-53830533D01*
X132980476Y-53640057D02*
X133028095Y-53592438D01*
X133028095Y-53592438D02*
X133123333Y-53544819D01*
X133123333Y-53544819D02*
X133361428Y-53544819D01*
X133361428Y-53544819D02*
X133456666Y-53592438D01*
X133456666Y-53592438D02*
X133504285Y-53640057D01*
X133504285Y-53640057D02*
X133551904Y-53735295D01*
X133551904Y-53735295D02*
X133551904Y-53830533D01*
X133551904Y-53830533D02*
X133504285Y-53973390D01*
X133504285Y-53973390D02*
X132932857Y-54544819D01*
X132932857Y-54544819D02*
X133551904Y-54544819D01*
X159126667Y-56027200D02*
X159269524Y-56074819D01*
X159269524Y-56074819D02*
X159507619Y-56074819D01*
X159507619Y-56074819D02*
X159602857Y-56027200D01*
X159602857Y-56027200D02*
X159650476Y-55979580D01*
X159650476Y-55979580D02*
X159698095Y-55884342D01*
X159698095Y-55884342D02*
X159698095Y-55789104D01*
X159698095Y-55789104D02*
X159650476Y-55693866D01*
X159650476Y-55693866D02*
X159602857Y-55646247D01*
X159602857Y-55646247D02*
X159507619Y-55598628D01*
X159507619Y-55598628D02*
X159317143Y-55551009D01*
X159317143Y-55551009D02*
X159221905Y-55503390D01*
X159221905Y-55503390D02*
X159174286Y-55455771D01*
X159174286Y-55455771D02*
X159126667Y-55360533D01*
X159126667Y-55360533D02*
X159126667Y-55265295D01*
X159126667Y-55265295D02*
X159174286Y-55170057D01*
X159174286Y-55170057D02*
X159221905Y-55122438D01*
X159221905Y-55122438D02*
X159317143Y-55074819D01*
X159317143Y-55074819D02*
X159555238Y-55074819D01*
X159555238Y-55074819D02*
X159698095Y-55122438D01*
X160031429Y-55074819D02*
X160269524Y-56074819D01*
X160269524Y-56074819D02*
X160460000Y-55360533D01*
X160460000Y-55360533D02*
X160650476Y-56074819D01*
X160650476Y-56074819D02*
X160888572Y-55074819D01*
X161793333Y-56074819D02*
X161221905Y-56074819D01*
X161507619Y-56074819D02*
X161507619Y-55074819D01*
X161507619Y-55074819D02*
X161412381Y-55217676D01*
X161412381Y-55217676D02*
X161317143Y-55312914D01*
X161317143Y-55312914D02*
X161221905Y-55360533D01*
X131627142Y-67674819D02*
X131293809Y-67198628D01*
X131055714Y-67674819D02*
X131055714Y-66674819D01*
X131055714Y-66674819D02*
X131436666Y-66674819D01*
X131436666Y-66674819D02*
X131531904Y-66722438D01*
X131531904Y-66722438D02*
X131579523Y-66770057D01*
X131579523Y-66770057D02*
X131627142Y-66865295D01*
X131627142Y-66865295D02*
X131627142Y-67008152D01*
X131627142Y-67008152D02*
X131579523Y-67103390D01*
X131579523Y-67103390D02*
X131531904Y-67151009D01*
X131531904Y-67151009D02*
X131436666Y-67198628D01*
X131436666Y-67198628D02*
X131055714Y-67198628D01*
X132579523Y-67674819D02*
X132008095Y-67674819D01*
X132293809Y-67674819D02*
X132293809Y-66674819D01*
X132293809Y-66674819D02*
X132198571Y-66817676D01*
X132198571Y-66817676D02*
X132103333Y-66912914D01*
X132103333Y-66912914D02*
X132008095Y-66960533D01*
X133531904Y-67674819D02*
X132960476Y-67674819D01*
X133246190Y-67674819D02*
X133246190Y-66674819D01*
X133246190Y-66674819D02*
X133150952Y-66817676D01*
X133150952Y-66817676D02*
X133055714Y-66912914D01*
X133055714Y-66912914D02*
X132960476Y-66960533D01*
X111527142Y-54704819D02*
X111193809Y-54228628D01*
X110955714Y-54704819D02*
X110955714Y-53704819D01*
X110955714Y-53704819D02*
X111336666Y-53704819D01*
X111336666Y-53704819D02*
X111431904Y-53752438D01*
X111431904Y-53752438D02*
X111479523Y-53800057D01*
X111479523Y-53800057D02*
X111527142Y-53895295D01*
X111527142Y-53895295D02*
X111527142Y-54038152D01*
X111527142Y-54038152D02*
X111479523Y-54133390D01*
X111479523Y-54133390D02*
X111431904Y-54181009D01*
X111431904Y-54181009D02*
X111336666Y-54228628D01*
X111336666Y-54228628D02*
X110955714Y-54228628D01*
X111908095Y-53800057D02*
X111955714Y-53752438D01*
X111955714Y-53752438D02*
X112050952Y-53704819D01*
X112050952Y-53704819D02*
X112289047Y-53704819D01*
X112289047Y-53704819D02*
X112384285Y-53752438D01*
X112384285Y-53752438D02*
X112431904Y-53800057D01*
X112431904Y-53800057D02*
X112479523Y-53895295D01*
X112479523Y-53895295D02*
X112479523Y-53990533D01*
X112479523Y-53990533D02*
X112431904Y-54133390D01*
X112431904Y-54133390D02*
X111860476Y-54704819D01*
X111860476Y-54704819D02*
X112479523Y-54704819D01*
X112860476Y-53800057D02*
X112908095Y-53752438D01*
X112908095Y-53752438D02*
X113003333Y-53704819D01*
X113003333Y-53704819D02*
X113241428Y-53704819D01*
X113241428Y-53704819D02*
X113336666Y-53752438D01*
X113336666Y-53752438D02*
X113384285Y-53800057D01*
X113384285Y-53800057D02*
X113431904Y-53895295D01*
X113431904Y-53895295D02*
X113431904Y-53990533D01*
X113431904Y-53990533D02*
X113384285Y-54133390D01*
X113384285Y-54133390D02*
X112812857Y-54704819D01*
X112812857Y-54704819D02*
X113431904Y-54704819D01*
X152940476Y-91874819D02*
X152940476Y-92589104D01*
X152940476Y-92589104D02*
X152892857Y-92731961D01*
X152892857Y-92731961D02*
X152797619Y-92827200D01*
X152797619Y-92827200D02*
X152654762Y-92874819D01*
X152654762Y-92874819D02*
X152559524Y-92874819D01*
X153940476Y-92874819D02*
X153369048Y-92874819D01*
X153654762Y-92874819D02*
X153654762Y-91874819D01*
X153654762Y-91874819D02*
X153559524Y-92017676D01*
X153559524Y-92017676D02*
X153464286Y-92112914D01*
X153464286Y-92112914D02*
X153369048Y-92160533D01*
X154321429Y-91970057D02*
X154369048Y-91922438D01*
X154369048Y-91922438D02*
X154464286Y-91874819D01*
X154464286Y-91874819D02*
X154702381Y-91874819D01*
X154702381Y-91874819D02*
X154797619Y-91922438D01*
X154797619Y-91922438D02*
X154845238Y-91970057D01*
X154845238Y-91970057D02*
X154892857Y-92065295D01*
X154892857Y-92065295D02*
X154892857Y-92160533D01*
X154892857Y-92160533D02*
X154845238Y-92303390D01*
X154845238Y-92303390D02*
X154273810Y-92874819D01*
X154273810Y-92874819D02*
X154892857Y-92874819D01*
X152033333Y-59604819D02*
X151700000Y-59128628D01*
X151461905Y-59604819D02*
X151461905Y-58604819D01*
X151461905Y-58604819D02*
X151842857Y-58604819D01*
X151842857Y-58604819D02*
X151938095Y-58652438D01*
X151938095Y-58652438D02*
X151985714Y-58700057D01*
X151985714Y-58700057D02*
X152033333Y-58795295D01*
X152033333Y-58795295D02*
X152033333Y-58938152D01*
X152033333Y-58938152D02*
X151985714Y-59033390D01*
X151985714Y-59033390D02*
X151938095Y-59081009D01*
X151938095Y-59081009D02*
X151842857Y-59128628D01*
X151842857Y-59128628D02*
X151461905Y-59128628D01*
X152985714Y-59604819D02*
X152414286Y-59604819D01*
X152700000Y-59604819D02*
X152700000Y-58604819D01*
X152700000Y-58604819D02*
X152604762Y-58747676D01*
X152604762Y-58747676D02*
X152509524Y-58842914D01*
X152509524Y-58842914D02*
X152414286Y-58890533D01*
X141634819Y-70802857D02*
X141158628Y-71136190D01*
X141634819Y-71374285D02*
X140634819Y-71374285D01*
X140634819Y-71374285D02*
X140634819Y-70993333D01*
X140634819Y-70993333D02*
X140682438Y-70898095D01*
X140682438Y-70898095D02*
X140730057Y-70850476D01*
X140730057Y-70850476D02*
X140825295Y-70802857D01*
X140825295Y-70802857D02*
X140968152Y-70802857D01*
X140968152Y-70802857D02*
X141063390Y-70850476D01*
X141063390Y-70850476D02*
X141111009Y-70898095D01*
X141111009Y-70898095D02*
X141158628Y-70993333D01*
X141158628Y-70993333D02*
X141158628Y-71374285D01*
X140730057Y-70421904D02*
X140682438Y-70374285D01*
X140682438Y-70374285D02*
X140634819Y-70279047D01*
X140634819Y-70279047D02*
X140634819Y-70040952D01*
X140634819Y-70040952D02*
X140682438Y-69945714D01*
X140682438Y-69945714D02*
X140730057Y-69898095D01*
X140730057Y-69898095D02*
X140825295Y-69850476D01*
X140825295Y-69850476D02*
X140920533Y-69850476D01*
X140920533Y-69850476D02*
X141063390Y-69898095D01*
X141063390Y-69898095D02*
X141634819Y-70469523D01*
X141634819Y-70469523D02*
X141634819Y-69850476D01*
X140634819Y-69517142D02*
X140634819Y-68850476D01*
X140634819Y-68850476D02*
X141634819Y-69279047D01*
X119457142Y-67784819D02*
X119123809Y-67308628D01*
X118885714Y-67784819D02*
X118885714Y-66784819D01*
X118885714Y-66784819D02*
X119266666Y-66784819D01*
X119266666Y-66784819D02*
X119361904Y-66832438D01*
X119361904Y-66832438D02*
X119409523Y-66880057D01*
X119409523Y-66880057D02*
X119457142Y-66975295D01*
X119457142Y-66975295D02*
X119457142Y-67118152D01*
X119457142Y-67118152D02*
X119409523Y-67213390D01*
X119409523Y-67213390D02*
X119361904Y-67261009D01*
X119361904Y-67261009D02*
X119266666Y-67308628D01*
X119266666Y-67308628D02*
X118885714Y-67308628D01*
X120409523Y-67784819D02*
X119838095Y-67784819D01*
X120123809Y-67784819D02*
X120123809Y-66784819D01*
X120123809Y-66784819D02*
X120028571Y-66927676D01*
X120028571Y-66927676D02*
X119933333Y-67022914D01*
X119933333Y-67022914D02*
X119838095Y-67070533D01*
X120742857Y-66784819D02*
X121409523Y-66784819D01*
X121409523Y-66784819D02*
X120980952Y-67784819D01*
X122144819Y-77152857D02*
X121668628Y-77486190D01*
X122144819Y-77724285D02*
X121144819Y-77724285D01*
X121144819Y-77724285D02*
X121144819Y-77343333D01*
X121144819Y-77343333D02*
X121192438Y-77248095D01*
X121192438Y-77248095D02*
X121240057Y-77200476D01*
X121240057Y-77200476D02*
X121335295Y-77152857D01*
X121335295Y-77152857D02*
X121478152Y-77152857D01*
X121478152Y-77152857D02*
X121573390Y-77200476D01*
X121573390Y-77200476D02*
X121621009Y-77248095D01*
X121621009Y-77248095D02*
X121668628Y-77343333D01*
X121668628Y-77343333D02*
X121668628Y-77724285D01*
X121240057Y-76771904D02*
X121192438Y-76724285D01*
X121192438Y-76724285D02*
X121144819Y-76629047D01*
X121144819Y-76629047D02*
X121144819Y-76390952D01*
X121144819Y-76390952D02*
X121192438Y-76295714D01*
X121192438Y-76295714D02*
X121240057Y-76248095D01*
X121240057Y-76248095D02*
X121335295Y-76200476D01*
X121335295Y-76200476D02*
X121430533Y-76200476D01*
X121430533Y-76200476D02*
X121573390Y-76248095D01*
X121573390Y-76248095D02*
X122144819Y-76819523D01*
X122144819Y-76819523D02*
X122144819Y-76200476D01*
X121144819Y-75295714D02*
X121144819Y-75771904D01*
X121144819Y-75771904D02*
X121621009Y-75819523D01*
X121621009Y-75819523D02*
X121573390Y-75771904D01*
X121573390Y-75771904D02*
X121525771Y-75676666D01*
X121525771Y-75676666D02*
X121525771Y-75438571D01*
X121525771Y-75438571D02*
X121573390Y-75343333D01*
X121573390Y-75343333D02*
X121621009Y-75295714D01*
X121621009Y-75295714D02*
X121716247Y-75248095D01*
X121716247Y-75248095D02*
X121954342Y-75248095D01*
X121954342Y-75248095D02*
X122049580Y-75295714D01*
X122049580Y-75295714D02*
X122097200Y-75343333D01*
X122097200Y-75343333D02*
X122144819Y-75438571D01*
X122144819Y-75438571D02*
X122144819Y-75676666D01*
X122144819Y-75676666D02*
X122097200Y-75771904D01*
X122097200Y-75771904D02*
X122049580Y-75819523D01*
X123577142Y-54574819D02*
X123243809Y-54098628D01*
X123005714Y-54574819D02*
X123005714Y-53574819D01*
X123005714Y-53574819D02*
X123386666Y-53574819D01*
X123386666Y-53574819D02*
X123481904Y-53622438D01*
X123481904Y-53622438D02*
X123529523Y-53670057D01*
X123529523Y-53670057D02*
X123577142Y-53765295D01*
X123577142Y-53765295D02*
X123577142Y-53908152D01*
X123577142Y-53908152D02*
X123529523Y-54003390D01*
X123529523Y-54003390D02*
X123481904Y-54051009D01*
X123481904Y-54051009D02*
X123386666Y-54098628D01*
X123386666Y-54098628D02*
X123005714Y-54098628D01*
X124529523Y-54574819D02*
X123958095Y-54574819D01*
X124243809Y-54574819D02*
X124243809Y-53574819D01*
X124243809Y-53574819D02*
X124148571Y-53717676D01*
X124148571Y-53717676D02*
X124053333Y-53812914D01*
X124053333Y-53812914D02*
X123958095Y-53860533D01*
X125386666Y-53574819D02*
X125196190Y-53574819D01*
X125196190Y-53574819D02*
X125100952Y-53622438D01*
X125100952Y-53622438D02*
X125053333Y-53670057D01*
X125053333Y-53670057D02*
X124958095Y-53812914D01*
X124958095Y-53812914D02*
X124910476Y-54003390D01*
X124910476Y-54003390D02*
X124910476Y-54384342D01*
X124910476Y-54384342D02*
X124958095Y-54479580D01*
X124958095Y-54479580D02*
X125005714Y-54527200D01*
X125005714Y-54527200D02*
X125100952Y-54574819D01*
X125100952Y-54574819D02*
X125291428Y-54574819D01*
X125291428Y-54574819D02*
X125386666Y-54527200D01*
X125386666Y-54527200D02*
X125434285Y-54479580D01*
X125434285Y-54479580D02*
X125481904Y-54384342D01*
X125481904Y-54384342D02*
X125481904Y-54146247D01*
X125481904Y-54146247D02*
X125434285Y-54051009D01*
X125434285Y-54051009D02*
X125386666Y-54003390D01*
X125386666Y-54003390D02*
X125291428Y-53955771D01*
X125291428Y-53955771D02*
X125100952Y-53955771D01*
X125100952Y-53955771D02*
X125005714Y-54003390D01*
X125005714Y-54003390D02*
X124958095Y-54051009D01*
X124958095Y-54051009D02*
X124910476Y-54146247D01*
X131744819Y-89825238D02*
X131268628Y-90158571D01*
X131744819Y-90396666D02*
X130744819Y-90396666D01*
X130744819Y-90396666D02*
X130744819Y-90015714D01*
X130744819Y-90015714D02*
X130792438Y-89920476D01*
X130792438Y-89920476D02*
X130840057Y-89872857D01*
X130840057Y-89872857D02*
X130935295Y-89825238D01*
X130935295Y-89825238D02*
X131078152Y-89825238D01*
X131078152Y-89825238D02*
X131173390Y-89872857D01*
X131173390Y-89872857D02*
X131221009Y-89920476D01*
X131221009Y-89920476D02*
X131268628Y-90015714D01*
X131268628Y-90015714D02*
X131268628Y-90396666D01*
X130744819Y-89539523D02*
X131744819Y-89206190D01*
X131744819Y-89206190D02*
X130744819Y-88872857D01*
X131744819Y-88015714D02*
X131744819Y-88587142D01*
X131744819Y-88301428D02*
X130744819Y-88301428D01*
X130744819Y-88301428D02*
X130887676Y-88396666D01*
X130887676Y-88396666D02*
X130982914Y-88491904D01*
X130982914Y-88491904D02*
X131030533Y-88587142D01*
X152023333Y-67764819D02*
X151690000Y-67288628D01*
X151451905Y-67764819D02*
X151451905Y-66764819D01*
X151451905Y-66764819D02*
X151832857Y-66764819D01*
X151832857Y-66764819D02*
X151928095Y-66812438D01*
X151928095Y-66812438D02*
X151975714Y-66860057D01*
X151975714Y-66860057D02*
X152023333Y-66955295D01*
X152023333Y-66955295D02*
X152023333Y-67098152D01*
X152023333Y-67098152D02*
X151975714Y-67193390D01*
X151975714Y-67193390D02*
X151928095Y-67241009D01*
X151928095Y-67241009D02*
X151832857Y-67288628D01*
X151832857Y-67288628D02*
X151451905Y-67288628D01*
X152404286Y-66860057D02*
X152451905Y-66812438D01*
X152451905Y-66812438D02*
X152547143Y-66764819D01*
X152547143Y-66764819D02*
X152785238Y-66764819D01*
X152785238Y-66764819D02*
X152880476Y-66812438D01*
X152880476Y-66812438D02*
X152928095Y-66860057D01*
X152928095Y-66860057D02*
X152975714Y-66955295D01*
X152975714Y-66955295D02*
X152975714Y-67050533D01*
X152975714Y-67050533D02*
X152928095Y-67193390D01*
X152928095Y-67193390D02*
X152356667Y-67764819D01*
X152356667Y-67764819D02*
X152975714Y-67764819D01*
X136458095Y-74774819D02*
X136458095Y-75584342D01*
X136458095Y-75584342D02*
X136505714Y-75679580D01*
X136505714Y-75679580D02*
X136553333Y-75727200D01*
X136553333Y-75727200D02*
X136648571Y-75774819D01*
X136648571Y-75774819D02*
X136839047Y-75774819D01*
X136839047Y-75774819D02*
X136934285Y-75727200D01*
X136934285Y-75727200D02*
X136981904Y-75679580D01*
X136981904Y-75679580D02*
X137029523Y-75584342D01*
X137029523Y-75584342D02*
X137029523Y-74774819D01*
X138029523Y-75774819D02*
X137458095Y-75774819D01*
X137743809Y-75774819D02*
X137743809Y-74774819D01*
X137743809Y-74774819D02*
X137648571Y-74917676D01*
X137648571Y-74917676D02*
X137553333Y-75012914D01*
X137553333Y-75012914D02*
X137458095Y-75060533D01*
X126706666Y-88004819D02*
X126706666Y-88719104D01*
X126706666Y-88719104D02*
X126659047Y-88861961D01*
X126659047Y-88861961D02*
X126563809Y-88957200D01*
X126563809Y-88957200D02*
X126420952Y-89004819D01*
X126420952Y-89004819D02*
X126325714Y-89004819D01*
X127230476Y-89004819D02*
X127420952Y-89004819D01*
X127420952Y-89004819D02*
X127516190Y-88957200D01*
X127516190Y-88957200D02*
X127563809Y-88909580D01*
X127563809Y-88909580D02*
X127659047Y-88766723D01*
X127659047Y-88766723D02*
X127706666Y-88576247D01*
X127706666Y-88576247D02*
X127706666Y-88195295D01*
X127706666Y-88195295D02*
X127659047Y-88100057D01*
X127659047Y-88100057D02*
X127611428Y-88052438D01*
X127611428Y-88052438D02*
X127516190Y-88004819D01*
X127516190Y-88004819D02*
X127325714Y-88004819D01*
X127325714Y-88004819D02*
X127230476Y-88052438D01*
X127230476Y-88052438D02*
X127182857Y-88100057D01*
X127182857Y-88100057D02*
X127135238Y-88195295D01*
X127135238Y-88195295D02*
X127135238Y-88433390D01*
X127135238Y-88433390D02*
X127182857Y-88528628D01*
X127182857Y-88528628D02*
X127230476Y-88576247D01*
X127230476Y-88576247D02*
X127325714Y-88623866D01*
X127325714Y-88623866D02*
X127516190Y-88623866D01*
X127516190Y-88623866D02*
X127611428Y-88576247D01*
X127611428Y-88576247D02*
X127659047Y-88528628D01*
X127659047Y-88528628D02*
X127706666Y-88433390D01*
X148183333Y-67874819D02*
X147850000Y-67398628D01*
X147611905Y-67874819D02*
X147611905Y-66874819D01*
X147611905Y-66874819D02*
X147992857Y-66874819D01*
X147992857Y-66874819D02*
X148088095Y-66922438D01*
X148088095Y-66922438D02*
X148135714Y-66970057D01*
X148135714Y-66970057D02*
X148183333Y-67065295D01*
X148183333Y-67065295D02*
X148183333Y-67208152D01*
X148183333Y-67208152D02*
X148135714Y-67303390D01*
X148135714Y-67303390D02*
X148088095Y-67351009D01*
X148088095Y-67351009D02*
X147992857Y-67398628D01*
X147992857Y-67398628D02*
X147611905Y-67398628D01*
X148516667Y-66874819D02*
X149135714Y-66874819D01*
X149135714Y-66874819D02*
X148802381Y-67255771D01*
X148802381Y-67255771D02*
X148945238Y-67255771D01*
X148945238Y-67255771D02*
X149040476Y-67303390D01*
X149040476Y-67303390D02*
X149088095Y-67351009D01*
X149088095Y-67351009D02*
X149135714Y-67446247D01*
X149135714Y-67446247D02*
X149135714Y-67684342D01*
X149135714Y-67684342D02*
X149088095Y-67779580D01*
X149088095Y-67779580D02*
X149040476Y-67827200D01*
X149040476Y-67827200D02*
X148945238Y-67874819D01*
X148945238Y-67874819D02*
X148659524Y-67874819D01*
X148659524Y-67874819D02*
X148564286Y-67827200D01*
X148564286Y-67827200D02*
X148516667Y-67779580D01*
X161054819Y-88289523D02*
X161769104Y-88289523D01*
X161769104Y-88289523D02*
X161911961Y-88337142D01*
X161911961Y-88337142D02*
X162007200Y-88432380D01*
X162007200Y-88432380D02*
X162054819Y-88575237D01*
X162054819Y-88575237D02*
X162054819Y-88670475D01*
X162054819Y-87289523D02*
X162054819Y-87860951D01*
X162054819Y-87575237D02*
X161054819Y-87575237D01*
X161054819Y-87575237D02*
X161197676Y-87670475D01*
X161197676Y-87670475D02*
X161292914Y-87765713D01*
X161292914Y-87765713D02*
X161340533Y-87860951D01*
X161054819Y-86670475D02*
X161054819Y-86575237D01*
X161054819Y-86575237D02*
X161102438Y-86479999D01*
X161102438Y-86479999D02*
X161150057Y-86432380D01*
X161150057Y-86432380D02*
X161245295Y-86384761D01*
X161245295Y-86384761D02*
X161435771Y-86337142D01*
X161435771Y-86337142D02*
X161673866Y-86337142D01*
X161673866Y-86337142D02*
X161864342Y-86384761D01*
X161864342Y-86384761D02*
X161959580Y-86432380D01*
X161959580Y-86432380D02*
X162007200Y-86479999D01*
X162007200Y-86479999D02*
X162054819Y-86575237D01*
X162054819Y-86575237D02*
X162054819Y-86670475D01*
X162054819Y-86670475D02*
X162007200Y-86765713D01*
X162007200Y-86765713D02*
X161959580Y-86813332D01*
X161959580Y-86813332D02*
X161864342Y-86860951D01*
X161864342Y-86860951D02*
X161673866Y-86908570D01*
X161673866Y-86908570D02*
X161435771Y-86908570D01*
X161435771Y-86908570D02*
X161245295Y-86860951D01*
X161245295Y-86860951D02*
X161150057Y-86813332D01*
X161150057Y-86813332D02*
X161102438Y-86765713D01*
X161102438Y-86765713D02*
X161054819Y-86670475D01*
X122809819Y-84285238D02*
X122333628Y-84618571D01*
X122809819Y-84856666D02*
X121809819Y-84856666D01*
X121809819Y-84856666D02*
X121809819Y-84475714D01*
X121809819Y-84475714D02*
X121857438Y-84380476D01*
X121857438Y-84380476D02*
X121905057Y-84332857D01*
X121905057Y-84332857D02*
X122000295Y-84285238D01*
X122000295Y-84285238D02*
X122143152Y-84285238D01*
X122143152Y-84285238D02*
X122238390Y-84332857D01*
X122238390Y-84332857D02*
X122286009Y-84380476D01*
X122286009Y-84380476D02*
X122333628Y-84475714D01*
X122333628Y-84475714D02*
X122333628Y-84856666D01*
X121809819Y-83999523D02*
X122809819Y-83666190D01*
X122809819Y-83666190D02*
X121809819Y-83332857D01*
X121809819Y-83094761D02*
X121809819Y-82475714D01*
X121809819Y-82475714D02*
X122190771Y-82809047D01*
X122190771Y-82809047D02*
X122190771Y-82666190D01*
X122190771Y-82666190D02*
X122238390Y-82570952D01*
X122238390Y-82570952D02*
X122286009Y-82523333D01*
X122286009Y-82523333D02*
X122381247Y-82475714D01*
X122381247Y-82475714D02*
X122619342Y-82475714D01*
X122619342Y-82475714D02*
X122714580Y-82523333D01*
X122714580Y-82523333D02*
X122762200Y-82570952D01*
X122762200Y-82570952D02*
X122809819Y-82666190D01*
X122809819Y-82666190D02*
X122809819Y-82951904D01*
X122809819Y-82951904D02*
X122762200Y-83047142D01*
X122762200Y-83047142D02*
X122714580Y-83094761D01*
X142934819Y-89865238D02*
X142458628Y-90198571D01*
X142934819Y-90436666D02*
X141934819Y-90436666D01*
X141934819Y-90436666D02*
X141934819Y-90055714D01*
X141934819Y-90055714D02*
X141982438Y-89960476D01*
X141982438Y-89960476D02*
X142030057Y-89912857D01*
X142030057Y-89912857D02*
X142125295Y-89865238D01*
X142125295Y-89865238D02*
X142268152Y-89865238D01*
X142268152Y-89865238D02*
X142363390Y-89912857D01*
X142363390Y-89912857D02*
X142411009Y-89960476D01*
X142411009Y-89960476D02*
X142458628Y-90055714D01*
X142458628Y-90055714D02*
X142458628Y-90436666D01*
X141934819Y-89579523D02*
X142934819Y-89246190D01*
X142934819Y-89246190D02*
X141934819Y-88912857D01*
X142030057Y-88627142D02*
X141982438Y-88579523D01*
X141982438Y-88579523D02*
X141934819Y-88484285D01*
X141934819Y-88484285D02*
X141934819Y-88246190D01*
X141934819Y-88246190D02*
X141982438Y-88150952D01*
X141982438Y-88150952D02*
X142030057Y-88103333D01*
X142030057Y-88103333D02*
X142125295Y-88055714D01*
X142125295Y-88055714D02*
X142220533Y-88055714D01*
X142220533Y-88055714D02*
X142363390Y-88103333D01*
X142363390Y-88103333D02*
X142934819Y-88674761D01*
X142934819Y-88674761D02*
X142934819Y-88055714D01*
X140403333Y-54674819D02*
X140070000Y-54198628D01*
X139831905Y-54674819D02*
X139831905Y-53674819D01*
X139831905Y-53674819D02*
X140212857Y-53674819D01*
X140212857Y-53674819D02*
X140308095Y-53722438D01*
X140308095Y-53722438D02*
X140355714Y-53770057D01*
X140355714Y-53770057D02*
X140403333Y-53865295D01*
X140403333Y-53865295D02*
X140403333Y-54008152D01*
X140403333Y-54008152D02*
X140355714Y-54103390D01*
X140355714Y-54103390D02*
X140308095Y-54151009D01*
X140308095Y-54151009D02*
X140212857Y-54198628D01*
X140212857Y-54198628D02*
X139831905Y-54198628D01*
X140974762Y-54103390D02*
X140879524Y-54055771D01*
X140879524Y-54055771D02*
X140831905Y-54008152D01*
X140831905Y-54008152D02*
X140784286Y-53912914D01*
X140784286Y-53912914D02*
X140784286Y-53865295D01*
X140784286Y-53865295D02*
X140831905Y-53770057D01*
X140831905Y-53770057D02*
X140879524Y-53722438D01*
X140879524Y-53722438D02*
X140974762Y-53674819D01*
X140974762Y-53674819D02*
X141165238Y-53674819D01*
X141165238Y-53674819D02*
X141260476Y-53722438D01*
X141260476Y-53722438D02*
X141308095Y-53770057D01*
X141308095Y-53770057D02*
X141355714Y-53865295D01*
X141355714Y-53865295D02*
X141355714Y-53912914D01*
X141355714Y-53912914D02*
X141308095Y-54008152D01*
X141308095Y-54008152D02*
X141260476Y-54055771D01*
X141260476Y-54055771D02*
X141165238Y-54103390D01*
X141165238Y-54103390D02*
X140974762Y-54103390D01*
X140974762Y-54103390D02*
X140879524Y-54151009D01*
X140879524Y-54151009D02*
X140831905Y-54198628D01*
X140831905Y-54198628D02*
X140784286Y-54293866D01*
X140784286Y-54293866D02*
X140784286Y-54484342D01*
X140784286Y-54484342D02*
X140831905Y-54579580D01*
X140831905Y-54579580D02*
X140879524Y-54627200D01*
X140879524Y-54627200D02*
X140974762Y-54674819D01*
X140974762Y-54674819D02*
X141165238Y-54674819D01*
X141165238Y-54674819D02*
X141260476Y-54627200D01*
X141260476Y-54627200D02*
X141308095Y-54579580D01*
X141308095Y-54579580D02*
X141355714Y-54484342D01*
X141355714Y-54484342D02*
X141355714Y-54293866D01*
X141355714Y-54293866D02*
X141308095Y-54198628D01*
X141308095Y-54198628D02*
X141260476Y-54151009D01*
X141260476Y-54151009D02*
X141165238Y-54103390D01*
X106166666Y-71744819D02*
X106166666Y-72459104D01*
X106166666Y-72459104D02*
X106119047Y-72601961D01*
X106119047Y-72601961D02*
X106023809Y-72697200D01*
X106023809Y-72697200D02*
X105880952Y-72744819D01*
X105880952Y-72744819D02*
X105785714Y-72744819D01*
X107071428Y-71744819D02*
X106880952Y-71744819D01*
X106880952Y-71744819D02*
X106785714Y-71792438D01*
X106785714Y-71792438D02*
X106738095Y-71840057D01*
X106738095Y-71840057D02*
X106642857Y-71982914D01*
X106642857Y-71982914D02*
X106595238Y-72173390D01*
X106595238Y-72173390D02*
X106595238Y-72554342D01*
X106595238Y-72554342D02*
X106642857Y-72649580D01*
X106642857Y-72649580D02*
X106690476Y-72697200D01*
X106690476Y-72697200D02*
X106785714Y-72744819D01*
X106785714Y-72744819D02*
X106976190Y-72744819D01*
X106976190Y-72744819D02*
X107071428Y-72697200D01*
X107071428Y-72697200D02*
X107119047Y-72649580D01*
X107119047Y-72649580D02*
X107166666Y-72554342D01*
X107166666Y-72554342D02*
X107166666Y-72316247D01*
X107166666Y-72316247D02*
X107119047Y-72221009D01*
X107119047Y-72221009D02*
X107071428Y-72173390D01*
X107071428Y-72173390D02*
X106976190Y-72125771D01*
X106976190Y-72125771D02*
X106785714Y-72125771D01*
X106785714Y-72125771D02*
X106690476Y-72173390D01*
X106690476Y-72173390D02*
X106642857Y-72221009D01*
X106642857Y-72221009D02*
X106595238Y-72316247D01*
X124514819Y-70762857D02*
X124038628Y-71096190D01*
X124514819Y-71334285D02*
X123514819Y-71334285D01*
X123514819Y-71334285D02*
X123514819Y-70953333D01*
X123514819Y-70953333D02*
X123562438Y-70858095D01*
X123562438Y-70858095D02*
X123610057Y-70810476D01*
X123610057Y-70810476D02*
X123705295Y-70762857D01*
X123705295Y-70762857D02*
X123848152Y-70762857D01*
X123848152Y-70762857D02*
X123943390Y-70810476D01*
X123943390Y-70810476D02*
X123991009Y-70858095D01*
X123991009Y-70858095D02*
X124038628Y-70953333D01*
X124038628Y-70953333D02*
X124038628Y-71334285D01*
X123610057Y-70381904D02*
X123562438Y-70334285D01*
X123562438Y-70334285D02*
X123514819Y-70239047D01*
X123514819Y-70239047D02*
X123514819Y-70000952D01*
X123514819Y-70000952D02*
X123562438Y-69905714D01*
X123562438Y-69905714D02*
X123610057Y-69858095D01*
X123610057Y-69858095D02*
X123705295Y-69810476D01*
X123705295Y-69810476D02*
X123800533Y-69810476D01*
X123800533Y-69810476D02*
X123943390Y-69858095D01*
X123943390Y-69858095D02*
X124514819Y-70429523D01*
X124514819Y-70429523D02*
X124514819Y-69810476D01*
X123514819Y-69477142D02*
X123514819Y-68858095D01*
X123514819Y-68858095D02*
X123895771Y-69191428D01*
X123895771Y-69191428D02*
X123895771Y-69048571D01*
X123895771Y-69048571D02*
X123943390Y-68953333D01*
X123943390Y-68953333D02*
X123991009Y-68905714D01*
X123991009Y-68905714D02*
X124086247Y-68858095D01*
X124086247Y-68858095D02*
X124324342Y-68858095D01*
X124324342Y-68858095D02*
X124419580Y-68905714D01*
X124419580Y-68905714D02*
X124467200Y-68953333D01*
X124467200Y-68953333D02*
X124514819Y-69048571D01*
X124514819Y-69048571D02*
X124514819Y-69334285D01*
X124514819Y-69334285D02*
X124467200Y-69429523D01*
X124467200Y-69429523D02*
X124419580Y-69477142D01*
D11*
%TO.C,J1*%
X126610000Y-96130000D02*
X127940000Y-96130000D01*
X126610000Y-97460000D02*
X126610000Y-96130000D01*
X129210000Y-96130000D02*
X147050000Y-96130000D01*
X129210000Y-98790000D02*
X129210000Y-96130000D01*
X129210000Y-98790000D02*
X147050000Y-98790000D01*
X147050000Y-98790000D02*
X147050000Y-96130000D01*
%TO.C,J3*%
X149470000Y-96130000D02*
X150800000Y-96130000D01*
X149470000Y-97460000D02*
X149470000Y-96130000D01*
X152070000Y-96130000D02*
X164830000Y-96130000D01*
X152070000Y-98790000D02*
X152070000Y-96130000D01*
X152070000Y-98790000D02*
X164830000Y-98790000D01*
X164830000Y-98790000D02*
X164830000Y-96130000D01*
%TO.C,J2*%
X117466000Y-47870000D02*
X118796000Y-47870000D01*
X117466000Y-49200000D02*
X117466000Y-47870000D01*
X120066000Y-47870000D02*
X142986000Y-47870000D01*
X120066000Y-50530000D02*
X120066000Y-47870000D01*
X120066000Y-50530000D02*
X142986000Y-50530000D01*
X142986000Y-50530000D02*
X142986000Y-47870000D01*
%TO.C,J4*%
X144390000Y-47870000D02*
X145720000Y-47870000D01*
X144390000Y-49200000D02*
X144390000Y-47870000D01*
X146990000Y-47870000D02*
X164830000Y-47870000D01*
X146990000Y-50530000D02*
X146990000Y-47870000D01*
X146990000Y-50530000D02*
X164830000Y-50530000D01*
X164830000Y-50530000D02*
X164830000Y-47870000D01*
%TO.C,R9*%
X135430000Y-64263272D02*
G75*
G02*
X137270000Y-64263272I920000J1453272D01*
G01*
%TO.C,R13*%
X127230000Y-64273272D02*
G75*
G02*
X129070000Y-64273272I920000J1453272D01*
G01*
%TO.C,R14*%
X129050000Y-57166728D02*
G75*
G02*
X127210000Y-57166728I-920000J-1453272D01*
G01*
%TO.C,R18*%
X120970000Y-57216728D02*
G75*
G02*
X119130000Y-57216728I-920000J-1453272D01*
G01*
%TO.C,R4*%
X149240000Y-57236728D02*
G75*
G02*
X147400000Y-57236728I-920000J-1453272D01*
G01*
%TO.C,R15*%
X123150000Y-64263272D02*
G75*
G02*
X124990000Y-64263272I920000J1453272D01*
G01*
%TO.C,R19*%
X115160000Y-64293272D02*
G75*
G02*
X117000000Y-64293272I920000J1453272D01*
G01*
%TO.C,C2*%
X128520000Y-72730000D02*
X131260000Y-72730000D01*
X128520000Y-77970000D02*
X128520000Y-72730000D01*
X131260000Y-72730000D02*
X131260000Y-77970000D01*
X131260000Y-77970000D02*
X128520000Y-77970000D01*
%TO.C,R7*%
X139430000Y-64273272D02*
G75*
G02*
X141270000Y-64273272I920000J1453272D01*
G01*
%TO.C,R21*%
X111170000Y-64293272D02*
G75*
G02*
X113010000Y-64293272I920000J1453272D01*
G01*
%TO.C,SW2*%
X156960000Y-63050000D02*
X156960000Y-64550000D01*
X158210000Y-67050000D02*
X162710000Y-67050000D01*
X162710000Y-60550000D02*
X158210000Y-60550000D01*
X163960000Y-64550000D02*
X163960000Y-63050000D01*
%TO.C,R20*%
X117010000Y-57216728D02*
G75*
G02*
X115170000Y-57216728I-920000J-1453272D01*
G01*
%TO.C,R6*%
X145230000Y-57226728D02*
G75*
G02*
X143390000Y-57226728I-920000J-1453272D01*
G01*
%TO.C,J7*%
X151930000Y-70540000D02*
X153310000Y-70540000D01*
X151930000Y-71920000D02*
X151930000Y-70540000D01*
X151930000Y-73190000D02*
X151930000Y-78380000D01*
X151930000Y-73190000D02*
X154690000Y-73190000D01*
X151930000Y-78380000D02*
X154690000Y-78380000D01*
X154690000Y-73190000D02*
X154690000Y-78380000D01*
%TO.C,R10*%
X137190000Y-57196728D02*
G75*
G02*
X135350000Y-57196728I-920000J-1453272D01*
G01*
%TO.C,J5*%
X88350000Y-66400000D02*
X88350000Y-69060000D01*
X106190000Y-66400000D02*
X88350000Y-66400000D01*
X106190000Y-66400000D02*
X106190000Y-69060000D01*
X106190000Y-69060000D02*
X88350000Y-69060000D01*
X108790000Y-67730000D02*
X108790000Y-69060000D01*
X108790000Y-69060000D02*
X107460000Y-69060000D01*
%TO.C,R26*%
X120713272Y-91710000D02*
G75*
G02*
X120713272Y-89870000I-1453272J920000D01*
G01*
%TO.C,J11*%
X156390000Y-68330000D02*
X167390000Y-68330000D01*
X156390000Y-80330000D02*
X156390000Y-68330000D01*
X167390000Y-68330000D02*
X167390000Y-69830000D01*
X167390000Y-69830000D02*
X168590000Y-69830000D01*
X167390000Y-72330000D02*
X167390000Y-76330000D01*
X167390000Y-76330000D02*
X170390000Y-76330000D01*
X167390000Y-78830000D02*
X167390000Y-80330000D01*
X167390000Y-80330000D02*
X156390000Y-80330000D01*
X168590000Y-69830000D02*
X168590000Y-71330000D01*
X168590000Y-71330000D02*
X170390000Y-71330000D01*
X168590000Y-77330000D02*
X168590000Y-78830000D01*
X168590000Y-78830000D02*
X167390000Y-78830000D01*
X170390000Y-71330000D02*
X170390000Y-77330000D01*
X170390000Y-72330000D02*
X167390000Y-72330000D01*
X170390000Y-77330000D02*
X168590000Y-77330000D01*
%TO.C,R5*%
X143450000Y-64303272D02*
G75*
G02*
X145290000Y-64303272I920000J1453272D01*
G01*
%TO.C,C1*%
X145170000Y-75597620D02*
X142989000Y-75597620D01*
X145170000Y-75637620D02*
X142992000Y-75637620D01*
X145170000Y-75677620D02*
X142996000Y-75677620D01*
X145170000Y-75717620D02*
X143000000Y-75717620D01*
X145170000Y-75757620D02*
X143005000Y-75757620D01*
X145170000Y-75797620D02*
X143010000Y-75797620D01*
X145170000Y-75837620D02*
X143015000Y-75837620D01*
X145170000Y-75877620D02*
X143022000Y-75877620D01*
X145170000Y-75917620D02*
X143028000Y-75917620D01*
X145170000Y-75957620D02*
X143036000Y-75957620D01*
X145170000Y-75997620D02*
X143043000Y-75997620D01*
X145170000Y-76037620D02*
X143051000Y-76037620D01*
X145170000Y-76077620D02*
X143060000Y-76077620D01*
X145170000Y-76117620D02*
X143070000Y-76117620D01*
X145170000Y-76157620D02*
X143079000Y-76157620D01*
X145170000Y-76197620D02*
X143090000Y-76197620D01*
X145170000Y-76237620D02*
X143101000Y-76237620D01*
X145170000Y-76277620D02*
X143112000Y-76277620D01*
X145170000Y-76317620D02*
X143124000Y-76317620D01*
X145170000Y-76357620D02*
X143137000Y-76357620D01*
X145170000Y-76397620D02*
X143150000Y-76397620D01*
X145170000Y-76437620D02*
X143163000Y-76437620D01*
X145170000Y-76477620D02*
X143178000Y-76477620D01*
X145170000Y-76517620D02*
X143193000Y-76517620D01*
X145170000Y-76557620D02*
X143208000Y-76557620D01*
X145170000Y-76597620D02*
X143224000Y-76597620D01*
X145170000Y-76637620D02*
X143241000Y-76637620D01*
X145170000Y-76677620D02*
X143258000Y-76677620D01*
X145170000Y-76717620D02*
X143276000Y-76717620D01*
X145170000Y-76757620D02*
X143295000Y-76757620D01*
X145170000Y-76797620D02*
X143314000Y-76797620D01*
X145170000Y-76837620D02*
X143334000Y-76837620D01*
X145170000Y-76877620D02*
X143355000Y-76877620D01*
X145170000Y-76917620D02*
X143376000Y-76917620D01*
X145170000Y-76957620D02*
X143398000Y-76957620D01*
X145170000Y-76997620D02*
X143421000Y-76997620D01*
X145170000Y-77037620D02*
X143445000Y-77037620D01*
X145170000Y-77077620D02*
X143469000Y-77077620D01*
X145170000Y-77117620D02*
X143494000Y-77117620D01*
X145170000Y-77157620D02*
X143520000Y-77157620D01*
X145170000Y-77197620D02*
X143547000Y-77197620D01*
X145170000Y-77237620D02*
X143574000Y-77237620D01*
X145170000Y-77277620D02*
X143603000Y-77277620D01*
X145170000Y-77317620D02*
X143633000Y-77317620D01*
X145170000Y-77357620D02*
X143663000Y-77357620D01*
X145170000Y-77397620D02*
X143694000Y-77397620D01*
X145170000Y-77437620D02*
X143727000Y-77437620D01*
X145170000Y-77477620D02*
X143760000Y-77477620D01*
X145170000Y-77517620D02*
X143795000Y-77517620D01*
X145170000Y-77557620D02*
X143831000Y-77557620D01*
X145170000Y-77597620D02*
X143868000Y-77597620D01*
X145170000Y-77637620D02*
X143906000Y-77637620D01*
X146612000Y-78597620D02*
X145808000Y-78597620D01*
X146843000Y-78557620D02*
X145577000Y-78557620D01*
X147011000Y-78517620D02*
X145409000Y-78517620D01*
X147149000Y-78477620D02*
X145271000Y-78477620D01*
X147268000Y-78437620D02*
X145152000Y-78437620D01*
X147375000Y-78397620D02*
X145045000Y-78397620D01*
X147471000Y-78357620D02*
X144949000Y-78357620D01*
X147560000Y-78317620D02*
X144860000Y-78317620D01*
X147642000Y-78277620D02*
X144778000Y-78277620D01*
X147719000Y-78237620D02*
X144701000Y-78237620D01*
X147791000Y-78197620D02*
X144629000Y-78197620D01*
X147859000Y-78157620D02*
X144561000Y-78157620D01*
X147924000Y-78117620D02*
X144496000Y-78117620D01*
X147985000Y-78077620D02*
X144435000Y-78077620D01*
X148044000Y-78037620D02*
X144376000Y-78037620D01*
X148049000Y-71857379D02*
X148049000Y-72487379D01*
X148100000Y-77997620D02*
X144320000Y-77997620D01*
X148153000Y-77957620D02*
X144267000Y-77957620D01*
X148205000Y-77917620D02*
X144215000Y-77917620D01*
X148254000Y-77877620D02*
X144166000Y-77877620D01*
X148301000Y-77837620D02*
X144119000Y-77837620D01*
X148347000Y-77797620D02*
X144073000Y-77797620D01*
X148364000Y-72172379D02*
X147734000Y-72172379D01*
X148391000Y-77757620D02*
X144029000Y-77757620D01*
X148433000Y-77717620D02*
X143987000Y-77717620D01*
X148474000Y-77677620D02*
X143946000Y-77677620D01*
X148514000Y-77637620D02*
X147250000Y-77637620D01*
X148552000Y-77597620D02*
X147250000Y-77597620D01*
X148589000Y-77557620D02*
X147250000Y-77557620D01*
X148625000Y-77517620D02*
X147250000Y-77517620D01*
X148660000Y-77477620D02*
X147250000Y-77477620D01*
X148693000Y-77437620D02*
X147250000Y-77437620D01*
X148726000Y-77397620D02*
X147250000Y-77397620D01*
X148757000Y-77357620D02*
X147250000Y-77357620D01*
X148787000Y-77317620D02*
X147250000Y-77317620D01*
X148817000Y-77277620D02*
X147250000Y-77277620D01*
X148846000Y-77237620D02*
X147250000Y-77237620D01*
X148873000Y-77197620D02*
X147250000Y-77197620D01*
X148900000Y-77157620D02*
X147250000Y-77157620D01*
X148926000Y-77117620D02*
X147250000Y-77117620D01*
X148951000Y-77077620D02*
X147250000Y-77077620D01*
X148975000Y-77037620D02*
X147250000Y-77037620D01*
X148999000Y-76997620D02*
X147250000Y-76997620D01*
X149022000Y-76957620D02*
X147250000Y-76957620D01*
X149044000Y-76917620D02*
X147250000Y-76917620D01*
X149065000Y-76877620D02*
X147250000Y-76877620D01*
X149086000Y-76837620D02*
X147250000Y-76837620D01*
X149106000Y-76797620D02*
X147250000Y-76797620D01*
X149125000Y-76757620D02*
X147250000Y-76757620D01*
X149144000Y-76717620D02*
X147250000Y-76717620D01*
X149162000Y-76677620D02*
X147250000Y-76677620D01*
X149179000Y-76637620D02*
X147250000Y-76637620D01*
X149196000Y-76597620D02*
X147250000Y-76597620D01*
X149212000Y-76557620D02*
X147250000Y-76557620D01*
X149227000Y-76517620D02*
X147250000Y-76517620D01*
X149242000Y-76477620D02*
X147250000Y-76477620D01*
X149257000Y-76437620D02*
X147250000Y-76437620D01*
X149270000Y-76397620D02*
X147250000Y-76397620D01*
X149283000Y-76357620D02*
X147250000Y-76357620D01*
X149296000Y-76317620D02*
X147250000Y-76317620D01*
X149308000Y-76277620D02*
X147250000Y-76277620D01*
X149319000Y-76237620D02*
X147250000Y-76237620D01*
X149330000Y-76197620D02*
X147250000Y-76197620D01*
X149341000Y-76157620D02*
X147250000Y-76157620D01*
X149350000Y-76117620D02*
X147250000Y-76117620D01*
X149360000Y-76077620D02*
X147250000Y-76077620D01*
X149369000Y-76037620D02*
X147250000Y-76037620D01*
X149377000Y-75997620D02*
X147250000Y-75997620D01*
X149384000Y-75957620D02*
X147250000Y-75957620D01*
X149392000Y-75917620D02*
X147250000Y-75917620D01*
X149398000Y-75877620D02*
X147250000Y-75877620D01*
X149405000Y-75837620D02*
X147250000Y-75837620D01*
X149410000Y-75797620D02*
X147250000Y-75797620D01*
X149415000Y-75757620D02*
X147250000Y-75757620D01*
X149420000Y-75717620D02*
X147250000Y-75717620D01*
X149424000Y-75677620D02*
X147250000Y-75677620D01*
X149428000Y-75637620D02*
X147250000Y-75637620D01*
X149431000Y-75597620D02*
X147250000Y-75597620D01*
X149434000Y-75557620D02*
X142986000Y-75557620D01*
X149436000Y-75517620D02*
X142984000Y-75517620D01*
X149438000Y-75477620D02*
X142982000Y-75477620D01*
X149439000Y-75437620D02*
X142981000Y-75437620D01*
X149440000Y-75357620D02*
X142980000Y-75357620D01*
X149440000Y-75397620D02*
X142980000Y-75397620D01*
X149480000Y-75357620D02*
G75*
G02*
X142940000Y-75357620I-3270000J0D01*
G01*
X142940000Y-75357620D02*
G75*
G02*
X149480000Y-75357620I3270000J0D01*
G01*
%TO.C,R24*%
X125440000Y-75693272D02*
G75*
G02*
X127280000Y-75693272I920000J1453272D01*
G01*
%TO.C,R12*%
X133100000Y-57166728D02*
G75*
G02*
X131260000Y-57166728I-920000J-1453272D01*
G01*
%TO.C,SW1*%
X156960000Y-54870000D02*
X156960000Y-56370000D01*
X158210000Y-58870000D02*
X162710000Y-58870000D01*
X162710000Y-52370000D02*
X158210000Y-52370000D01*
X163960000Y-56370000D02*
X163960000Y-54870000D01*
%TO.C,R11*%
X131260000Y-64223272D02*
G75*
G02*
X133100000Y-64223272I920000J1453272D01*
G01*
%TO.C,R22*%
X113050000Y-57196728D02*
G75*
G02*
X111210000Y-57196728I-920000J-1453272D01*
G01*
%TO.C,J12*%
X152240000Y-88510000D02*
X152240000Y-83320000D01*
X155000000Y-83320000D02*
X152240000Y-83320000D01*
X155000000Y-88510000D02*
X152240000Y-88510000D01*
X155000000Y-88510000D02*
X155000000Y-83320000D01*
X155000000Y-89780000D02*
X155000000Y-91160000D01*
X155000000Y-91160000D02*
X153620000Y-91160000D01*
%TO.C,R1*%
X152300000Y-56123272D02*
G75*
G02*
X154140000Y-56123272I920000J1453272D01*
G01*
%TO.C,R27*%
X136726728Y-69260000D02*
G75*
G02*
X136726728Y-71100000I1453272J-920000D01*
G01*
%TO.C,R17*%
X119110000Y-64253272D02*
G75*
G02*
X120950000Y-64253272I920000J1453272D01*
G01*
%TO.C,R25*%
X118633272Y-77280000D02*
G75*
G02*
X118633272Y-75440000I-1453272J920000D01*
G01*
%TO.C,R16*%
X124990000Y-57196728D02*
G75*
G02*
X123150000Y-57196728I-920000J-1453272D01*
G01*
%TO.C,RV1*%
X129720000Y-84535000D02*
X139470000Y-84535000D01*
X129720000Y-94285000D02*
X129720000Y-84535000D01*
X139470000Y-84535000D02*
X139470000Y-94285000D01*
X139470000Y-94285000D02*
X129720000Y-94285000D01*
%TO.C,R2*%
X152340000Y-64263272D02*
G75*
G02*
X154180000Y-64263272I920000J1453272D01*
G01*
%TO.C,U1*%
X134860000Y-72840000D02*
X134860000Y-83120000D01*
X134860000Y-83120000D02*
X139360000Y-83120000D01*
X136110000Y-72840000D02*
X134860000Y-72840000D01*
X139360000Y-72840000D02*
X138110000Y-72840000D01*
X139360000Y-83120000D02*
X139360000Y-72840000D01*
X131860000Y-72780000D02*
X142360000Y-72780000D01*
X142360000Y-83180000D01*
X131860000Y-83180000D01*
X131860000Y-72780000D01*
X138110000Y-72840000D02*
G75*
G02*
X136110000Y-72840000I-1000000J0D01*
G01*
%TO.C,J9*%
X125660000Y-84900000D02*
X125660000Y-79710000D01*
X128420000Y-79710000D02*
X125660000Y-79710000D01*
X128420000Y-84900000D02*
X125660000Y-84900000D01*
X128420000Y-84900000D02*
X128420000Y-79710000D01*
X128420000Y-86170000D02*
X128420000Y-87550000D01*
X128420000Y-87550000D02*
X127040000Y-87550000D01*
%TO.C,R3*%
X149260000Y-63156728D02*
G75*
G02*
X147420000Y-63156728I-920000J-1453272D01*
G01*
%TO.C,J10*%
X156390000Y-81540000D02*
X167390000Y-81540000D01*
X156390000Y-93540000D02*
X156390000Y-81540000D01*
X167390000Y-81540000D02*
X167390000Y-83040000D01*
X167390000Y-83040000D02*
X168590000Y-83040000D01*
X167390000Y-85540000D02*
X167390000Y-89540000D01*
X167390000Y-89540000D02*
X170390000Y-89540000D01*
X167390000Y-92040000D02*
X167390000Y-93540000D01*
X167390000Y-93540000D02*
X156390000Y-93540000D01*
X168590000Y-83040000D02*
X168590000Y-84540000D01*
X168590000Y-84540000D02*
X170390000Y-84540000D01*
X168590000Y-90540000D02*
X168590000Y-92040000D01*
X168590000Y-92040000D02*
X167390000Y-92040000D01*
X170390000Y-84540000D02*
X170390000Y-90540000D01*
X170390000Y-85540000D02*
X167390000Y-85540000D01*
X170390000Y-90540000D02*
X168590000Y-90540000D01*
%TO.C,RV3*%
X114845000Y-78665000D02*
X124595000Y-78665000D01*
X114845000Y-88415000D02*
X114845000Y-78665000D01*
X124595000Y-78665000D02*
X124595000Y-88415000D01*
X124595000Y-88415000D02*
X114845000Y-88415000D01*
%TO.C,RV2*%
X140920000Y-84535000D02*
X150670000Y-84535000D01*
X140920000Y-94285000D02*
X140920000Y-84535000D01*
X150670000Y-84535000D02*
X150670000Y-94285000D01*
X150670000Y-94285000D02*
X140920000Y-94285000D01*
%TO.C,R8*%
X141290000Y-57236728D02*
G75*
G02*
X139450000Y-57236728I-920000J-1453272D01*
G01*
%TO.C,J6*%
X94520000Y-73620000D02*
X94520000Y-72240000D01*
X95900000Y-73620000D02*
X94520000Y-73620000D01*
X97170000Y-70860000D02*
X104900000Y-70860000D01*
X97170000Y-73620000D02*
X97170000Y-70860000D01*
X97170000Y-73620000D02*
X104900000Y-73620000D01*
X104900000Y-73620000D02*
X104900000Y-70860000D01*
%TO.C,R23*%
X119916728Y-69120000D02*
G75*
G02*
X119916728Y-70960000I1453272J-920000D01*
G01*
%TD*%
M02*
